<?xml version="1.0" encoding="UTF-8" standalone="no"?>
<svg xmlns="http://www.w3.org/2000/svg" version="1.2" baseProfile="tiny" viewBox="0.00 0.00 538.00 217.00">
<g stroke-width="2.00" fill="none" stroke-linecap="butt">
<path stroke="#a3a3a3" vector-effect="non-scaling-stroke" d="
  M 109.1381 18.1214
  A 36.45 13.21 -89.5 0 0 95.6105 54.4547
  A 36.45 13.21 -89.5 0 0 108.5019 91.0186
  A 36.45 13.21 -89.5 0 0 122.0295 54.6853
  A 36.45 13.21 -89.5 0 0 109.1381 18.1214"
/>
<path stroke="#a3a3a3" vector-effect="non-scaling-stroke" d="
  M 475.52 71.37
  A 0.83 0.83 0.0 0 0 474.45 72.06
  C 473.92 76.33 472.45 83.07 467.64 84.10
  A 1.74 1.71 -35.5 0 1 466.44 83.91
  C 462.74 81.79 461.19 77.54 460.33 73.16
  Q 456.80 55.29 459.60 37.48
  C 460.17 33.86 462.99 23.54 468.67 26.78
  C 472.78 29.13 473.71 36.08 473.61 40.34
  A 1.01 1.00 -89.4 0 0 474.61 41.37
  L 474.91 41.37
  A 0.72 0.72 0.0 0 0 475.63 40.63
  L 475.12 23.44
  A 2.20 2.18 23.0 0 0 474.53 22.00
  C 471.79 19.02 466.63 17.05 463.02 19.75
  C 456.90 24.34 454.48 36.21 453.73 43.74
  C 452.38 57.28 452.87 71.26 457.58 83.64
  C 460.32 90.84 466.36 95.64 473.14 88.86
  Q 474.62 87.38 474.86 83.72
  Q 475.02 81.24 476.43 72.66
  A 1.13 1.12 -77.3 0 0 475.65 71.41
  L 475.52 71.37"
/>
<path stroke="#a3a3a3" vector-effect="non-scaling-stroke" d="
  M 288.86 51.61
  L 290.54 62.81
  A 1.17 1.16 68.8 0 1 290.04 63.95
  L 288.31 65.11
  A 1.47 1.46 -59.7 0 0 289.01 67.79
  L 297.61 68.45
  A 1.14 1.13 87.2 0 0 298.81 67.12
  L 298.79 67.01
  A 0.97 0.95 12.4 0 0 298.38 66.38
  Q 295.99 64.77 295.06 59.73
  Q 290.85 37.06 288.01 20.19
  A 1.15 1.15 0.0 0 0 287.27 19.30
  Q 285.78 18.77 283.95 19.51
  A 0.68 0.68 0.0 0 0 283.54 20.01
  Q 278.54 44.26 275.74 57.25
  Q 275.16 59.98 274.05 62.85
  A 2.42 2.33 -7.0 0 1 273.15 63.96
  Q 272.18 64.60 271.49 65.66
  A 1.24 1.24 0.0 0 0 272.53 67.58
  L 279.60 67.58
  A 1.37 1.37 0.0 0 0 280.39 65.09
  L 278.58 63.81
  A 1.22 1.22 0.0 0 1 278.07 62.63
  L 279.63 51.75
  A 1.05 1.05 0.0 0 1 280.67 50.85
  L 287.99 50.85
  A 0.89 0.88 85.8 0 1 288.86 51.61"
/>
<path stroke="#a3a3a3" vector-effect="non-scaling-stroke" d="
  M 208.91 34.20
  L 223.99 71.19
  A 0.98 0.98 0.0 0 0 224.64 71.77
  Q 226.45 72.25 227.38 71.10
  A 0.88 0.84 65.0 0 0 227.56 70.57
  Q 227.47 53.46 227.69 30.59
  C 227.72 27.02 227.21 24.51 230.27 22.21
  A 1.36 1.36 0.0 0 0 229.25 19.77
  Q 225.82 20.28 223.18 19.72
  A 1.55 1.54 -24.5 0 0 222.11 22.58
  Q 224.52 23.91 224.55 26.74
  Q 224.75 43.98 224.85 55.65
  A 0.37 0.37 0.0 0 1 224.14 55.79
  Q 220.13 45.85 213.46 29.29
  Q 211.97 25.59 210.53 20.25
  A 0.45 0.45 0.0 0 0 210.10 19.92
  L 203.95 19.92
  A 1.64 1.64 0.0 0 0 203.28 23.06
  C 206.21 24.38 205.86 26.86 205.85 30.08
  Q 205.78 47.69 205.58 62.74
  Q 205.53 66.70 204.70 70.48
  A 1.67 1.59 -22.5 0 1 204.43 71.09
  L 202.08 74.42
  A 0.53 0.53 0.0 0 1 201.33 74.55
  Q 198.70 72.65 198.19 69.54
  Q 193.59 42.13 190.72 20.30
  A 1.01 1.00 -89.7 0 0 189.87 19.43
  Q 188.05 19.15 187.06 19.47
  A 1.30 1.30 0.0 0 0 186.20 20.48
  Q 180.32 56.47 177.77 72.23
  Q 177.15 76.05 175.45 77.71
  Q 173.47 79.66 174.30 81.59
  A 0.57 0.57 0.0 0 0 174.91 81.92
  L 182.94 80.72
  A 0.76 0.75 89.0 0 0 183.57 80.06
  C 184.01 76.08 181.01 77.40 180.83 74.89
  A 2.28 1.78 52.0 0 1 180.83 74.48
  L 182.25 61.27
  A 2.29 2.29 0.0 0 1 184.19 59.25
  L 190.71 58.27
  A 0.65 0.65 0.0 0 1 191.45 58.83
  Q 192.94 69.41 193.16 71.68
  A 3.69 3.68 69.7 0 1 191.63 75.03
  Q 190.43 75.88 190.17 77.38
  A 1.24 1.24 0.0 0 0 191.84 78.75
  Q 193.11 78.25 200.02 76.73
  Q 200.54 76.61 201.43 76.17
  C 202.53 75.63 203.80 75.99 205.14 75.58
  Q 207.39 74.88 210.94 74.14
  A 1.69 1.52 45.1 0 0 210.79 71.03
  C 209.28 70.57 208.69 69.69 208.64 67.94
  Q 208.31 55.55 208.35 34.31
  A 0.29 0.29 0.0 0 1 208.91 34.20"
/>
<path stroke="#a3a3a3" vector-effect="non-scaling-stroke" d="
  M 359.86 35.89
  A 0.25 0.25 0.0 0 1 360.35 35.87
  L 367.08 80.78
  A 1.10 1.10 0.0 0 0 369.26 80.74
  Q 371.00 65.68 376.43 38.19
  Q 376.68 36.95 377.08 36.03
  A 0.13 0.12 56.7 0 1 377.32 36.08
  Q 377.31 51.34 377.70 74.96
  Q 377.75 78.11 376.05 78.96
  C 374.10 79.95 374.36 80.95 374.69 82.65
  A 0.69 0.68 87.1 0 0 375.29 83.20
  L 384.33 84.13
  A 1.13 1.13 0.0 0 0 385.57 82.88
  Q 385.39 81.23 384.32 80.34
  C 382.39 78.73 382.42 76.53 382.35 74.44
  Q 381.42 48.45 381.36 29.31
  Q 381.35 25.40 382.98 24.38
  C 384.71 23.30 384.47 22.33 384.41 20.70
  A 0.62 0.61 89.0 0 0 383.80 20.10
  L 376.57 20.10
  A 0.34 0.34 0.0 0 0 376.23 20.43
  Q 376.00 25.19 374.77 31.26
  Q 374.48 32.68 369.57 60.85
  A 0.43 0.43 0.0 0 1 368.72 60.84
  L 362.68 20.52
  A 0.59 0.57 -3.9 0 0 362.10 20.03
  L 354.94 20.03
  A 0.58 0.58 0.0 0 0 354.36 20.56
  C 354.00 24.01 355.28 22.93 356.86 24.92
  A 1.77 1.70 -67.9 0 1 357.23 25.84
  Q 357.46 28.01 357.37 30.50
  Q 357.12 37.30 355.99 65.25
  Q 355.79 70.37 354.62 74.92
  A 1.68 1.57 -76.4 0 1 352.74 76.16
  C 349.79 75.52 349.20 70.17 348.81 67.86
  Q 344.54 42.22 341.63 20.27
  A 1.06 1.05 3.7 0 0 340.84 19.38
  Q 339.40 19.02 337.88 19.44
  A 1.04 1.03 87.8 0 0 337.14 20.25
  Q 332.93 43.07 330.32 57.10
  Q 329.07 63.87 327.99 67.18
  Q 327.13 69.81 324.54 69.62
  A 1.35 1.33 -18.3 0 1 323.63 69.17
  Q 322.44 67.82 321.83 65.89
  Q 317.20 51.25 315.84 47.65
  A 1.42 1.42 0.0 0 1 316.00 46.33
  L 318.69 42.52
  A 6.34 6.33 -20.2 0 0 319.66 40.42
  C 321.22 34.23 321.26 19.04 310.97 19.69
  Q 304.94 20.07 301.00 19.58
  A 0.58 0.58 0.0 0 0 300.35 20.24
  L 300.60 21.89
  A 0.76 0.76 0.0 0 0 301.10 22.49
  Q 303.46 23.28 303.48 27.50
  Q 303.57 49.57 303.20 63.17
  A 3.19 3.17 -16.4 0 1 301.79 65.73
  L 300.55 66.56
  A 1.22 1.22 0.0 0 0 301.11 68.79
  L 310.01 69.70
  A 0.98 0.98 0.0 0 0 311.04 68.40
  C 310.40 66.57 308.29 66.21 308.19 64.45
  Q 307.82 58.00 307.96 49.92
  A 0.74 0.73 83.3 0 1 308.51 49.22
  Q 311.25 48.50 311.91 50.85
  Q 314.39 59.72 316.79 67.93
  C 317.98 71.99 320.98 72.84 325.50 72.92
  Q 329.39 72.99 333.23 74.48
  A 0.96 0.95 12.6 0 0 334.53 73.66
  C 334.60 72.70 334.17 71.80 333.35 71.08
  C 331.29 69.30 331.87 67.43 332.14 64.49
  Q 332.57 59.63 333.64 56.01
  A 0.75 0.75 0.0 0 1 334.46 55.48
  L 341.59 56.51
  A 0.78 0.78 0.0 0 1 342.26 57.18
  L 344.35 71.10
  A 1.31 1.31 0.0 0 1 343.37 72.57
  Q 342.03 72.91 341.45 73.84
  A 1.91 1.77 -68.1 0 0 342.55 76.70
  Q 351.50 78.22 360.99 80.57
  A 0.61 0.60 13.7 0 0 361.73 80.13
  C 362.02 78.93 361.54 77.52 360.39 76.61
  Q 358.66 75.26 358.69 71.53
  Q 358.87 50.09 359.86 35.89"
/>
<path stroke="#a3a3a3" vector-effect="non-scaling-stroke" d="
  M 37.11 90.06
  A 0.56 0.55 87.1 0 0 37.66 90.56
  L 45.81 90.56
  A 0.65 0.64 3.5 0 0 46.45 90.00
  C 46.61 88.71 46.34 86.92 45.14 86.11
  Q 44.45 85.64 44.17 85.18
  A 1.97 1.89 -62.3 0 1 43.87 84.14
  Q 43.85 75.96 45.51 66.84
  A 0.94 0.93 -84.8 0 1 46.43 66.07
  L 53.41 66.07
  A 0.90 0.89 85.9 0 1 54.29 66.84
  Q 55.87 78.23 55.86 83.53
  C 55.85 86.00 53.53 86.33 53.25 88.27
  Q 52.91 90.72 54.03 90.75
  L 54.04 90.75
  L 63.34 90.60
  A 1.02 1.02 0.0 0 0 64.35 89.56
  Q 64.34 88.64 63.72 87.06
  A 0.99 0.93 -81.8 0 0 63.44 86.66
  Q 61.73 85.23 61.20 81.53
  Q 56.64 49.94 53.54 20.73
  A 1.26 1.25 -3.0 0 0 52.29 19.61
  L 50.44 19.61
  A 1.41 1.40 4.0 0 0 49.05 20.81
  L 40.33 81.63
  A 7.40 7.35 -23.5 0 1 39.06 84.83
  C 37.56 86.97 36.90 87.78 37.11 90.06"
/>
<path stroke="#a3a3a3" vector-effect="non-scaling-stroke" d="
  M 261.53 48.45
  Q 269.39 49.44 272.17 42.69
  C 274.76 36.40 275.24 23.68 267.44 19.93
  Q 265.77 19.12 261.69 19.57
  Q 258.12 19.97 254.47 19.54
  A 1.01 1.01 0.0 0 0 253.52 21.10
  L 256.04 24.87
  A 1.38 1.33 -63.0 0 1 256.27 25.63
  L 256.27 62.40
  A 2.05 2.04 69.8 0 1 255.56 63.95
  L 253.26 65.92
  A 1.17 1.16 -51.6 0 0 253.48 67.83
  Q 253.57 67.87 254.03 67.83
  Q 260.44 67.35 263.07 67.72
  A 1.27 1.27 0.0 0 0 263.98 65.42
  L 261.44 63.63
  A 1.41 1.40 17.8 0 1 260.85 62.49
  L 260.85 49.05
  A 0.60 0.60 0.0 0 1 261.53 48.45"
/>
<path stroke="#a3a3a3" vector-effect="non-scaling-stroke" d="
  M 476.97 89.97
  A 0.55 0.55 0.0 0 0 477.51 90.47
  L 485.66 90.49
  A 0.65 0.64 3.7 0 0 486.30 89.93
  C 486.46 88.64 486.20 86.86 485.00 86.04
  Q 484.31 85.57 484.03 85.11
  A 1.97 1.89 -62.1 0 1 483.74 84.07
  Q 483.74 75.90 485.42 66.79
  A 0.94 0.93 -84.7 0 1 486.34 66.02
  L 493.32 66.04
  A 0.90 0.89 86.0 0 1 494.20 66.81
  Q 495.75 78.20 495.72 83.49
  C 495.70 85.96 493.39 86.28 493.10 88.22
  Q 492.75 90.67 493.87 90.70
  L 493.88 90.70
  L 503.18 90.58
  A 1.02 1.02 0.0 0 0 504.19 89.54
  Q 504.18 88.62 503.57 87.04
  A 0.99 0.93 -81.7 0 0 503.29 86.64
  Q 501.58 85.21 501.06 81.51
  Q 496.59 49.93 493.57 20.72
  A 1.26 1.25 -2.9 0 0 492.32 19.60
  L 490.48 19.60
  A 1.40 1.39 4.2 0 0 489.08 20.79
  L 480.21 81.55
  A 7.39 7.35 -23.4 0 1 478.93 84.75
  C 477.42 86.88 476.76 87.69 476.97 89.97"
/>
<path stroke="#a3a3a3" vector-effect="non-scaling-stroke" d="
  M 176.00 19.85
  Q 165.22 21.23 154.43 20.08
  A 0.48 0.48 0.0 0 0 153.90 20.53
  L 152.90 35.86
  A 0.80 0.79 20.5 0 0 153.22 36.55
  L 153.54 36.77
  A 0.69 0.69 0.0 0 0 154.63 36.27
  C 154.86 33.77 155.29 27.78 158.62 27.54
  Q 160.50 27.40 161.92 27.41
  A 0.70 0.70 0.0 0 1 162.61 28.11
  Q 162.64 49.71 162.56 73.25
  Q 162.55 76.20 162.09 78.42
  A 1.81 1.77 78.0 0 1 161.42 79.48
  C 159.62 80.81 158.47 81.29 158.86 83.66
  A 0.77 0.77 0.0 0 0 159.73 84.29
  L 170.08 82.74
  A 0.69 0.67 -85.1 0 0 170.63 82.27
  Q 170.94 81.29 170.54 79.90
  A 1.11 1.09 4.3 0 0 169.93 79.20
  L 168.38 78.50
  A 0.95 0.94 -82.3 0 1 167.84 77.79
  Q 167.40 75.18 167.39 72.75
  Q 167.26 44.77 167.42 28.01
  A 0.77 0.77 0.0 0 1 168.25 27.24
  L 171.49 27.45
  A 2.83 2.83 0.0 0 1 174.10 29.85
  L 174.92 35.36
  A 0.46 0.46 0.0 0 0 175.44 35.74
  L 175.77 35.69
  A 0.80 0.79 85.1 0 0 176.45 34.88
  L 176.08 19.93
  A 0.08 0.07 86.8 0 0 176.00 19.85"
/>
<path stroke="#a3a3a3" vector-effect="non-scaling-stroke" d="
  M 404.69 62.07
  L 404.69 43.93
  A 0.34 0.34 0.0 0 0 404.38 43.59
  L 404.00 43.55
  A 0.48 0.48 0.0 0 0 403.47 43.98
  L 403.17 46.95
  A 2.60 2.60 0.0 0 1 400.58 49.28
  L 395.34 49.28
  A 0.54 0.54 0.0 0 1 394.80 48.74
  L 394.80 27.44
  A 0.71 0.71 0.0 0 1 395.39 26.74
  Q 398.42 26.23 401.36 26.80
  A 3.20 3.18 -5.9 0 1 403.72 28.71
  Q 405.05 31.91 405.06 35.63
  A 0.68 0.67 85.9 0 0 405.83 36.30
  L 406.14 36.25
  A 0.54 0.54 0.0 0 0 406.60 35.72
  L 406.60 20.52
  A 0.64 0.63 85.1 0 0 405.86 19.89
  Q 397.60 21.35 388.23 19.89
  A 0.74 0.74 0.0 0 0 387.42 20.41
  Q 387.10 21.51 387.51 23.09
  A 1.36 1.36 0.0 0 0 387.87 23.73
  L 389.60 25.45
  A 1.13 1.09 19.8 0 1 389.90 26.06
  Q 390.31 28.94 390.31 32.00
  Q 390.26 63.70 390.19 71.50
  Q 390.14 76.13 389.46 79.30
  A 1.81 1.73 -17.2 0 1 388.96 80.20
  L 387.03 82.13
  A 1.57 1.57 0.0 0 0 388.11 84.81
  Q 397.93 85.03 406.08 87.11
  A 0.64 0.63 -79.5 0 0 406.87 86.56
  L 408.44 71.09
  A 1.40 1.39 16.2 0 0 407.67 69.70
  L 407.65 69.68
  A 0.72 0.71 13.3 0 0 406.65 70.29
  Q 406.33 74.99 404.15 78.49
  A 2.14 2.13 6.1 0 1 403.07 79.36
  Q 399.64 80.58 395.34 78.90
  A 1.00 0.99 11.0 0 1 394.71 77.98
  L 394.71 56.65
  A 1.84 1.84 0.0 0 1 396.74 54.82
  L 399.75 55.13
  A 3.52 3.52 0.0 0 1 402.87 58.10
  L 403.49 62.24
  A 0.37 0.36 -0.9 0 0 403.82 62.55
  L 404.12 62.58
  A 0.52 0.51 3.0 0 0 404.69 62.07"
/>
<path stroke="#a3a3a3" vector-effect="non-scaling-stroke" d="
  M 410.66 20.92
  Q 410.70 22.44 410.64 22.57
  Q 410.45 22.97 411.94 24.21
  Q 413.75 25.71 413.79 30.00
  Q 413.98 49.84 413.64 76.69
  Q 413.62 78.91 413.02 81.79
  A 1.20 1.20 0.0 0 1 412.40 82.60
  Q 410.07 83.80 410.52 86.81
  A 0.68 0.67 82.4 0 0 411.26 87.38
  Q 414.57 87.01 418.93 87.91
  Q 423.66 88.87 425.21 88.35
  C 433.57 85.52 435.77 71.93 436.51 64.50
  Q 437.82 51.34 435.58 37.21
  Q 434.30 29.16 430.21 23.53
  C 425.64 17.25 419.83 21.05 413.94 20.45
  Q 411.64 20.22 411.20 20.28
  A 0.64 0.64 0.0 0 0 410.66 20.92"
/>
<path stroke="#a3a3a3" vector-effect="non-scaling-stroke" d="
  M 130.70 37.57
  L 145.85 85.95
  A 1.71 1.71 0.0 0 0 149.19 85.43
  Q 149.06 61.83 149.28 31.24
  Q 149.33 25.59 151.70 23.51
  C 152.37 22.91 152.50 22.16 152.65 21.41
  A 0.89 0.88 -84.3 0 0 151.79 20.35
  L 143.79 20.35
  A 0.65 0.65 0.0 0 0 143.14 21.00
  L 143.14 22.68
  A 1.55 1.54 -72.5 0 0 143.79 23.94
  L 145.71 25.29
  A 1.93 1.91 -72.6 0 1 146.52 26.86
  L 146.52 66.23
  A 0.27 0.27 0.0 0 1 145.99 66.31
  L 131.63 20.46
  A 0.33 0.32 -12.8 0 0 131.26 20.23
  Q 127.17 20.89 125.11 20.27
  A 0.69 0.68 -70.9 0 0 124.27 20.68
  C 123.76 22.06 123.83 23.64 125.76 24.62
  Q 127.56 25.52 127.56 29.50
  Q 127.57 55.61 127.32 72.00
  Q 127.27 75.58 126.37 81.25
  A 3.81 3.77 69.4 0 1 125.55 83.08
  Q 124.68 84.12 124.01 86.33
  A 1.32 1.32 0.0 0 0 125.47 88.02
  L 133.17 86.87
  A 0.57 0.54 1.3 0 0 133.63 86.45
  C 133.86 85.38 133.84 83.76 132.56 83.20
  Q 131.65 82.81 131.25 82.48
  A 1.47 1.47 0.0 0 1 130.73 81.61
  Q 130.32 79.43 130.30 77.50
  Q 130.19 63.80 130.09 41.00
  Q 130.08 38.52 130.49 37.56
  A 0.11 0.11 0.0 0 1 130.70 37.57"
/>
<path stroke="#a3a3a3" vector-effect="non-scaling-stroke" d="
  M 36.63 71.94
  A 0.67 0.66 -67.4 0 0 35.59 72.37
  C 34.55 78.54 34.57 85.35 25.57 83.52
  A 1.29 1.27 5.8 0 1 24.54 82.27
  Q 24.52 56.33 24.59 32.50
  Q 24.60 29.58 25.15 26.95
  A 2.69 2.67 -21.0 0 1 25.64 25.86
  C 26.84 24.24 28.10 23.35 27.75 20.96
  A 0.59 0.57 -3.9 0 0 27.17 20.47
  L 17.56 20.47
  A 0.46 0.45 7.4 0 0 17.12 20.80
  Q 16.67 22.47 17.29 23.29
  Q 19.97 26.84 20.01 31.73
  Q 20.20 56.78 19.67 81.45
  Q 19.59 85.42 17.64 87.02
  C 16.55 87.92 16.34 89.45 16.68 90.49
  A 0.73 0.73 0.0 0 0 17.48 90.99
  Q 26.12 89.80 34.72 91.14
  A 0.83 0.83 0.0 0 0 35.68 90.41
  L 37.43 73.30
  A 1.29 1.28 20.4 0 0 36.89 72.13
  L 36.63 71.94"
/>
<path stroke="#a3a3a3" vector-effect="non-scaling-stroke" d="
  M 85.44 58.66
  Q 85.60 76.57 85.08 82.77
  C 84.87 85.29 80.89 86.37 82.11 89.42
  A 0.36 0.35 -11.0 0 0 82.44 89.64
  L 92.31 89.64
  A 0.65 0.65 0.0 0 0 92.94 89.16
  C 93.96 85.37 90.93 85.68 90.51 83.64
  Q 90.02 81.27 90.02 80.98
  Q 89.69 56.34 90.03 30.75
  Q 90.06 28.04 90.57 26.54
  C 91.28 24.39 93.51 23.84 93.10 21.05
  A 0.97 0.97 0.0 0 0 91.96 20.24
  Q 87.85 21.01 83.17 20.29
  A 0.72 0.72 0.0 0 0 82.36 20.83
  C 81.50 24.28 85.08 25.14 85.20 28.55
  Q 85.56 37.83 85.38 50.15
  A 0.66 0.66 0.0 0 1 84.72 50.80
  L 73.90 50.80
  A 0.59 0.59 0.0 0 1 73.31 50.21
  L 73.31 27.93
  A 1.94 1.93 -27.5 0 1 73.66 26.82
  L 76.60 22.65
  A 1.53 1.53 0.0 0 0 74.98 20.28
  Q 71.82 21.06 66.58 20.24
  A 0.67 0.66 -77.7 0 0 65.84 20.72
  C 65.18 23.06 66.59 24.23 67.75 25.88
  A 3.85 3.74 -66.2 0 1 68.42 27.69
  Q 68.80 31.83 68.80 35.75
  Q 68.79 53.42 68.81 75.75
  Q 68.81 81.78 68.07 84.43
  A 1.85 1.71 75.5 0 1 67.71 85.10
  L 65.88 87.21
  A 1.90 1.90 0.0 0 0 67.75 90.30
  Q 71.19 89.49 74.74 90.16
  A 1.76 1.76 0.0 0 0 76.39 87.27
  L 74.23 84.82
  A 1.50 1.50 0.0 0 1 73.88 84.08
  Q 73.41 81.10 73.39 79.26
  Q 73.25 69.86 73.32 58.65
  A 0.71 0.70 0.0 0 1 74.03 57.95
  L 84.72 57.95
  A 0.72 0.72 0.0 0 1 85.44 58.66"
/>
<path stroke="#a3a3a3" vector-effect="non-scaling-stroke" d="
  M 442.79 54.78
  Q 442.76 73.00 442.63 78.23
  Q 442.57 81.00 442.10 83.57
  A 1.03 1.02 -11.4 0 1 441.65 84.24
  L 440.08 85.29
  A 1.34 1.32 83.6 0 0 439.57 85.94
  Q 439.02 87.42 439.46 88.89
  A 0.64 0.64 0.0 0 0 440.18 89.34
  Q 442.66 88.91 445.06 88.92
  Q 447.46 88.92 449.94 89.36
  A 0.64 0.64 0.0 0 0 450.66 88.91
  Q 451.11 87.44 450.56 85.96
  A 1.34 1.32 -83.4 0 0 450.05 85.31
  L 448.49 84.25
  A 1.03 1.02 11.6 0 1 448.04 83.58
  Q 447.58 81.01 447.52 78.24
  Q 447.41 73.00 447.44 54.79
  Q 447.47 36.57 447.60 31.33
  Q 447.66 28.56 448.13 25.99
  A 1.03 1.02 -11.4 0 1 448.58 25.32
  L 450.15 24.27
  A 1.34 1.32 83.6 0 0 450.66 23.62
  Q 451.21 22.14 450.77 20.67
  A 0.64 0.64 0.0 0 0 450.05 20.22
  Q 447.57 20.65 445.17 20.65
  Q 442.77 20.64 440.30 20.21
  A 0.64 0.64 0.0 0 0 439.57 20.66
  Q 439.13 22.12 439.67 23.61
  A 1.34 1.32 -83.4 0 0 440.18 24.26
  L 441.75 25.31
  A 1.03 1.02 11.6 0 1 442.19 25.98
  Q 442.66 28.56 442.71 31.32
  Q 442.82 36.56 442.79 54.78"
/>
<path stroke="#a3a3a3" vector-effect="non-scaling-stroke" d="
  M 525.52 71.97
  A 0.67 0.67 0.0 0 0 524.48 72.40
  C 523.45 78.58 523.48 85.39 514.47 83.58
  A 1.29 1.27 5.7 0 1 513.44 82.33
  Q 513.38 56.36 513.41 32.51
  Q 513.42 29.59 513.96 26.96
  A 2.69 2.67 -21.1 0 1 514.45 25.87
  C 515.65 24.24 516.91 23.35 516.56 20.96
  A 0.59 0.57 -4.0 0 0 515.98 20.47
  L 506.36 20.48
  A 0.46 0.45 7.4 0 0 505.92 20.81
  Q 505.47 22.49 506.09 23.31
  Q 508.78 26.86 508.83 31.75
  Q 509.05 56.82 508.56 81.51
  Q 508.49 85.49 506.54 87.09
  C 505.45 87.99 505.24 89.53 505.58 90.57
  A 0.73 0.73 0.0 0 0 506.38 91.07
  Q 515.03 89.86 523.64 91.19
  A 0.83 0.83 0.0 0 0 524.60 90.46
  L 526.32 73.33
  A 1.29 1.28 20.3 0 0 525.78 72.16
  L 525.52 71.97"
/>
<path stroke="#ead8b3" vector-effect="non-scaling-stroke" d="
  M 267.42 81.73
  L 267.91 92.47"
/>
<path stroke="#d9bf97" vector-effect="non-scaling-stroke" d="
  M 267.91 92.47
  Q 264.21 90.17 261.23 90.08
  Q 254.11 89.87 237.29 89.86"
/>
<path stroke="#ead8b3" vector-effect="non-scaling-stroke" d="
  M 237.29 89.86
  L 170.78 89.76
  A 0.49 0.49 0.0 0 0 170.59 90.70
  Q 182.01 95.53 185.62 96.84
  Q 193.03 99.53 202.78 99.26
  Q 219.68 98.78 223.26 98.93
  C 227.30 99.09 232.27 99.44 235.26 102.18
  A 0.70 0.70 0.0 0 1 234.78 103.39
  L 226.37 103.39
  A 0.27 0.27 0.0 0 0 226.10 103.66
  L 226.10 110.50
  A 0.23 0.22 90.0 0 0 226.32 110.73
  L 244.58 111.01"
/>
<path stroke="#d9bf97" vector-effect="non-scaling-stroke" d="
  M 244.58 111.01
  C 247.91 111.10 253.24 111.49 255.68 114.13
  A 0.61 0.61 0.0 0 1 255.23 115.15
  L 229.05 115.15
  A 0.60 0.60 0.0 0 0 228.70 116.24
  L 242.97 126.32
  A 1.06 1.00 -1.7 0 1 243.15 126.48
  Q 243.76 127.16 244.01 128.52
  C 244.74 132.54 250.30 135.08 253.76 135.96
  Q 256.47 136.64 259.04 134.50
  A 1.04 1.02 -15.9 0 0 259.40 133.87
  L 259.99 129.70
  A 1.89 1.88 4.0 0 1 261.86 128.09
  L 263.70 128.09
  A 0.97 0.97 0.0 0 0 264.39 126.44
  L 262.50 124.56
  A 1.01 0.99 -54.1 0 1 262.32 123.40
  Q 264.30 119.48 268.64 115.28
  C 272.33 111.71 274.58 108.74 273.65 103.89
  Q 272.73 99.15 272.51 97.52
  A 2.00 1.94 54.9 0 1 272.68 96.44
  L 273.43 94.82
  A 3.03 2.98 58.1 0 0 273.72 93.53
  L 273.72 82.91
  A 0.78 0.75 -29.8 0 1 273.84 82.50
  C 274.47 81.54 275.89 80.75 276.43 79.71
  Q 279.58 73.55 274.04 70.59
  C 266.61 66.63 261.17 76.19 267.42 81.73"
/>
<path stroke="#c4974b" vector-effect="non-scaling-stroke" d="
  M 244.58 111.01
  Q 241.47 108.39 241.06 106.15
  Q 239.52 97.80 235.03 90.61
  A 0.32 0.32 0.0 0 1 235.26 90.13
  L 237.29 89.86"
/>
<path stroke="#c4974b" vector-effect="non-scaling-stroke" d="
  M 267.91 92.47
  L 270.84 95.02
  A 0.92 0.91 -65.0 0 0 272.34 94.47
  Q 273.24 88.78 272.69 83.41
  A 0.88 0.88 0.0 0 0 271.74 82.62
  Q 269.26 82.83 267.42 81.73"
/>
<path stroke="#f0e4c9" vector-effect="non-scaling-stroke" d="
  M 301.79 100.82
  Q 305.81 101.69 308.07 104.72
  A 1.04 1.04 0.0 0 1 307.28 106.38
  L 302.45 106.58"
/>
<path stroke="#d9bf97" vector-effect="non-scaling-stroke" d="
  M 302.45 106.58
  C 295.79 106.53 289.61 108.63 283.52 110.85
  A 0.94 0.92 80.3 0 0 282.91 111.73
  L 282.91 122.20
  A 1.45 1.44 -8.0 0 1 281.86 123.59
  C 279.62 124.23 277.14 124.83 276.78 127.12
  A 1.21 1.21 0.0 0 0 277.69 128.47
  Q 279.92 129.03 281.85 128.30"
/>
<path stroke="#f0e4c9" vector-effect="non-scaling-stroke" d="
  M 281.85 128.30
  Q 282.49 128.31 282.77 128.79"
/>
<path stroke="#d9bf97" vector-effect="non-scaling-stroke" d="
  M 282.77 128.79
  Q 283.35 131.17 282.97 132.73
  A 1.38 1.36 -2.5 0 1 282.07 133.70
  Q 275.87 135.73 269.50 135.98
  A 0.51 0.51 0.0 0 0 269.24 136.91
  L 269.26 136.92
  A 2.96 2.88 67.6 0 0 270.28 137.36
  C 274.09 138.26 279.10 139.77 281.61 143.03
  A 2.54 2.53 42.4 0 1 281.75 145.94
  C 280.48 147.95 277.75 148.86 275.01 150.07
  A 1.02 1.01 42.4 0 0 275.10 151.96
  C 278.76 153.19 283.77 149.67 285.97 147.16
  C 289.08 143.59 287.21 140.81 283.90 138.64
  A 0.75 0.75 0.0 0 1 284.18 137.28
  Q 291.54 136.01 297.21 130.61
  A 1.80 1.78 -14.5 0 0 297.71 129.77
  L 298.36 127.32
  A 1.97 1.93 -9.6 0 1 299.17 126.20
  L 314.50 115.95
  A 0.40 0.40 0.0 0 0 314.28 115.22
  L 297.93 115.22
  A 0.67 0.66 27.7 0 1 297.55 114.01
  Q 300.18 112.19 303.46 111.35"
/>
<path stroke="#f0e4c9" vector-effect="non-scaling-stroke" d="
  M 303.46 111.35
  Q 308.46 111.07 313.48 110.97
  Q 319.70 110.85 323.44 110.10
  Q 333.99 108.00 341.96 104.42
  A 0.69 0.69 0.0 0 0 341.84 103.13
  Q 340.97 102.92 339.76 103.13
  Q 334.11 104.14 328.06 103.84
  A 0.82 0.81 21.7 0 0 327.40 104.12
  C 327.06 104.52 327.17 105.21 326.78 105.71
  C 325.43 107.44 323.48 105.44 322.33 104.44
  A 1.30 1.29 -25.5 0 0 321.39 104.11
  Q 319.12 104.24 317.51 103.39
  A 1.21 1.21 0.0 0 1 317.29 101.41
  C 319.50 99.50 322.53 98.84 325.74 98.85
  Q 335.87 98.87 346.03 99.46"
/>
<path stroke="#d9bf97" vector-effect="non-scaling-stroke" d="
  M 346.03 99.46
  Q 355.25 98.90 363.24 94.57
  A 0.60 0.42 10.3 0 1 363.35 94.52
  L 373.51 90.45
  A 0.43 0.42 33.5 0 0 373.34 89.63
  L 338.27 89.99"
/>
<path stroke="#f0e4c9" vector-effect="non-scaling-stroke" d="
  M 338.27 89.99
  L 307.23 89.84"
/>
<path stroke="#d9bf97" vector-effect="non-scaling-stroke" d="
  M 307.23 89.84
  C 299.22 89.22 286.08 88.81 279.14 94.59
  A 0.67 0.67 0.0 0 0 279.17 95.64
  Q 279.56 95.92 280.01 95.85
  C 284.75 95.06 297.11 94.07 298.94 98.87
  A 0.57 0.57 0.0 0 1 298.41 99.64
  L 294.42 99.64
  A 0.25 0.25 0.0 0 0 294.17 99.89
  L 294.17 100.19
  A 0.49 0.49 0.0 0 0 294.65 100.68
  L 301.79 100.82"
/>
<path stroke="#caa360" vector-effect="non-scaling-stroke" d="
  M 307.23 89.84
  L 301.79 100.82"
/>
<path stroke="#caa360" vector-effect="non-scaling-stroke" d="
  M 303.46 111.35
  Q 303.55 108.94 302.45 106.58"
/>
<path stroke="#caa360" vector-effect="non-scaling-stroke" d="
  M 346.03 99.46
  L 343.34 98.99
  A 0.89 0.89 0.0 0 1 342.70 98.51
  L 338.27 89.99"
/>
<path stroke="#caa360" vector-effect="non-scaling-stroke" d="
  M 282.77 128.79
  L 290.48 126.22
  A 0.39 0.38 45.1 0 0 290.48 125.49
  Q 287.60 124.51 284.43 124.99
  Q 282.76 125.24 281.85 128.30"
/>
<path stroke="#f0e4c9" vector-effect="non-scaling-stroke" d="
  M 271.96 118.33
  L 268.47 122.42
  A 0.82 0.79 65.3 0 0 268.29 122.93
  L 268.29 130.21
  A 3.13 3.13 0.0 0 0 270.76 133.27
  L 271.31 133.38
  A 1.95 1.95 0.0 0 0 273.67 131.47
  L 273.67 118.96
  A 0.97 0.97 0.0 0 0 271.96 118.33"
/>
<path stroke="#d9bf97" vector-effect="non-scaling-stroke" d="
  M 264.48 150.25
  C 261.79 148.01 256.86 144.57 261.22 141.54
  Q 262.66 140.54 263.12 140.17
  A 0.83 0.82 -63.7 0 0 262.63 138.71
  L 258.09 138.52
  A 0.97 0.95 29.2 0 0 257.54 138.67
  C 249.92 143.49 258.36 151.16 264.26 150.90
  A 0.37 0.37 0.0 0 0 264.48 150.25"
/>
<path stroke="#ead8b3" vector-effect="non-scaling-stroke" d="
  M 273.32 149.09
  L 272.89 140.66
  A 0.87 0.87 0.0 0 0 271.98 139.83
  L 271.24 139.87
  A 2.83 2.57 87.1 0 0 268.82 142.83
  L 269.05 147.34
  A 2.83 2.57 87.1 0 0 271.76 150.04
  L 272.50 150.00
  A 0.87 0.87 0.0 0 0 273.32 149.09"
/>
<path stroke="#d9bf97" vector-effect="non-scaling-stroke" d="
  M 271.48 154.30
  Q 276.14 156.32 277.89 159.06
  A 2.61 2.59 -47.4 0 1 277.99 161.69
  Q 276.65 164.22 274.24 165.78
  A 1.50 1.50 0.0 0 0 273.78 167.82
  L 273.81 167.88
  A 1.32 1.32 0.0 0 0 275.73 168.24
  C 286.19 160.22 280.12 153.94 270.16 152.36
  A 0.40 0.40 0.0 0 0 269.79 153.02
  Q 270.52 153.88 271.48 154.30"
/>
<path stroke="#d9bf97" vector-effect="non-scaling-stroke" d="
  M 265.80 166.17
  L 264.34 163.80
  A 2.06 1.87 25.6 0 1 264.10 163.21
  Q 263.39 160.22 264.87 158.19
  A 1.43 1.35 -87.4 0 1 265.23 157.84
  L 267.39 156.39
  A 1.05 1.04 -48.3 0 0 267.29 154.59
  L 266.42 154.15
  A 2.38 2.36 -50.5 0 0 263.89 154.40
  Q 259.34 157.99 261.46 163.38
  A 1.49 1.38 -83.3 0 0 261.88 163.96
  L 265.18 166.70
  A 0.41 0.41 0.0 0 0 265.80 166.17"
/>
<path stroke="#ead8b3" vector-effect="non-scaling-stroke" d="
  M 272.92 165.78
  L 272.31 156.32
  A 0.17 0.17 0.0 0 0 272.13 156.16
  L 272.07 156.16
  A 2.84 2.61 86.3 0 0 269.65 159.17
  L 269.92 163.30
  A 2.84 2.61 86.3 0 0 272.70 165.96
  L 272.76 165.96
  A 0.17 0.17 0.0 0 0 272.92 165.78"
/>
<path stroke="#d9bf97" vector-effect="non-scaling-stroke" d="
  M 272.01 169.41
  A 0.56 0.55 72.8 0 0 271.51 170.36
  L 275.56 174.05
  A 1.16 1.14 15.2 0 1 275.88 174.60
  Q 276.42 176.69 273.95 178.69
  A 1.49 1.48 -33.1 0 0 273.56 180.52
  L 273.63 180.66
  A 0.94 0.94 0.0 0 0 275.06 180.96
  C 280.73 176.40 278.29 170.90 272.01 169.41"
/>
<path stroke="#d9bf97" vector-effect="non-scaling-stroke" d="
  M 266.74 179.36
  C 263.53 174.21 268.38 174.11 268.18 170.25
  A 0.47 0.47 0.0 0 0 267.49 169.86
  C 263.04 172.31 262.29 176.31 266.29 179.74
  A 0.30 0.30 0.0 0 0 266.74 179.36"
/>
<path stroke="#d9bf97" vector-effect="non-scaling-stroke" d="
  M 271.59 182.27
  A 0.37 0.37 0.0 0 0 271.18 182.86
  Q 272.32 184.06 272.91 185.50
  A 2.54 2.44 33.2 0 1 273.11 186.37
  Q 273.25 189.92 272.37 192.76
  A 0.51 0.51 0.0 0 0 273.16 193.32
  Q 274.63 192.25 275.22 190.18
  Q 276.86 184.43 271.59 182.27"
/>
<path stroke="#d9bf97" vector-effect="non-scaling-stroke" d="
  M 271.96 199.37
  C 272.75 197.17 270.40 194.33 268.72 191.91
  A 2.87 2.68 22.5 0 1 268.32 191.03
  C 267.60 188.18 268.22 186.36 268.73 183.75
  A 0.40 0.40 0.0 0 0 268.12 183.34
  L 267.58 183.70
  A 1.55 1.52 -9.6 0 0 266.95 184.57
  Q 265.83 188.61 267.71 192.59
  A 2.20 1.72 -83.0 0 0 267.92 192.94
  L 270.97 196.81
  A 1.48 1.47 -68.5 0 1 271.25 197.46
  L 271.53 199.33
  A 0.22 0.22 0.0 0 0 271.96 199.37"
/>
<path stroke="#a3a3a3" vector-effect="non-scaling-stroke" d="
  M 108.5847 25.2211
  A 29.25 7.98 -90.5 0 0 100.8603 54.5396
  A 29.25 7.98 -90.5 0 0 109.0953 83.7189
  A 29.25 7.98 -90.5 0 0 116.8197 54.4004
  A 29.25 7.98 -90.5 0 0 108.5847 25.2211"
/>
<path stroke="#a3a3a3" vector-effect="non-scaling-stroke" d="
  M 281.08 45.70
  A 0.43 0.43 0.0 0 0 281.50 46.21
  L 287.34 46.31
  A 0.43 0.43 0.0 0 0 287.77 45.81
  L 285.14 29.25
  A 0.43 0.43 0.0 0 0 284.29 29.24
  L 281.08 45.70"
/>
<path stroke="#a3a3a3" vector-effect="non-scaling-stroke" d="
  M 187.64 31.79
  A 0.39 0.39 0.0 0 0 186.87 31.80
  L 183.83 53.00
  A 0.39 0.39 0.0 0 0 184.28 53.44
  L 190.35 52.53
  A 0.39 0.39 0.0 0 0 190.68 52.08
  L 187.64 31.79"
/>
<path stroke="#a3a3a3" vector-effect="non-scaling-stroke" d="
  M 307.97 25.61
  L 307.93 43.87
  A 1.26 1.26 0.0 0 0 309.19 45.14
  L 310.45 45.14
  A 7.84 5.16 -89.9 0 0 315.63 37.31
  L 315.63 32.21
  A 7.84 5.16 -89.9 0 0 310.49 24.36
  L 309.23 24.36
  A 1.26 1.26 0.0 0 0 307.97 25.61"
/>
<path stroke="#a3a3a3" vector-effect="non-scaling-stroke" d="
  M 335.22 50.35
  L 340.76 51.16
  A 0.46 0.46 0.0 0 0 341.28 50.65
  L 338.58 30.62
  A 0.36 0.36 0.0 0 0 337.87 30.61
  L 334.73 49.67
  A 0.59 0.59 0.0 0 0 335.22 50.35"
/>
<path stroke="#a3a3a3" vector-effect="non-scaling-stroke" d="
  M 49.91 59.34
  Q 51.55 59.36 53.07 59.17
  A 0.32 0.32 0.0 0 0 53.35 58.81
  Q 50.51 35.99 50.54 34.26
  Q 50.54 33.85 50.12 33.84
  Q 49.67 33.84 49.67 34.25
  Q 49.67 35.98 46.49 58.76
  A 0.32 0.32 0.0 0 0 46.76 59.12
  Q 48.28 59.33 49.91 59.34"
/>
<path stroke="#a3a3a3" vector-effect="non-scaling-stroke" d="
  M 260.82 25.15
  L 260.78 43.29
  A 1.26 1.26 0.0 0 0 262.04 44.55
  L 262.96 44.56
  A 8.64 6.14 -89.9 0 0 269.12 35.93
  L 269.12 32.55
  A 8.64 6.14 -89.9 0 0 263.00 23.90
  L 262.08 23.89
  A 1.26 1.26 0.0 0 0 260.82 25.15"
/>
<path stroke="#a3a3a3" vector-effect="non-scaling-stroke" d="
  M 489.77 59.37
  Q 491.40 59.39 492.93 59.22
  A 0.32 0.32 0.0 0 0 493.21 58.86
  Q 490.55 36.01 490.59 34.28
  Q 490.60 33.87 490.17 33.86
  Q 489.73 33.85 489.72 34.26
  Q 489.71 36.00 486.34 58.75
  A 0.32 0.32 0.0 0 0 486.61 59.12
  Q 488.13 59.34 489.77 59.37"
/>
<path stroke="#a3a3a3" vector-effect="non-scaling-stroke" d="
  M 419.30 26.77
  A 1.52 1.52 0.0 0 0 418.40 28.16
  L 418.40 79.70
  A 1.17 1.15 18.6 0 0 418.87 80.63
  C 423.23 83.87 427.29 80.90 429.04 76.55
  Q 430.50 72.93 431.00 68.50
  C 431.88 60.73 433.51 30.11 423.92 26.78
  Q 421.33 25.88 419.30 26.77"
/>
<path stroke="#caa360" vector-effect="non-scaling-stroke" d="
  M 271.5749 73.0719
  A 2.81 2.30 -46.2 0 0 267.9700 73.5081
  A 2.81 2.30 -46.2 0 0 267.6851 77.1281
  A 2.81 2.30 -46.2 0 0 271.2900 76.6919
  A 2.81 2.30 -46.2 0 0 271.5749 73.0719"
/>
</g>
<path fill="#ffffff" d="
  M 538.00 0.00
  L 538.00 217.00
  L 0.00 217.00
  L 0.00 0.00
  L 538.00 0.00
  Z
  M 109.1381 18.1214
  A 36.45 13.21 -89.5 0 0 95.6105 54.4547
  A 36.45 13.21 -89.5 0 0 108.5019 91.0186
  A 36.45 13.21 -89.5 0 0 122.0295 54.6853
  A 36.45 13.21 -89.5 0 0 109.1381 18.1214
  Z
  M 475.52 71.37
  A 0.83 0.83 0.0 0 0 474.45 72.06
  C 473.92 76.33 472.45 83.07 467.64 84.10
  A 1.74 1.71 -35.5 0 1 466.44 83.91
  C 462.74 81.79 461.19 77.54 460.33 73.16
  Q 456.80 55.29 459.60 37.48
  C 460.17 33.86 462.99 23.54 468.67 26.78
  C 472.78 29.13 473.71 36.08 473.61 40.34
  A 1.01 1.00 -89.4 0 0 474.61 41.37
  L 474.91 41.37
  A 0.72 0.72 0.0 0 0 475.63 40.63
  L 475.12 23.44
  A 2.20 2.18 23.0 0 0 474.53 22.00
  C 471.79 19.02 466.63 17.05 463.02 19.75
  C 456.90 24.34 454.48 36.21 453.73 43.74
  C 452.38 57.28 452.87 71.26 457.58 83.64
  C 460.32 90.84 466.36 95.64 473.14 88.86
  Q 474.62 87.38 474.86 83.72
  Q 475.02 81.24 476.43 72.66
  A 1.13 1.12 -77.3 0 0 475.65 71.41
  L 475.52 71.37
  Z
  M 288.86 51.61
  L 290.54 62.81
  A 1.17 1.16 68.8 0 1 290.04 63.95
  L 288.31 65.11
  A 1.47 1.46 -59.7 0 0 289.01 67.79
  L 297.61 68.45
  A 1.14 1.13 87.2 0 0 298.81 67.12
  L 298.79 67.01
  A 0.97 0.95 12.4 0 0 298.38 66.38
  Q 295.99 64.77 295.06 59.73
  Q 290.85 37.06 288.01 20.19
  A 1.15 1.15 0.0 0 0 287.27 19.30
  Q 285.78 18.77 283.95 19.51
  A 0.68 0.68 0.0 0 0 283.54 20.01
  Q 278.54 44.26 275.74 57.25
  Q 275.16 59.98 274.05 62.85
  A 2.42 2.33 -7.0 0 1 273.15 63.96
  Q 272.18 64.60 271.49 65.66
  A 1.24 1.24 0.0 0 0 272.53 67.58
  L 279.60 67.58
  A 1.37 1.37 0.0 0 0 280.39 65.09
  L 278.58 63.81
  A 1.22 1.22 0.0 0 1 278.07 62.63
  L 279.63 51.75
  A 1.05 1.05 0.0 0 1 280.67 50.85
  L 287.99 50.85
  A 0.89 0.88 85.8 0 1 288.86 51.61
  Z
  M 208.91 34.20
  L 223.99 71.19
  A 0.98 0.98 0.0 0 0 224.64 71.77
  Q 226.45 72.25 227.38 71.10
  A 0.88 0.84 65.0 0 0 227.56 70.57
  Q 227.47 53.46 227.69 30.59
  C 227.72 27.02 227.21 24.51 230.27 22.21
  A 1.36 1.36 0.0 0 0 229.25 19.77
  Q 225.82 20.28 223.18 19.72
  A 1.55 1.54 -24.5 0 0 222.11 22.58
  Q 224.52 23.91 224.55 26.74
  Q 224.75 43.98 224.85 55.65
  A 0.37 0.37 0.0 0 1 224.14 55.79
  Q 220.13 45.85 213.46 29.29
  Q 211.97 25.59 210.53 20.25
  A 0.45 0.45 0.0 0 0 210.10 19.92
  L 203.95 19.92
  A 1.64 1.64 0.0 0 0 203.28 23.06
  C 206.21 24.38 205.86 26.86 205.85 30.08
  Q 205.78 47.69 205.58 62.74
  Q 205.53 66.70 204.70 70.48
  A 1.67 1.59 -22.5 0 1 204.43 71.09
  L 202.08 74.42
  A 0.53 0.53 0.0 0 1 201.33 74.55
  Q 198.70 72.65 198.19 69.54
  Q 193.59 42.13 190.72 20.30
  A 1.01 1.00 -89.7 0 0 189.87 19.43
  Q 188.05 19.15 187.06 19.47
  A 1.30 1.30 0.0 0 0 186.20 20.48
  Q 180.32 56.47 177.77 72.23
  Q 177.15 76.05 175.45 77.71
  Q 173.47 79.66 174.30 81.59
  A 0.57 0.57 0.0 0 0 174.91 81.92
  L 182.94 80.72
  A 0.76 0.75 89.0 0 0 183.57 80.06
  C 184.01 76.08 181.01 77.40 180.83 74.89
  A 2.28 1.78 52.0 0 1 180.83 74.48
  L 182.25 61.27
  A 2.29 2.29 0.0 0 1 184.19 59.25
  L 190.71 58.27
  A 0.65 0.65 0.0 0 1 191.45 58.83
  Q 192.94 69.41 193.16 71.68
  A 3.69 3.68 69.7 0 1 191.63 75.03
  Q 190.43 75.88 190.17 77.38
  A 1.24 1.24 0.0 0 0 191.84 78.75
  Q 193.11 78.25 200.02 76.73
  Q 200.54 76.61 201.43 76.17
  C 202.53 75.63 203.80 75.99 205.14 75.58
  Q 207.39 74.88 210.94 74.14
  A 1.69 1.52 45.1 0 0 210.79 71.03
  C 209.28 70.57 208.69 69.69 208.64 67.94
  Q 208.31 55.55 208.35 34.31
  A 0.29 0.29 0.0 0 1 208.91 34.20
  Z
  M 359.86 35.89
  A 0.25 0.25 0.0 0 1 360.35 35.87
  L 367.08 80.78
  A 1.10 1.10 0.0 0 0 369.26 80.74
  Q 371.00 65.68 376.43 38.19
  Q 376.68 36.95 377.08 36.03
  A 0.13 0.12 56.7 0 1 377.32 36.08
  Q 377.31 51.34 377.70 74.96
  Q 377.75 78.11 376.05 78.96
  C 374.10 79.95 374.36 80.95 374.69 82.65
  A 0.69 0.68 87.1 0 0 375.29 83.20
  L 384.33 84.13
  A 1.13 1.13 0.0 0 0 385.57 82.88
  Q 385.39 81.23 384.32 80.34
  C 382.39 78.73 382.42 76.53 382.35 74.44
  Q 381.42 48.45 381.36 29.31
  Q 381.35 25.40 382.98 24.38
  C 384.71 23.30 384.47 22.33 384.41 20.70
  A 0.62 0.61 89.0 0 0 383.80 20.10
  L 376.57 20.10
  A 0.34 0.34 0.0 0 0 376.23 20.43
  Q 376.00 25.19 374.77 31.26
  Q 374.48 32.68 369.57 60.85
  A 0.43 0.43 0.0 0 1 368.72 60.84
  L 362.68 20.52
  A 0.59 0.57 -3.9 0 0 362.10 20.03
  L 354.94 20.03
  A 0.58 0.58 0.0 0 0 354.36 20.56
  C 354.00 24.01 355.28 22.93 356.86 24.92
  A 1.77 1.70 -67.9 0 1 357.23 25.84
  Q 357.46 28.01 357.37 30.50
  Q 357.12 37.30 355.99 65.25
  Q 355.79 70.37 354.62 74.92
  A 1.68 1.57 -76.4 0 1 352.74 76.16
  C 349.79 75.52 349.20 70.17 348.81 67.86
  Q 344.54 42.22 341.63 20.27
  A 1.06 1.05 3.7 0 0 340.84 19.38
  Q 339.40 19.02 337.88 19.44
  A 1.04 1.03 87.8 0 0 337.14 20.25
  Q 332.93 43.07 330.32 57.10
  Q 329.07 63.87 327.99 67.18
  Q 327.13 69.81 324.54 69.62
  A 1.35 1.33 -18.3 0 1 323.63 69.17
  Q 322.44 67.82 321.83 65.89
  Q 317.20 51.25 315.84 47.65
  A 1.42 1.42 0.0 0 1 316.00 46.33
  L 318.69 42.52
  A 6.34 6.33 -20.2 0 0 319.66 40.42
  C 321.22 34.23 321.26 19.04 310.97 19.69
  Q 304.94 20.07 301.00 19.58
  A 0.58 0.58 0.0 0 0 300.35 20.24
  L 300.60 21.89
  A 0.76 0.76 0.0 0 0 301.10 22.49
  Q 303.46 23.28 303.48 27.50
  Q 303.57 49.57 303.20 63.17
  A 3.19 3.17 -16.4 0 1 301.79 65.73
  L 300.55 66.56
  A 1.22 1.22 0.0 0 0 301.11 68.79
  L 310.01 69.70
  A 0.98 0.98 0.0 0 0 311.04 68.40
  C 310.40 66.57 308.29 66.21 308.19 64.45
  Q 307.82 58.00 307.96 49.92
  A 0.74 0.73 83.3 0 1 308.51 49.22
  Q 311.25 48.50 311.91 50.85
  Q 314.39 59.72 316.79 67.93
  C 317.98 71.99 320.98 72.84 325.50 72.92
  Q 329.39 72.99 333.23 74.48
  A 0.96 0.95 12.6 0 0 334.53 73.66
  C 334.60 72.70 334.17 71.80 333.35 71.08
  C 331.29 69.30 331.87 67.43 332.14 64.49
  Q 332.57 59.63 333.64 56.01
  A 0.75 0.75 0.0 0 1 334.46 55.48
  L 341.59 56.51
  A 0.78 0.78 0.0 0 1 342.26 57.18
  L 344.35 71.10
  A 1.31 1.31 0.0 0 1 343.37 72.57
  Q 342.03 72.91 341.45 73.84
  A 1.91 1.77 -68.1 0 0 342.55 76.70
  Q 351.50 78.22 360.99 80.57
  A 0.61 0.60 13.7 0 0 361.73 80.13
  C 362.02 78.93 361.54 77.52 360.39 76.61
  Q 358.66 75.26 358.69 71.53
  Q 358.87 50.09 359.86 35.89
  Z
  M 37.11 90.06
  A 0.56 0.55 87.1 0 0 37.66 90.56
  L 45.81 90.56
  A 0.65 0.64 3.5 0 0 46.45 90.00
  C 46.61 88.71 46.34 86.92 45.14 86.11
  Q 44.45 85.64 44.17 85.18
  A 1.97 1.89 -62.3 0 1 43.87 84.14
  Q 43.85 75.96 45.51 66.84
  A 0.94 0.93 -84.8 0 1 46.43 66.07
  L 53.41 66.07
  A 0.90 0.89 85.9 0 1 54.29 66.84
  Q 55.87 78.23 55.86 83.53
  C 55.85 86.00 53.53 86.33 53.25 88.27
  Q 52.91 90.72 54.03 90.75
  L 54.04 90.75
  L 63.34 90.60
  A 1.02 1.02 0.0 0 0 64.35 89.56
  Q 64.34 88.64 63.72 87.06
  A 0.99 0.93 -81.8 0 0 63.44 86.66
  Q 61.73 85.23 61.20 81.53
  Q 56.64 49.94 53.54 20.73
  A 1.26 1.25 -3.0 0 0 52.29 19.61
  L 50.44 19.61
  A 1.41 1.40 4.0 0 0 49.05 20.81
  L 40.33 81.63
  A 7.40 7.35 -23.5 0 1 39.06 84.83
  C 37.56 86.97 36.90 87.78 37.11 90.06
  Z
  M 261.53 48.45
  Q 269.39 49.44 272.17 42.69
  C 274.76 36.40 275.24 23.68 267.44 19.93
  Q 265.77 19.12 261.69 19.57
  Q 258.12 19.97 254.47 19.54
  A 1.01 1.01 0.0 0 0 253.52 21.10
  L 256.04 24.87
  A 1.38 1.33 -63.0 0 1 256.27 25.63
  L 256.27 62.40
  A 2.05 2.04 69.8 0 1 255.56 63.95
  L 253.26 65.92
  A 1.17 1.16 -51.6 0 0 253.48 67.83
  Q 253.57 67.87 254.03 67.83
  Q 260.44 67.35 263.07 67.72
  A 1.27 1.27 0.0 0 0 263.98 65.42
  L 261.44 63.63
  A 1.41 1.40 17.8 0 1 260.85 62.49
  L 260.85 49.05
  A 0.60 0.60 0.0 0 1 261.53 48.45
  Z
  M 476.97 89.97
  A 0.55 0.55 0.0 0 0 477.51 90.47
  L 485.66 90.49
  A 0.65 0.64 3.7 0 0 486.30 89.93
  C 486.46 88.64 486.20 86.86 485.00 86.04
  Q 484.31 85.57 484.03 85.11
  A 1.97 1.89 -62.1 0 1 483.74 84.07
  Q 483.74 75.90 485.42 66.79
  A 0.94 0.93 -84.7 0 1 486.34 66.02
  L 493.32 66.04
  A 0.90 0.89 86.0 0 1 494.20 66.81
  Q 495.75 78.20 495.72 83.49
  C 495.70 85.96 493.39 86.28 493.10 88.22
  Q 492.75 90.67 493.87 90.70
  L 493.88 90.70
  L 503.18 90.58
  A 1.02 1.02 0.0 0 0 504.19 89.54
  Q 504.18 88.62 503.57 87.04
  A 0.99 0.93 -81.7 0 0 503.29 86.64
  Q 501.58 85.21 501.06 81.51
  Q 496.59 49.93 493.57 20.72
  A 1.26 1.25 -2.9 0 0 492.32 19.60
  L 490.48 19.60
  A 1.40 1.39 4.2 0 0 489.08 20.79
  L 480.21 81.55
  A 7.39 7.35 -23.4 0 1 478.93 84.75
  C 477.42 86.88 476.76 87.69 476.97 89.97
  Z
  M 176.00 19.85
  Q 165.22 21.23 154.43 20.08
  A 0.48 0.48 0.0 0 0 153.90 20.53
  L 152.90 35.86
  A 0.80 0.79 20.5 0 0 153.22 36.55
  L 153.54 36.77
  A 0.69 0.69 0.0 0 0 154.63 36.27
  C 154.86 33.77 155.29 27.78 158.62 27.54
  Q 160.50 27.40 161.92 27.41
  A 0.70 0.70 0.0 0 1 162.61 28.11
  Q 162.64 49.71 162.56 73.25
  Q 162.55 76.20 162.09 78.42
  A 1.81 1.77 78.0 0 1 161.42 79.48
  C 159.62 80.81 158.47 81.29 158.86 83.66
  A 0.77 0.77 0.0 0 0 159.73 84.29
  L 170.08 82.74
  A 0.69 0.67 -85.1 0 0 170.63 82.27
  Q 170.94 81.29 170.54 79.90
  A 1.11 1.09 4.3 0 0 169.93 79.20
  L 168.38 78.50
  A 0.95 0.94 -82.3 0 1 167.84 77.79
  Q 167.40 75.18 167.39 72.75
  Q 167.26 44.77 167.42 28.01
  A 0.77 0.77 0.0 0 1 168.25 27.24
  L 171.49 27.45
  A 2.83 2.83 0.0 0 1 174.10 29.85
  L 174.92 35.36
  A 0.46 0.46 0.0 0 0 175.44 35.74
  L 175.77 35.69
  A 0.80 0.79 85.1 0 0 176.45 34.88
  L 176.08 19.93
  A 0.08 0.07 86.8 0 0 176.00 19.85
  Z
  M 404.69 62.07
  L 404.69 43.93
  A 0.34 0.34 0.0 0 0 404.38 43.59
  L 404.00 43.55
  A 0.48 0.48 0.0 0 0 403.47 43.98
  L 403.17 46.95
  A 2.60 2.60 0.0 0 1 400.58 49.28
  L 395.34 49.28
  A 0.54 0.54 0.0 0 1 394.80 48.74
  L 394.80 27.44
  A 0.71 0.71 0.0 0 1 395.39 26.74
  Q 398.42 26.23 401.36 26.80
  A 3.20 3.18 -5.9 0 1 403.72 28.71
  Q 405.05 31.91 405.06 35.63
  A 0.68 0.67 85.9 0 0 405.83 36.30
  L 406.14 36.25
  A 0.54 0.54 0.0 0 0 406.60 35.72
  L 406.60 20.52
  A 0.64 0.63 85.1 0 0 405.86 19.89
  Q 397.60 21.35 388.23 19.89
  A 0.74 0.74 0.0 0 0 387.42 20.41
  Q 387.10 21.51 387.51 23.09
  A 1.36 1.36 0.0 0 0 387.87 23.73
  L 389.60 25.45
  A 1.13 1.09 19.8 0 1 389.90 26.06
  Q 390.31 28.94 390.31 32.00
  Q 390.26 63.70 390.19 71.50
  Q 390.14 76.13 389.46 79.30
  A 1.81 1.73 -17.2 0 1 388.96 80.20
  L 387.03 82.13
  A 1.57 1.57 0.0 0 0 388.11 84.81
  Q 397.93 85.03 406.08 87.11
  A 0.64 0.63 -79.5 0 0 406.87 86.56
  L 408.44 71.09
  A 1.40 1.39 16.2 0 0 407.67 69.70
  L 407.65 69.68
  A 0.72 0.71 13.3 0 0 406.65 70.29
  Q 406.33 74.99 404.15 78.49
  A 2.14 2.13 6.1 0 1 403.07 79.36
  Q 399.64 80.58 395.34 78.90
  A 1.00 0.99 11.0 0 1 394.71 77.98
  L 394.71 56.65
  A 1.84 1.84 0.0 0 1 396.74 54.82
  L 399.75 55.13
  A 3.52 3.52 0.0 0 1 402.87 58.10
  L 403.49 62.24
  A 0.37 0.36 -0.9 0 0 403.82 62.55
  L 404.12 62.58
  A 0.52 0.51 3.0 0 0 404.69 62.07
  Z
  M 410.66 20.92
  Q 410.70 22.44 410.64 22.57
  Q 410.45 22.97 411.94 24.21
  Q 413.75 25.71 413.79 30.00
  Q 413.98 49.84 413.64 76.69
  Q 413.62 78.91 413.02 81.79
  A 1.20 1.20 0.0 0 1 412.40 82.60
  Q 410.07 83.80 410.52 86.81
  A 0.68 0.67 82.4 0 0 411.26 87.38
  Q 414.57 87.01 418.93 87.91
  Q 423.66 88.87 425.21 88.35
  C 433.57 85.52 435.77 71.93 436.51 64.50
  Q 437.82 51.34 435.58 37.21
  Q 434.30 29.16 430.21 23.53
  C 425.64 17.25 419.83 21.05 413.94 20.45
  Q 411.64 20.22 411.20 20.28
  A 0.64 0.64 0.0 0 0 410.66 20.92
  Z
  M 130.70 37.57
  L 145.85 85.95
  A 1.71 1.71 0.0 0 0 149.19 85.43
  Q 149.06 61.83 149.28 31.24
  Q 149.33 25.59 151.70 23.51
  C 152.37 22.91 152.50 22.16 152.65 21.41
  A 0.89 0.88 -84.3 0 0 151.79 20.35
  L 143.79 20.35
  A 0.65 0.65 0.0 0 0 143.14 21.00
  L 143.14 22.68
  A 1.55 1.54 -72.5 0 0 143.79 23.94
  L 145.71 25.29
  A 1.93 1.91 -72.6 0 1 146.52 26.86
  L 146.52 66.23
  A 0.27 0.27 0.0 0 1 145.99 66.31
  L 131.63 20.46
  A 0.33 0.32 -12.8 0 0 131.26 20.23
  Q 127.17 20.89 125.11 20.27
  A 0.69 0.68 -70.9 0 0 124.27 20.68
  C 123.76 22.06 123.83 23.64 125.76 24.62
  Q 127.56 25.52 127.56 29.50
  Q 127.57 55.61 127.32 72.00
  Q 127.27 75.58 126.37 81.25
  A 3.81 3.77 69.4 0 1 125.55 83.08
  Q 124.68 84.12 124.01 86.33
  A 1.32 1.32 0.0 0 0 125.47 88.02
  L 133.17 86.87
  A 0.57 0.54 1.3 0 0 133.63 86.45
  C 133.86 85.38 133.84 83.76 132.56 83.20
  Q 131.65 82.81 131.25 82.48
  A 1.47 1.47 0.0 0 1 130.73 81.61
  Q 130.32 79.43 130.30 77.50
  Q 130.19 63.80 130.09 41.00
  Q 130.08 38.52 130.49 37.56
  A 0.11 0.11 0.0 0 1 130.70 37.57
  Z
  M 36.63 71.94
  A 0.67 0.66 -67.4 0 0 35.59 72.37
  C 34.55 78.54 34.57 85.35 25.57 83.52
  A 1.29 1.27 5.8 0 1 24.54 82.27
  Q 24.52 56.33 24.59 32.50
  Q 24.60 29.58 25.15 26.95
  A 2.69 2.67 -21.0 0 1 25.64 25.86
  C 26.84 24.24 28.10 23.35 27.75 20.96
  A 0.59 0.57 -3.9 0 0 27.17 20.47
  L 17.56 20.47
  A 0.46 0.45 7.4 0 0 17.12 20.80
  Q 16.67 22.47 17.29 23.29
  Q 19.97 26.84 20.01 31.73
  Q 20.20 56.78 19.67 81.45
  Q 19.59 85.42 17.64 87.02
  C 16.55 87.92 16.34 89.45 16.68 90.49
  A 0.73 0.73 0.0 0 0 17.48 90.99
  Q 26.12 89.80 34.72 91.14
  A 0.83 0.83 0.0 0 0 35.68 90.41
  L 37.43 73.30
  A 1.29 1.28 20.4 0 0 36.89 72.13
  L 36.63 71.94
  Z
  M 85.44 58.66
  Q 85.60 76.57 85.08 82.77
  C 84.87 85.29 80.89 86.37 82.11 89.42
  A 0.36 0.35 -11.0 0 0 82.44 89.64
  L 92.31 89.64
  A 0.65 0.65 0.0 0 0 92.94 89.16
  C 93.96 85.37 90.93 85.68 90.51 83.64
  Q 90.02 81.27 90.02 80.98
  Q 89.69 56.34 90.03 30.75
  Q 90.06 28.04 90.57 26.54
  C 91.28 24.39 93.51 23.84 93.10 21.05
  A 0.97 0.97 0.0 0 0 91.96 20.24
  Q 87.85 21.01 83.17 20.29
  A 0.72 0.72 0.0 0 0 82.36 20.83
  C 81.50 24.28 85.08 25.14 85.20 28.55
  Q 85.56 37.83 85.38 50.15
  A 0.66 0.66 0.0 0 1 84.72 50.80
  L 73.90 50.80
  A 0.59 0.59 0.0 0 1 73.31 50.21
  L 73.31 27.93
  A 1.94 1.93 -27.5 0 1 73.66 26.82
  L 76.60 22.65
  A 1.53 1.53 0.0 0 0 74.98 20.28
  Q 71.82 21.06 66.58 20.24
  A 0.67 0.66 -77.7 0 0 65.84 20.72
  C 65.18 23.06 66.59 24.23 67.75 25.88
  A 3.85 3.74 -66.2 0 1 68.42 27.69
  Q 68.80 31.83 68.80 35.75
  Q 68.79 53.42 68.81 75.75
  Q 68.81 81.78 68.07 84.43
  A 1.85 1.71 75.5 0 1 67.71 85.10
  L 65.88 87.21
  A 1.90 1.90 0.0 0 0 67.75 90.30
  Q 71.19 89.49 74.74 90.16
  A 1.76 1.76 0.0 0 0 76.39 87.27
  L 74.23 84.82
  A 1.50 1.50 0.0 0 1 73.88 84.08
  Q 73.41 81.10 73.39 79.26
  Q 73.25 69.86 73.32 58.65
  A 0.71 0.70 0.0 0 1 74.03 57.95
  L 84.72 57.95
  A 0.72 0.72 0.0 0 1 85.44 58.66
  Z
  M 442.79 54.78
  Q 442.76 73.00 442.63 78.23
  Q 442.57 81.00 442.10 83.57
  A 1.03 1.02 -11.4 0 1 441.65 84.24
  L 440.08 85.29
  A 1.34 1.32 83.6 0 0 439.57 85.94
  Q 439.02 87.42 439.46 88.89
  A 0.64 0.64 0.0 0 0 440.18 89.34
  Q 442.66 88.91 445.06 88.92
  Q 447.46 88.92 449.94 89.36
  A 0.64 0.64 0.0 0 0 450.66 88.91
  Q 451.11 87.44 450.56 85.96
  A 1.34 1.32 -83.4 0 0 450.05 85.31
  L 448.49 84.25
  A 1.03 1.02 11.6 0 1 448.04 83.58
  Q 447.58 81.01 447.52 78.24
  Q 447.41 73.00 447.44 54.79
  Q 447.47 36.57 447.60 31.33
  Q 447.66 28.56 448.13 25.99
  A 1.03 1.02 -11.4 0 1 448.58 25.32
  L 450.15 24.27
  A 1.34 1.32 83.6 0 0 450.66 23.62
  Q 451.21 22.14 450.77 20.67
  A 0.64 0.64 0.0 0 0 450.05 20.22
  Q 447.57 20.65 445.17 20.65
  Q 442.77 20.64 440.30 20.21
  A 0.64 0.64 0.0 0 0 439.57 20.66
  Q 439.13 22.12 439.67 23.61
  A 1.34 1.32 -83.4 0 0 440.18 24.26
  L 441.75 25.31
  A 1.03 1.02 11.6 0 1 442.19 25.98
  Q 442.66 28.56 442.71 31.32
  Q 442.82 36.56 442.79 54.78
  Z
  M 525.52 71.97
  A 0.67 0.67 0.0 0 0 524.48 72.40
  C 523.45 78.58 523.48 85.39 514.47 83.58
  A 1.29 1.27 5.7 0 1 513.44 82.33
  Q 513.38 56.36 513.41 32.51
  Q 513.42 29.59 513.96 26.96
  A 2.69 2.67 -21.1 0 1 514.45 25.87
  C 515.65 24.24 516.91 23.35 516.56 20.96
  A 0.59 0.57 -4.0 0 0 515.98 20.47
  L 506.36 20.48
  A 0.46 0.45 7.4 0 0 505.92 20.81
  Q 505.47 22.49 506.09 23.31
  Q 508.78 26.86 508.83 31.75
  Q 509.05 56.82 508.56 81.51
  Q 508.49 85.49 506.54 87.09
  C 505.45 87.99 505.24 89.53 505.58 90.57
  A 0.73 0.73 0.0 0 0 506.38 91.07
  Q 515.03 89.86 523.64 91.19
  A 0.83 0.83 0.0 0 0 524.60 90.46
  L 526.32 73.33
  A 1.29 1.28 20.3 0 0 525.78 72.16
  L 525.52 71.97
  Z
  M 267.42 81.73
  L 267.91 92.47
  Q 264.21 90.17 261.23 90.08
  Q 254.11 89.87 237.29 89.86
  L 170.78 89.76
  A 0.49 0.49 0.0 0 0 170.59 90.70
  Q 182.01 95.53 185.62 96.84
  Q 193.03 99.53 202.78 99.26
  Q 219.68 98.78 223.26 98.93
  C 227.30 99.09 232.27 99.44 235.26 102.18
  A 0.70 0.70 0.0 0 1 234.78 103.39
  L 226.37 103.39
  A 0.27 0.27 0.0 0 0 226.10 103.66
  L 226.10 110.50
  A 0.23 0.22 90.0 0 0 226.32 110.73
  L 244.58 111.01
  C 247.91 111.10 253.24 111.49 255.68 114.13
  A 0.61 0.61 0.0 0 1 255.23 115.15
  L 229.05 115.15
  A 0.60 0.60 0.0 0 0 228.70 116.24
  L 242.97 126.32
  A 1.06 1.00 -1.7 0 1 243.15 126.48
  Q 243.76 127.16 244.01 128.52
  C 244.74 132.54 250.30 135.08 253.76 135.96
  Q 256.47 136.64 259.04 134.50
  A 1.04 1.02 -15.9 0 0 259.40 133.87
  L 259.99 129.70
  A 1.89 1.88 4.0 0 1 261.86 128.09
  L 263.70 128.09
  A 0.97 0.97 0.0 0 0 264.39 126.44
  L 262.50 124.56
  A 1.01 0.99 -54.1 0 1 262.32 123.40
  Q 264.30 119.48 268.64 115.28
  C 272.33 111.71 274.58 108.74 273.65 103.89
  Q 272.73 99.15 272.51 97.52
  A 2.00 1.94 54.9 0 1 272.68 96.44
  L 273.43 94.82
  A 3.03 2.98 58.1 0 0 273.72 93.53
  L 273.72 82.91
  A 0.78 0.75 -29.8 0 1 273.84 82.50
  C 274.47 81.54 275.89 80.75 276.43 79.71
  Q 279.58 73.55 274.04 70.59
  C 266.61 66.63 261.17 76.19 267.42 81.73
  Z
  M 301.79 100.82
  Q 305.81 101.69 308.07 104.72
  A 1.04 1.04 0.0 0 1 307.28 106.38
  L 302.45 106.58
  C 295.79 106.53 289.61 108.63 283.52 110.85
  A 0.94 0.92 80.3 0 0 282.91 111.73
  L 282.91 122.20
  A 1.45 1.44 -8.0 0 1 281.86 123.59
  C 279.62 124.23 277.14 124.83 276.78 127.12
  A 1.21 1.21 0.0 0 0 277.69 128.47
  Q 279.92 129.03 281.85 128.30
  Q 282.49 128.31 282.77 128.79
  Q 283.35 131.17 282.97 132.73
  A 1.38 1.36 -2.5 0 1 282.07 133.70
  Q 275.87 135.73 269.50 135.98
  A 0.51 0.51 0.0 0 0 269.24 136.91
  L 269.26 136.92
  A 2.96 2.88 67.6 0 0 270.28 137.36
  C 274.09 138.26 279.10 139.77 281.61 143.03
  A 2.54 2.53 42.4 0 1 281.75 145.94
  C 280.48 147.95 277.75 148.86 275.01 150.07
  A 1.02 1.01 42.4 0 0 275.10 151.96
  C 278.76 153.19 283.77 149.67 285.97 147.16
  C 289.08 143.59 287.21 140.81 283.90 138.64
  A 0.75 0.75 0.0 0 1 284.18 137.28
  Q 291.54 136.01 297.21 130.61
  A 1.80 1.78 -14.5 0 0 297.71 129.77
  L 298.36 127.32
  A 1.97 1.93 -9.6 0 1 299.17 126.20
  L 314.50 115.95
  A 0.40 0.40 0.0 0 0 314.28 115.22
  L 297.93 115.22
  A 0.67 0.66 27.7 0 1 297.55 114.01
  Q 300.18 112.19 303.46 111.35
  Q 308.46 111.07 313.48 110.97
  Q 319.70 110.85 323.44 110.10
  Q 333.99 108.00 341.96 104.42
  A 0.69 0.69 0.0 0 0 341.84 103.13
  Q 340.97 102.92 339.76 103.13
  Q 334.11 104.14 328.06 103.84
  A 0.82 0.81 21.7 0 0 327.40 104.12
  C 327.06 104.52 327.17 105.21 326.78 105.71
  C 325.43 107.44 323.48 105.44 322.33 104.44
  A 1.30 1.29 -25.5 0 0 321.39 104.11
  Q 319.12 104.24 317.51 103.39
  A 1.21 1.21 0.0 0 1 317.29 101.41
  C 319.50 99.50 322.53 98.84 325.74 98.85
  Q 335.87 98.87 346.03 99.46
  Q 355.25 98.90 363.24 94.57
  A 0.60 0.42 10.3 0 1 363.35 94.52
  L 373.51 90.45
  A 0.43 0.42 33.5 0 0 373.34 89.63
  L 338.27 89.99
  L 307.23 89.84
  C 299.22 89.22 286.08 88.81 279.14 94.59
  A 0.67 0.67 0.0 0 0 279.17 95.64
  Q 279.56 95.92 280.01 95.85
  C 284.75 95.06 297.11 94.07 298.94 98.87
  A 0.57 0.57 0.0 0 1 298.41 99.64
  L 294.42 99.64
  A 0.25 0.25 0.0 0 0 294.17 99.89
  L 294.17 100.19
  A 0.49 0.49 0.0 0 0 294.65 100.68
  L 301.79 100.82
  Z
  M 271.96 118.33
  L 268.47 122.42
  A 0.82 0.79 65.3 0 0 268.29 122.93
  L 268.29 130.21
  A 3.13 3.13 0.0 0 0 270.76 133.27
  L 271.31 133.38
  A 1.95 1.95 0.0 0 0 273.67 131.47
  L 273.67 118.96
  A 0.97 0.97 0.0 0 0 271.96 118.33
  Z
  M 264.48 150.25
  C 261.79 148.01 256.86 144.57 261.22 141.54
  Q 262.66 140.54 263.12 140.17
  A 0.83 0.82 -63.7 0 0 262.63 138.71
  L 258.09 138.52
  A 0.97 0.95 29.2 0 0 257.54 138.67
  C 249.92 143.49 258.36 151.16 264.26 150.90
  A 0.37 0.37 0.0 0 0 264.48 150.25
  Z
  M 273.32 149.09
  L 272.89 140.66
  A 0.87 0.87 0.0 0 0 271.98 139.83
  L 271.24 139.87
  A 2.83 2.57 87.1 0 0 268.82 142.83
  L 269.05 147.34
  A 2.83 2.57 87.1 0 0 271.76 150.04
  L 272.50 150.00
  A 0.87 0.87 0.0 0 0 273.32 149.09
  Z
  M 271.48 154.30
  Q 276.14 156.32 277.89 159.06
  A 2.61 2.59 -47.4 0 1 277.99 161.69
  Q 276.65 164.22 274.24 165.78
  A 1.50 1.50 0.0 0 0 273.78 167.82
  L 273.81 167.88
  A 1.32 1.32 0.0 0 0 275.73 168.24
  C 286.19 160.22 280.12 153.94 270.16 152.36
  A 0.40 0.40 0.0 0 0 269.79 153.02
  Q 270.52 153.88 271.48 154.30
  Z
  M 265.80 166.17
  L 264.34 163.80
  A 2.06 1.87 25.6 0 1 264.10 163.21
  Q 263.39 160.22 264.87 158.19
  A 1.43 1.35 -87.4 0 1 265.23 157.84
  L 267.39 156.39
  A 1.05 1.04 -48.3 0 0 267.29 154.59
  L 266.42 154.15
  A 2.38 2.36 -50.5 0 0 263.89 154.40
  Q 259.34 157.99 261.46 163.38
  A 1.49 1.38 -83.3 0 0 261.88 163.96
  L 265.18 166.70
  A 0.41 0.41 0.0 0 0 265.80 166.17
  Z
  M 272.92 165.78
  L 272.31 156.32
  A 0.17 0.17 0.0 0 0 272.13 156.16
  L 272.07 156.16
  A 2.84 2.61 86.3 0 0 269.65 159.17
  L 269.92 163.30
  A 2.84 2.61 86.3 0 0 272.70 165.96
  L 272.76 165.96
  A 0.17 0.17 0.0 0 0 272.92 165.78
  Z
  M 272.01 169.41
  A 0.56 0.55 72.8 0 0 271.51 170.36
  L 275.56 174.05
  A 1.16 1.14 15.2 0 1 275.88 174.60
  Q 276.42 176.69 273.95 178.69
  A 1.49 1.48 -33.1 0 0 273.56 180.52
  L 273.63 180.66
  A 0.94 0.94 0.0 0 0 275.06 180.96
  C 280.73 176.40 278.29 170.90 272.01 169.41
  Z
  M 266.74 179.36
  C 263.53 174.21 268.38 174.11 268.18 170.25
  A 0.47 0.47 0.0 0 0 267.49 169.86
  C 263.04 172.31 262.29 176.31 266.29 179.74
  A 0.30 0.30 0.0 0 0 266.74 179.36
  Z
  M 271.59 182.27
  A 0.37 0.37 0.0 0 0 271.18 182.86
  Q 272.32 184.06 272.91 185.50
  A 2.54 2.44 33.2 0 1 273.11 186.37
  Q 273.25 189.92 272.37 192.76
  A 0.51 0.51 0.0 0 0 273.16 193.32
  Q 274.63 192.25 275.22 190.18
  Q 276.86 184.43 271.59 182.27
  Z
  M 271.96 199.37
  C 272.75 197.17 270.40 194.33 268.72 191.91
  A 2.87 2.68 22.5 0 1 268.32 191.03
  C 267.60 188.18 268.22 186.36 268.73 183.75
  A 0.40 0.40 0.0 0 0 268.12 183.34
  L 267.58 183.70
  A 1.55 1.52 -9.6 0 0 266.95 184.57
  Q 265.83 188.61 267.71 192.59
  A 2.20 1.72 -83.0 0 0 267.92 192.94
  L 270.97 196.81
  A 1.48 1.47 -68.5 0 1 271.25 197.46
  L 271.53 199.33
  A 0.22 0.22 0.0 0 0 271.96 199.37
  Z"
/>
<path fill="#474647" d="
  M 109.1381 18.1214
  A 36.45 13.21 -89.5 0 1 122.0295 54.6853
  A 36.45 13.21 -89.5 0 1 108.5019 91.0186
  A 36.45 13.21 -89.5 0 1 95.6105 54.4547
  A 36.45 13.21 -89.5 0 1 109.1381 18.1214
  Z
  M 108.5847 25.2211
  A 29.25 7.98 -90.5 0 0 100.8603 54.5396
  A 29.25 7.98 -90.5 0 0 109.0953 83.7189
  A 29.25 7.98 -90.5 0 0 116.8197 54.4004
  A 29.25 7.98 -90.5 0 0 108.5847 25.2211
  Z"
/>
<path fill="#474647" d="
  M 475.52 71.37
  L 475.65 71.41
  A 1.13 1.12 -77.3 0 1 476.43 72.66
  Q 475.02 81.24 474.86 83.72
  Q 474.62 87.38 473.14 88.86
  C 466.36 95.64 460.32 90.84 457.58 83.64
  C 452.87 71.26 452.38 57.28 453.73 43.74
  C 454.48 36.21 456.90 24.34 463.02 19.75
  C 466.63 17.05 471.79 19.02 474.53 22.00
  A 2.20 2.18 23.0 0 1 475.12 23.44
  L 475.63 40.63
  A 0.72 0.72 0.0 0 1 474.91 41.37
  L 474.61 41.37
  A 1.01 1.00 -89.4 0 1 473.61 40.34
  C 473.71 36.08 472.78 29.13 468.67 26.78
  C 462.99 23.54 460.17 33.86 459.60 37.48
  Q 456.80 55.29 460.33 73.16
  C 461.19 77.54 462.74 81.79 466.44 83.91
  A 1.74 1.71 -35.5 0 0 467.64 84.10
  C 472.45 83.07 473.92 76.33 474.45 72.06
  A 0.83 0.83 0.0 0 1 475.52 71.37
  Z"
/>
<path fill="#474647" d="
  M 287.99 50.85
  L 280.67 50.85
  A 1.05 1.05 0.0 0 0 279.63 51.75
  L 278.07 62.63
  A 1.22 1.22 0.0 0 0 278.58 63.81
  L 280.39 65.09
  A 1.37 1.37 0.0 0 1 279.60 67.58
  L 272.53 67.58
  A 1.24 1.24 0.0 0 1 271.49 65.66
  Q 272.18 64.60 273.15 63.96
  A 2.42 2.33 -7.0 0 0 274.05 62.85
  Q 275.16 59.98 275.74 57.25
  Q 278.54 44.26 283.54 20.01
  A 0.68 0.68 0.0 0 1 283.95 19.51
  Q 285.78 18.77 287.27 19.30
  A 1.15 1.15 0.0 0 1 288.01 20.19
  Q 290.85 37.06 295.06 59.73
  Q 295.99 64.77 298.38 66.38
  A 0.97 0.95 12.4 0 1 298.79 67.01
  L 298.81 67.12
  A 1.14 1.13 87.2 0 1 297.61 68.45
  L 289.01 67.79
  A 1.47 1.46 -59.7 0 1 288.31 65.11
  L 290.04 63.95
  A 1.17 1.16 68.8 0 0 290.54 62.81
  L 288.86 51.61
  A 0.89 0.88 85.8 0 0 287.99 50.85
  Z
  M 281.08 45.70
  A 0.43 0.43 0.0 0 0 281.50 46.21
  L 287.34 46.31
  A 0.43 0.43 0.0 0 0 287.77 45.81
  L 285.14 29.25
  A 0.43 0.43 0.0 0 0 284.29 29.24
  L 281.08 45.70
  Z"
/>
<path fill="#474647" d="
  M 208.91 34.20
  A 0.29 0.29 0.0 0 0 208.35 34.31
  Q 208.31 55.55 208.64 67.94
  C 208.69 69.69 209.28 70.57 210.79 71.03
  A 1.69 1.52 45.1 0 1 210.94 74.14
  Q 207.39 74.88 205.14 75.58
  C 203.80 75.99 202.53 75.63 201.43 76.17
  Q 200.54 76.61 200.02 76.73
  Q 193.11 78.25 191.84 78.75
  A 1.24 1.24 0.0 0 1 190.17 77.38
  Q 190.43 75.88 191.63 75.03
  A 3.69 3.68 69.7 0 0 193.16 71.68
  Q 192.94 69.41 191.45 58.83
  A 0.65 0.65 0.0 0 0 190.71 58.27
  L 184.19 59.25
  A 2.29 2.29 0.0 0 0 182.25 61.27
  L 180.83 74.48
  A 2.28 1.78 52.0 0 0 180.83 74.89
  C 181.01 77.40 184.01 76.08 183.57 80.06
  A 0.76 0.75 89.0 0 1 182.94 80.72
  L 174.91 81.92
  A 0.57 0.57 0.0 0 1 174.30 81.59
  Q 173.47 79.66 175.45 77.71
  Q 177.15 76.05 177.77 72.23
  Q 180.32 56.47 186.20 20.48
  A 1.30 1.30 0.0 0 1 187.06 19.47
  Q 188.05 19.15 189.87 19.43
  A 1.01 1.00 -89.7 0 1 190.72 20.30
  Q 193.59 42.13 198.19 69.54
  Q 198.70 72.65 201.33 74.55
  A 0.53 0.53 0.0 0 0 202.08 74.42
  L 204.43 71.09
  A 1.67 1.59 -22.5 0 0 204.70 70.48
  Q 205.53 66.70 205.58 62.74
  Q 205.78 47.69 205.85 30.08
  C 205.86 26.86 206.21 24.38 203.28 23.06
  A 1.64 1.64 0.0 0 1 203.95 19.92
  L 210.10 19.92
  A 0.45 0.45 0.0 0 1 210.53 20.25
  Q 211.97 25.59 213.46 29.29
  Q 220.13 45.85 224.14 55.79
  A 0.37 0.37 0.0 0 0 224.85 55.65
  Q 224.75 43.98 224.55 26.74
  Q 224.52 23.91 222.11 22.58
  A 1.55 1.54 -24.5 0 1 223.18 19.72
  Q 225.82 20.28 229.25 19.77
  A 1.36 1.36 0.0 0 1 230.27 22.21
  C 227.21 24.51 227.72 27.02 227.69 30.59
  Q 227.47 53.46 227.56 70.57
  A 0.88 0.84 65.0 0 1 227.38 71.10
  Q 226.45 72.25 224.64 71.77
  A 0.98 0.98 0.0 0 1 223.99 71.19
  L 208.91 34.20
  Z
  M 187.64 31.79
  A 0.39 0.39 0.0 0 0 186.87 31.80
  L 183.83 53.00
  A 0.39 0.39 0.0 0 0 184.28 53.44
  L 190.35 52.53
  A 0.39 0.39 0.0 0 0 190.68 52.08
  L 187.64 31.79
  Z"
/>
<path fill="#474647" d="
  M 359.86 35.89
  Q 358.87 50.09 358.69 71.53
  Q 358.66 75.26 360.39 76.61
  C 361.54 77.52 362.02 78.93 361.73 80.13
  A 0.61 0.60 13.7 0 1 360.99 80.57
  Q 351.50 78.22 342.55 76.70
  A 1.91 1.77 -68.1 0 1 341.45 73.84
  Q 342.03 72.91 343.37 72.57
  A 1.31 1.31 0.0 0 0 344.35 71.10
  L 342.26 57.18
  A 0.78 0.78 0.0 0 0 341.59 56.51
  L 334.46 55.48
  A 0.75 0.75 0.0 0 0 333.64 56.01
  Q 332.57 59.63 332.14 64.49
  C 331.87 67.43 331.29 69.30 333.35 71.08
  C 334.17 71.80 334.60 72.70 334.53 73.66
  A 0.96 0.95 12.6 0 1 333.23 74.48
  Q 329.39 72.99 325.50 72.92
  C 320.98 72.84 317.98 71.99 316.79 67.93
  Q 314.39 59.72 311.91 50.85
  Q 311.25 48.50 308.51 49.22
  A 0.74 0.73 83.3 0 0 307.96 49.92
  Q 307.82 58.00 308.19 64.45
  C 308.29 66.21 310.40 66.57 311.04 68.40
  A 0.98 0.98 0.0 0 1 310.01 69.70
  L 301.11 68.79
  A 1.22 1.22 0.0 0 1 300.55 66.56
  L 301.79 65.73
  A 3.19 3.17 -16.4 0 0 303.20 63.17
  Q 303.57 49.57 303.48 27.50
  Q 303.46 23.28 301.10 22.49
  A 0.76 0.76 0.0 0 1 300.60 21.89
  L 300.35 20.24
  A 0.58 0.58 0.0 0 1 301.00 19.58
  Q 304.94 20.07 310.97 19.69
  C 321.26 19.04 321.22 34.23 319.66 40.42
  A 6.34 6.33 -20.2 0 1 318.69 42.52
  L 316.00 46.33
  A 1.42 1.42 0.0 0 0 315.84 47.65
  Q 317.20 51.25 321.83 65.89
  Q 322.44 67.82 323.63 69.17
  A 1.35 1.33 -18.3 0 0 324.54 69.62
  Q 327.13 69.81 327.99 67.18
  Q 329.07 63.87 330.32 57.10
  Q 332.93 43.07 337.14 20.25
  A 1.04 1.03 87.8 0 1 337.88 19.44
  Q 339.40 19.02 340.84 19.38
  A 1.06 1.05 3.7 0 1 341.63 20.27
  Q 344.54 42.22 348.81 67.86
  C 349.20 70.17 349.79 75.52 352.74 76.16
  A 1.68 1.57 -76.4 0 0 354.62 74.92
  Q 355.79 70.37 355.99 65.25
  Q 357.12 37.30 357.37 30.50
  Q 357.46 28.01 357.23 25.84
  A 1.77 1.70 -67.9 0 0 356.86 24.92
  C 355.28 22.93 354.00 24.01 354.36 20.56
  A 0.58 0.58 0.0 0 1 354.94 20.03
  L 362.10 20.03
  A 0.59 0.57 -3.9 0 1 362.68 20.52
  L 368.72 60.84
  A 0.43 0.43 0.0 0 0 369.57 60.85
  Q 374.48 32.68 374.77 31.26
  Q 376.00 25.19 376.23 20.43
  A 0.34 0.34 0.0 0 1 376.57 20.10
  L 383.80 20.10
  A 0.62 0.61 89.0 0 1 384.41 20.70
  C 384.47 22.33 384.71 23.30 382.98 24.38
  Q 381.35 25.40 381.36 29.31
  Q 381.42 48.45 382.35 74.44
  C 382.42 76.53 382.39 78.73 384.32 80.34
  Q 385.39 81.23 385.57 82.88
  A 1.13 1.13 0.0 0 1 384.33 84.13
  L 375.29 83.20
  A 0.69 0.68 87.1 0 1 374.69 82.65
  C 374.36 80.95 374.10 79.95 376.05 78.96
  Q 377.75 78.11 377.70 74.96
  Q 377.31 51.34 377.32 36.08
  A 0.13 0.12 56.7 0 0 377.08 36.03
  Q 376.68 36.95 376.43 38.19
  Q 371.00 65.68 369.26 80.74
  A 1.10 1.10 0.0 0 1 367.08 80.78
  L 360.35 35.87
  A 0.25 0.25 0.0 0 0 359.86 35.89
  Z
  M 307.97 25.61
  L 307.93 43.87
  A 1.26 1.26 0.0 0 0 309.19 45.14
  L 310.45 45.14
  A 7.84 5.16 -89.9 0 0 315.63 37.31
  L 315.63 32.21
  A 7.84 5.16 -89.9 0 0 310.49 24.36
  L 309.23 24.36
  A 1.26 1.26 0.0 0 0 307.97 25.61
  Z
  M 335.22 50.35
  L 340.76 51.16
  A 0.46 0.46 0.0 0 0 341.28 50.65
  L 338.58 30.62
  A 0.36 0.36 0.0 0 0 337.87 30.61
  L 334.73 49.67
  A 0.59 0.59 0.0 0 0 335.22 50.35
  Z"
/>
<path fill="#474647" d="
  M 37.11 90.06
  C 36.90 87.78 37.56 86.97 39.06 84.83
  A 7.40 7.35 -23.5 0 0 40.33 81.63
  L 49.05 20.81
  A 1.41 1.40 4.0 0 1 50.44 19.61
  L 52.29 19.61
  A 1.26 1.25 -3.0 0 1 53.54 20.73
  Q 56.64 49.94 61.20 81.53
  Q 61.73 85.23 63.44 86.66
  A 0.99 0.93 -81.8 0 1 63.72 87.06
  Q 64.34 88.64 64.35 89.56
  A 1.02 1.02 0.0 0 1 63.34 90.60
  L 54.04 90.75
  L 54.03 90.75
  Q 52.91 90.72 53.25 88.27
  C 53.53 86.33 55.85 86.00 55.86 83.53
  Q 55.87 78.23 54.29 66.84
  A 0.90 0.89 85.9 0 0 53.41 66.07
  L 46.43 66.07
  A 0.94 0.93 -84.8 0 0 45.51 66.84
  Q 43.85 75.96 43.87 84.14
  A 1.97 1.89 -62.3 0 0 44.17 85.18
  Q 44.45 85.64 45.14 86.11
  C 46.34 86.92 46.61 88.71 46.45 90.00
  A 0.65 0.64 3.5 0 1 45.81 90.56
  L 37.66 90.56
  A 0.56 0.55 87.1 0 1 37.11 90.06
  Z
  M 49.91 59.34
  Q 51.55 59.36 53.07 59.17
  A 0.32 0.32 0.0 0 0 53.35 58.81
  Q 50.51 35.99 50.54 34.26
  Q 50.54 33.85 50.12 33.84
  Q 49.67 33.84 49.67 34.25
  Q 49.67 35.98 46.49 58.76
  A 0.32 0.32 0.0 0 0 46.76 59.12
  Q 48.28 59.33 49.91 59.34
  Z"
/>
<path fill="#474647" d="
  M 260.85 49.05
  L 260.85 62.49
  A 1.41 1.40 17.8 0 0 261.44 63.63
  L 263.98 65.42
  A 1.27 1.27 0.0 0 1 263.07 67.72
  Q 260.44 67.35 254.03 67.83
  Q 253.57 67.87 253.48 67.83
  A 1.17 1.16 -51.6 0 1 253.26 65.92
  L 255.56 63.95
  A 2.05 2.04 69.8 0 0 256.27 62.40
  L 256.27 25.63
  A 1.38 1.33 -63.0 0 0 256.04 24.87
  L 253.52 21.10
  A 1.01 1.01 0.0 0 1 254.47 19.54
  Q 258.12 19.97 261.69 19.57
  Q 265.77 19.12 267.44 19.93
  C 275.24 23.68 274.76 36.40 272.17 42.69
  Q 269.39 49.44 261.53 48.45
  A 0.60 0.60 0.0 0 0 260.85 49.05
  Z
  M 260.82 25.15
  L 260.78 43.29
  A 1.26 1.26 0.0 0 0 262.04 44.55
  L 262.96 44.56
  A 8.64 6.14 -89.9 0 0 269.12 35.93
  L 269.12 32.55
  A 8.64 6.14 -89.9 0 0 263.00 23.90
  L 262.08 23.89
  A 1.26 1.26 0.0 0 0 260.82 25.15
  Z"
/>
<path fill="#474647" d="
  M 476.97 89.97
  C 476.76 87.69 477.42 86.88 478.93 84.75
  A 7.39 7.35 -23.4 0 0 480.21 81.55
  L 489.08 20.79
  A 1.40 1.39 4.2 0 1 490.48 19.60
  L 492.32 19.60
  A 1.26 1.25 -2.9 0 1 493.57 20.72
  Q 496.59 49.93 501.06 81.51
  Q 501.58 85.21 503.29 86.64
  A 0.99 0.93 -81.7 0 1 503.57 87.04
  Q 504.18 88.62 504.19 89.54
  A 1.02 1.02 0.0 0 1 503.18 90.58
  L 493.88 90.70
  L 493.87 90.70
  Q 492.75 90.67 493.10 88.22
  C 493.39 86.28 495.70 85.96 495.72 83.49
  Q 495.75 78.20 494.20 66.81
  A 0.90 0.89 86.0 0 0 493.32 66.04
  L 486.34 66.02
  A 0.94 0.93 -84.7 0 0 485.42 66.79
  Q 483.74 75.90 483.74 84.07
  A 1.97 1.89 -62.1 0 0 484.03 85.11
  Q 484.31 85.57 485.00 86.04
  C 486.20 86.86 486.46 88.64 486.30 89.93
  A 0.65 0.64 3.7 0 1 485.66 90.49
  L 477.51 90.47
  A 0.55 0.55 0.0 0 1 476.97 89.97
  Z
  M 489.77 59.37
  Q 491.40 59.39 492.93 59.22
  A 0.32 0.32 0.0 0 0 493.21 58.86
  Q 490.55 36.01 490.59 34.28
  Q 490.60 33.87 490.17 33.86
  Q 489.73 33.85 489.72 34.26
  Q 489.71 36.00 486.34 58.75
  A 0.32 0.32 0.0 0 0 486.61 59.12
  Q 488.13 59.34 489.77 59.37
  Z"
/>
<path fill="#474647" d="
  M 176.00 19.85
  A 0.08 0.07 86.8 0 1 176.08 19.93
  L 176.45 34.88
  A 0.80 0.79 85.1 0 1 175.77 35.69
  L 175.44 35.74
  A 0.46 0.46 0.0 0 1 174.92 35.36
  L 174.10 29.85
  A 2.83 2.83 0.0 0 0 171.49 27.45
  L 168.25 27.24
  A 0.77 0.77 0.0 0 0 167.42 28.01
  Q 167.26 44.77 167.39 72.75
  Q 167.40 75.18 167.84 77.79
  A 0.95 0.94 -82.3 0 0 168.38 78.50
  L 169.93 79.20
  A 1.11 1.09 4.3 0 1 170.54 79.90
  Q 170.94 81.29 170.63 82.27
  A 0.69 0.67 -85.1 0 1 170.08 82.74
  L 159.73 84.29
  A 0.77 0.77 0.0 0 1 158.86 83.66
  C 158.47 81.29 159.62 80.81 161.42 79.48
  A 1.81 1.77 78.0 0 0 162.09 78.42
  Q 162.55 76.20 162.56 73.25
  Q 162.64 49.71 162.61 28.11
  A 0.70 0.70 0.0 0 0 161.92 27.41
  Q 160.50 27.40 158.62 27.54
  C 155.29 27.78 154.86 33.77 154.63 36.27
  A 0.69 0.69 0.0 0 1 153.54 36.77
  L 153.22 36.55
  A 0.80 0.79 20.5 0 1 152.90 35.86
  L 153.90 20.53
  A 0.48 0.48 0.0 0 1 154.43 20.08
  Q 165.22 21.23 176.00 19.85
  Z"
/>
<path fill="#474647" d="
  M 404.69 62.07
  A 0.52 0.51 3.0 0 1 404.12 62.58
  L 403.82 62.55
  A 0.37 0.36 -0.9 0 1 403.49 62.24
  L 402.87 58.10
  A 3.52 3.52 0.0 0 0 399.75 55.13
  L 396.74 54.82
  A 1.84 1.84 0.0 0 0 394.71 56.65
  L 394.71 77.98
  A 1.00 0.99 11.0 0 0 395.34 78.90
  Q 399.64 80.58 403.07 79.36
  A 2.14 2.13 6.1 0 0 404.15 78.49
  Q 406.33 74.99 406.65 70.29
  A 0.72 0.71 13.3 0 1 407.65 69.68
  L 407.67 69.70
  A 1.40 1.39 16.2 0 1 408.44 71.09
  L 406.87 86.56
  A 0.64 0.63 -79.5 0 1 406.08 87.11
  Q 397.93 85.03 388.11 84.81
  A 1.57 1.57 0.0 0 1 387.03 82.13
  L 388.96 80.20
  A 1.81 1.73 -17.2 0 0 389.46 79.30
  Q 390.14 76.13 390.19 71.50
  Q 390.26 63.70 390.31 32.00
  Q 390.31 28.94 389.90 26.06
  A 1.13 1.09 19.8 0 0 389.60 25.45
  L 387.87 23.73
  A 1.36 1.36 0.0 0 1 387.51 23.09
  Q 387.10 21.51 387.42 20.41
  A 0.74 0.74 0.0 0 1 388.23 19.89
  Q 397.60 21.35 405.86 19.89
  A 0.64 0.63 85.1 0 1 406.60 20.52
  L 406.60 35.72
  A 0.54 0.54 0.0 0 1 406.14 36.25
  L 405.83 36.30
  A 0.68 0.67 85.9 0 1 405.06 35.63
  Q 405.05 31.91 403.72 28.71
  A 3.20 3.18 -5.9 0 0 401.36 26.80
  Q 398.42 26.23 395.39 26.74
  A 0.71 0.71 0.0 0 0 394.80 27.44
  L 394.80 48.74
  A 0.54 0.54 0.0 0 0 395.34 49.28
  L 400.58 49.28
  A 2.60 2.60 0.0 0 0 403.17 46.95
  L 403.47 43.98
  A 0.48 0.48 0.0 0 1 404.00 43.55
  L 404.38 43.59
  A 0.34 0.34 0.0 0 1 404.69 43.93
  L 404.69 62.07
  Z"
/>
<path fill="#474647" d="
  M 411.20 20.28
  Q 411.64 20.22 413.94 20.45
  C 419.83 21.05 425.64 17.25 430.21 23.53
  Q 434.30 29.16 435.58 37.21
  Q 437.82 51.34 436.51 64.50
  C 435.77 71.93 433.57 85.52 425.21 88.35
  Q 423.66 88.87 418.93 87.91
  Q 414.57 87.01 411.26 87.38
  A 0.68 0.67 82.4 0 1 410.52 86.81
  Q 410.07 83.80 412.40 82.60
  A 1.20 1.20 0.0 0 0 413.02 81.79
  Q 413.62 78.91 413.64 76.69
  Q 413.98 49.84 413.79 30.00
  Q 413.75 25.71 411.94 24.21
  Q 410.45 22.97 410.64 22.57
  Q 410.70 22.44 410.66 20.92
  A 0.64 0.64 0.0 0 1 411.20 20.28
  Z
  M 419.30 26.77
  A 1.52 1.52 0.0 0 0 418.40 28.16
  L 418.40 79.70
  A 1.17 1.15 18.6 0 0 418.87 80.63
  C 423.23 83.87 427.29 80.90 429.04 76.55
  Q 430.50 72.93 431.00 68.50
  C 431.88 60.73 433.51 30.11 423.92 26.78
  Q 421.33 25.88 419.30 26.77
  Z"
/>
<path fill="#474647" d="
  M 130.70 37.57
  A 0.11 0.11 0.0 0 0 130.49 37.56
  Q 130.08 38.52 130.09 41.00
  Q 130.19 63.80 130.30 77.50
  Q 130.32 79.43 130.73 81.61
  A 1.47 1.47 0.0 0 0 131.25 82.48
  Q 131.65 82.81 132.56 83.20
  C 133.84 83.76 133.86 85.38 133.63 86.45
  A 0.57 0.54 1.3 0 1 133.17 86.87
  L 125.47 88.02
  A 1.32 1.32 0.0 0 1 124.01 86.33
  Q 124.68 84.12 125.55 83.08
  A 3.81 3.77 69.4 0 0 126.37 81.25
  Q 127.27 75.58 127.32 72.00
  Q 127.57 55.61 127.56 29.50
  Q 127.56 25.52 125.76 24.62
  C 123.83 23.64 123.76 22.06 124.27 20.68
  A 0.69 0.68 -70.9 0 1 125.11 20.27
  Q 127.17 20.89 131.26 20.23
  A 0.33 0.32 -12.8 0 1 131.63 20.46
  L 145.99 66.31
  A 0.27 0.27 0.0 0 0 146.52 66.23
  L 146.52 26.86
  A 1.93 1.91 -72.6 0 0 145.71 25.29
  L 143.79 23.94
  A 1.55 1.54 -72.5 0 1 143.14 22.68
  L 143.14 21.00
  A 0.65 0.65 0.0 0 1 143.79 20.35
  L 151.79 20.35
  A 0.89 0.88 -84.3 0 1 152.65 21.41
  C 152.50 22.16 152.37 22.91 151.70 23.51
  Q 149.33 25.59 149.28 31.24
  Q 149.06 61.83 149.19 85.43
  A 1.71 1.71 0.0 0 1 145.85 85.95
  L 130.70 37.57
  Z"
/>
<path fill="#474647" d="
  M 36.63 71.94
  L 36.89 72.13
  A 1.29 1.28 20.4 0 1 37.43 73.30
  L 35.68 90.41
  A 0.83 0.83 0.0 0 1 34.72 91.14
  Q 26.12 89.80 17.48 90.99
  A 0.73 0.73 0.0 0 1 16.68 90.49
  C 16.34 89.45 16.55 87.92 17.64 87.02
  Q 19.59 85.42 19.67 81.45
  Q 20.20 56.78 20.01 31.73
  Q 19.97 26.84 17.29 23.29
  Q 16.67 22.47 17.12 20.80
  A 0.46 0.45 7.4 0 1 17.56 20.47
  L 27.17 20.47
  A 0.59 0.57 -3.9 0 1 27.75 20.96
  C 28.10 23.35 26.84 24.24 25.64 25.86
  A 2.69 2.67 -21.0 0 0 25.15 26.95
  Q 24.60 29.58 24.59 32.50
  Q 24.52 56.33 24.54 82.27
  A 1.29 1.27 5.8 0 0 25.57 83.52
  C 34.57 85.35 34.55 78.54 35.59 72.37
  A 0.67 0.66 -67.4 0 1 36.63 71.94
  Z"
/>
<path fill="#474647" d="
  M 84.72 57.95
  L 74.03 57.95
  A 0.71 0.70 -0.0 0 0 73.32 58.65
  Q 73.25 69.86 73.39 79.26
  Q 73.41 81.10 73.88 84.08
  A 1.50 1.50 0.0 0 0 74.23 84.82
  L 76.39 87.27
  A 1.76 1.76 0.0 0 1 74.74 90.16
  Q 71.19 89.49 67.75 90.30
  A 1.90 1.90 0.0 0 1 65.88 87.21
  L 67.71 85.10
  A 1.85 1.71 75.5 0 0 68.07 84.43
  Q 68.81 81.78 68.81 75.75
  Q 68.79 53.42 68.80 35.75
  Q 68.80 31.83 68.42 27.69
  A 3.85 3.74 -66.2 0 0 67.75 25.88
  C 66.59 24.23 65.18 23.06 65.84 20.72
  A 0.67 0.66 -77.7 0 1 66.58 20.24
  Q 71.82 21.06 74.98 20.28
  A 1.53 1.53 0.0 0 1 76.60 22.65
  L 73.66 26.82
  A 1.94 1.93 -27.5 0 0 73.31 27.93
  L 73.31 50.21
  A 0.59 0.59 0.0 0 0 73.90 50.80
  L 84.72 50.80
  A 0.66 0.66 0.0 0 0 85.38 50.15
  Q 85.56 37.83 85.20 28.55
  C 85.08 25.14 81.50 24.28 82.36 20.83
  A 0.72 0.72 0.0 0 1 83.17 20.29
  Q 87.85 21.01 91.96 20.24
  A 0.97 0.97 0.0 0 1 93.10 21.05
  C 93.51 23.84 91.28 24.39 90.57 26.54
  Q 90.06 28.04 90.03 30.75
  Q 89.69 56.34 90.02 80.98
  Q 90.02 81.27 90.51 83.64
  C 90.93 85.68 93.96 85.37 92.94 89.16
  A 0.65 0.65 0.0 0 1 92.31 89.64
  L 82.44 89.64
  A 0.36 0.35 -11.0 0 1 82.11 89.42
  C 80.89 86.37 84.87 85.29 85.08 82.77
  Q 85.60 76.57 85.44 58.66
  A 0.72 0.72 0.0 0 0 84.72 57.95
  Z"
/>
<path fill="#474647" d="
  M 445.17 20.65
  Q 447.57 20.65 450.05 20.22
  A 0.64 0.64 0.0 0 1 450.77 20.67
  Q 451.21 22.14 450.66 23.62
  A 1.34 1.32 83.6 0 1 450.15 24.27
  L 448.58 25.32
  A 1.03 1.02 -11.4 0 0 448.13 25.99
  Q 447.66 28.56 447.60 31.33
  Q 447.47 36.57 447.44 54.79
  Q 447.41 73.00 447.52 78.24
  Q 447.58 81.01 448.04 83.58
  A 1.03 1.02 11.6 0 0 448.49 84.25
  L 450.05 85.31
  A 1.34 1.32 -83.4 0 1 450.56 85.96
  Q 451.11 87.44 450.66 88.91
  A 0.64 0.64 0.0 0 1 449.94 89.36
  Q 447.46 88.92 445.06 88.92
  Q 442.66 88.91 440.18 89.34
  A 0.64 0.64 0.0 0 1 439.46 88.89
  Q 439.02 87.42 439.57 85.94
  A 1.34 1.32 83.6 0 1 440.08 85.29
  L 441.65 84.24
  A 1.03 1.02 -11.4 0 0 442.10 83.57
  Q 442.57 81.00 442.63 78.23
  Q 442.76 73.00 442.79 54.78
  Q 442.82 36.56 442.71 31.32
  Q 442.66 28.56 442.19 25.98
  A 1.03 1.02 11.6 0 0 441.75 25.31
  L 440.18 24.26
  A 1.34 1.32 -83.4 0 1 439.67 23.61
  Q 439.13 22.12 439.57 20.66
  A 0.64 0.64 0.0 0 1 440.30 20.21
  Q 442.77 20.64 445.17 20.65
  Z"
/>
<path fill="#474647" d="
  M 525.52 71.97
  L 525.78 72.16
  A 1.29 1.28 20.3 0 1 526.32 73.33
  L 524.60 90.46
  A 0.83 0.83 0.0 0 1 523.64 91.19
  Q 515.03 89.86 506.38 91.07
  A 0.73 0.73 0.0 0 1 505.58 90.57
  C 505.24 89.53 505.45 87.99 506.54 87.09
  Q 508.49 85.49 508.56 81.51
  Q 509.05 56.82 508.83 31.75
  Q 508.78 26.86 506.09 23.31
  Q 505.47 22.49 505.92 20.81
  A 0.46 0.45 7.4 0 1 506.36 20.48
  L 515.98 20.47
  A 0.59 0.57 -4.0 0 1 516.56 20.96
  C 516.91 23.35 515.65 24.24 514.45 25.87
  A 2.69 2.67 -21.1 0 0 513.96 26.96
  Q 513.42 29.59 513.41 32.51
  Q 513.38 56.36 513.44 82.33
  A 1.29 1.27 5.7 0 0 514.47 83.58
  C 523.48 85.39 523.45 78.58 524.48 72.40
  A 0.67 0.67 0.0 0 1 525.52 71.97
  Z"
/>
<path fill="#ffffff" d="
  M 260.82 25.15
  A 1.26 1.26 0.0 0 1 262.08 23.89
  L 263.00 23.90
  A 8.64 6.14 -89.9 0 1 269.12 32.55
  L 269.12 35.93
  A 8.64 6.14 -89.9 0 1 262.96 44.56
  L 262.04 44.55
  A 1.26 1.26 0.0 0 1 260.78 43.29
  L 260.82 25.15
  Z"
/>
<path fill="#ffffff" d="
  M 307.97 25.61
  A 1.26 1.26 0.0 0 1 309.23 24.36
  L 310.49 24.36
  A 7.84 5.16 -89.9 0 1 315.63 32.21
  L 315.63 37.31
  A 7.84 5.16 -89.9 0 1 310.45 45.14
  L 309.19 45.14
  A 1.26 1.26 0.0 0 1 307.93 43.87
  L 307.97 25.61
  Z"
/>
<ellipse fill="#ffffff" cx="0.00" cy="0.00" transform="translate(108.84,54.47) rotate(-90.5)" rx="29.25" ry="7.98"/>
<path fill="#ffffff" d="
  M 419.30 26.77
  Q 421.33 25.88 423.92 26.78
  C 433.51 30.11 431.88 60.73 431.00 68.50
  Q 430.50 72.93 429.04 76.55
  C 427.29 80.90 423.23 83.87 418.87 80.63
  A 1.17 1.15 18.6 0 1 418.40 79.70
  L 418.40 28.16
  A 1.52 1.52 0.0 0 1 419.30 26.77
  Z"
/>
<path fill="#ffffff" d="
  M 281.08 45.70
  L 284.29 29.24
  A 0.43 0.43 0.0 0 1 285.14 29.25
  L 287.77 45.81
  A 0.43 0.43 0.0 0 1 287.34 46.31
  L 281.50 46.21
  A 0.43 0.43 0.0 0 1 281.08 45.70
  Z"
/>
<path fill="#ffffff" d="
  M 335.22 50.35
  A 0.59 0.59 0.0 0 1 334.73 49.67
  L 337.87 30.61
  A 0.36 0.36 0.0 0 1 338.58 30.62
  L 341.28 50.65
  A 0.46 0.46 0.0 0 1 340.76 51.16
  L 335.22 50.35
  Z"
/>
<path fill="#ffffff" d="
  M 187.64 31.79
  L 190.68 52.08
  A 0.39 0.39 0.0 0 1 190.35 52.53
  L 184.28 53.44
  A 0.39 0.39 0.0 0 1 183.83 53.00
  L 186.87 31.80
  A 0.39 0.39 0.0 0 1 187.64 31.79
  Z"
/>
<path fill="#ffffff" d="
  M 50.12 33.84
  Q 50.54 33.85 50.54 34.26
  Q 50.51 35.99 53.35 58.81
  A 0.32 0.32 0.0 0 1 53.07 59.17
  Q 51.55 59.36 49.91 59.34
  Q 48.28 59.33 46.76 59.12
  A 0.32 0.32 0.0 0 1 46.49 58.76
  Q 49.67 35.98 49.67 34.25
  Q 49.67 33.84 50.12 33.84
  Z"
/>
<path fill="#ffffff" d="
  M 489.77 59.37
  Q 488.13 59.34 486.61 59.12
  A 0.32 0.32 0.0 0 1 486.34 58.75
  Q 489.71 36.00 489.72 34.26
  Q 489.73 33.85 490.17 33.86
  Q 490.60 33.87 490.59 34.28
  Q 490.55 36.01 493.21 58.86
  A 0.32 0.32 0.0 0 1 492.93 59.22
  Q 491.40 59.39 489.77 59.37
  Z"
/>
<path fill="#b37e2e" d="
  M 244.58 111.01
  Q 241.47 108.39 241.06 106.15
  Q 239.52 97.80 235.03 90.61
  A 0.32 0.32 0.0 0 1 235.26 90.13
  L 237.29 89.86
  Q 254.11 89.87 261.23 90.08
  Q 264.21 90.17 267.91 92.47
  L 270.84 95.02
  A 0.92 0.91 -65.0 0 0 272.34 94.47
  Q 273.24 88.78 272.69 83.41
  A 0.88 0.88 0.0 0 0 271.74 82.62
  Q 269.26 82.83 267.42 81.73
  C 261.17 76.19 266.61 66.63 274.04 70.59
  Q 279.58 73.55 276.43 79.71
  C 275.89 80.75 274.47 81.54 273.84 82.50
  A 0.78 0.75 -29.8 0 0 273.72 82.91
  L 273.72 93.53
  A 3.03 2.98 58.1 0 1 273.43 94.82
  L 272.68 96.44
  A 2.00 1.94 54.9 0 0 272.51 97.52
  Q 272.73 99.15 273.65 103.89
  C 274.58 108.74 272.33 111.71 268.64 115.28
  Q 264.30 119.48 262.32 123.40
  A 1.01 0.99 -54.1 0 0 262.50 124.56
  L 264.39 126.44
  A 0.97 0.97 0.0 0 1 263.70 128.09
  L 261.86 128.09
  A 1.89 1.88 4.0 0 0 259.99 129.70
  L 259.40 133.87
  A 1.04 1.02 -15.9 0 1 259.04 134.50
  Q 256.47 136.64 253.76 135.96
  C 250.30 135.08 244.74 132.54 244.01 128.52
  Q 243.76 127.16 243.15 126.48
  A 1.06 1.00 -1.7 0 0 242.97 126.32
  L 228.70 116.24
  A 0.60 0.60 0.0 0 1 229.05 115.15
  L 255.23 115.15
  A 0.61 0.61 0.0 0 0 255.68 114.13
  C 253.24 111.49 247.91 111.10 244.58 111.01
  Z
  M 271.5749 73.0719
  A 2.81 2.30 -46.2 0 0 267.9700 73.5081
  A 2.81 2.30 -46.2 0 0 267.6851 77.1281
  A 2.81 2.30 -46.2 0 0 271.2900 76.6919
  A 2.81 2.30 -46.2 0 0 271.5749 73.0719
  Z"
/>
<ellipse fill="#e1c892" cx="0.00" cy="0.00" transform="translate(269.63,75.10) rotate(-46.2)" rx="2.81" ry="2.30"/>
<path fill="#d4b067" d="
  M 267.91 92.47
  L 267.42 81.73
  Q 269.26 82.83 271.74 82.62
  A 0.88 0.88 0.0 0 1 272.69 83.41
  Q 273.24 88.78 272.34 94.47
  A 0.92 0.91 -65.0 0 1 270.84 95.02
  L 267.91 92.47
  Z"
/>
<path fill="#b37e2e" d="
  M 307.23 89.84
  L 301.79 100.82
  L 294.65 100.68
  A 0.49 0.49 0.0 0 1 294.17 100.19
  L 294.17 99.89
  A 0.25 0.25 0.0 0 1 294.42 99.64
  L 298.41 99.64
  A 0.57 0.57 0.0 0 0 298.94 98.87
  C 297.11 94.07 284.75 95.06 280.01 95.85
  Q 279.56 95.92 279.17 95.64
  A 0.67 0.67 0.0 0 1 279.14 94.59
  C 286.08 88.81 299.22 89.22 307.23 89.84
  Z"
/>
<path fill="#b37e2e" d="
  M 346.03 99.46
  L 343.34 98.99
  A 0.89 0.89 0.0 0 1 342.70 98.51
  L 338.27 89.99
  L 373.34 89.63
  A 0.43 0.42 33.5 0 1 373.51 90.45
  L 363.35 94.52
  A 0.60 0.42 10.3 0 0 363.24 94.57
  Q 355.25 98.90 346.03 99.46
  Z"
/>
<path fill="#d4b067" d="
  M 237.29 89.86
  L 235.26 90.13
  A 0.32 0.32 0.0 0 0 235.03 90.61
  Q 239.52 97.80 241.06 106.15
  Q 241.47 108.39 244.58 111.01
  L 226.32 110.73
  A 0.23 0.22 -90.0 0 1 226.10 110.50
  L 226.10 103.66
  A 0.27 0.27 0.0 0 1 226.37 103.39
  L 234.78 103.39
  A 0.70 0.70 0.0 0 0 235.26 102.18
  C 232.27 99.44 227.30 99.09 223.26 98.93
  Q 219.68 98.78 202.78 99.26
  Q 193.03 99.53 185.62 96.84
  Q 182.01 95.53 170.59 90.70
  A 0.49 0.49 0.0 0 1 170.78 89.76
  L 237.29 89.86
  Z"
/>
<path fill="#e1c892" d="
  M 338.27 89.99
  L 342.70 98.51
  A 0.89 0.89 0.0 0 0 343.34 98.99
  L 346.03 99.46
  Q 335.87 98.87 325.74 98.85
  C 322.53 98.84 319.50 99.50 317.29 101.41
  A 1.21 1.21 0.0 0 0 317.51 103.39
  Q 319.12 104.24 321.39 104.11
  A 1.30 1.29 -25.5 0 1 322.33 104.44
  C 323.48 105.44 325.43 107.44 326.78 105.71
  C 327.17 105.21 327.06 104.52 327.40 104.12
  A 0.82 0.81 21.7 0 1 328.06 103.84
  Q 334.11 104.14 339.76 103.13
  Q 340.97 102.92 341.84 103.13
  A 0.69 0.69 0.0 0 1 341.96 104.42
  Q 333.99 108.00 323.44 110.10
  Q 319.70 110.85 313.48 110.97
  Q 308.46 111.07 303.46 111.35
  Q 303.55 108.94 302.45 106.58
  L 307.28 106.38
  A 1.04 1.04 0.0 0 0 308.07 104.72
  Q 305.81 101.69 301.79 100.82
  L 307.23 89.84
  L 338.27 89.99
  Z"
/>
<path fill="#b37e2e" d="
  M 302.45 106.58
  Q 303.55 108.94 303.46 111.35
  Q 300.18 112.19 297.55 114.01
  A 0.67 0.66 27.7 0 0 297.93 115.22
  L 314.28 115.22
  A 0.40 0.40 0.0 0 1 314.50 115.95
  L 299.17 126.20
  A 1.97 1.93 -9.6 0 0 298.36 127.32
  L 297.71 129.77
  A 1.80 1.78 -14.5 0 1 297.21 130.61
  Q 291.54 136.01 284.18 137.28
  A 0.75 0.75 0.0 0 0 283.90 138.64
  C 287.21 140.81 289.08 143.59 285.97 147.16
  C 283.77 149.67 278.76 153.19 275.10 151.96
  A 1.02 1.01 42.4 0 1 275.01 150.07
  C 277.75 148.86 280.48 147.95 281.75 145.94
  A 2.54 2.53 42.4 0 0 281.61 143.03
  C 279.10 139.77 274.09 138.26 270.28 137.36
  A 2.96 2.88 67.6 0 1 269.26 136.92
  L 269.24 136.91
  A 0.51 0.51 0.0 0 1 269.50 135.98
  Q 275.87 135.73 282.07 133.70
  A 1.38 1.36 -2.5 0 0 282.97 132.73
  Q 283.35 131.17 282.77 128.79
  L 290.48 126.22
  A 0.39 0.38 45.1 0 0 290.48 125.49
  Q 287.60 124.51 284.43 124.99
  Q 282.76 125.24 281.85 128.30
  Q 279.92 129.03 277.69 128.47
  A 1.21 1.21 0.0 0 1 276.78 127.12
  C 277.14 124.83 279.62 124.23 281.86 123.59
  A 1.45 1.44 -8.0 0 0 282.91 122.20
  L 282.91 111.73
  A 0.94 0.92 80.3 0 1 283.52 110.85
  C 289.61 108.63 295.79 106.53 302.45 106.58
  Z"
/>
<path fill="#e1c892" d="
  M 271.96 118.33
  A 0.97 0.97 0.0 0 1 273.67 118.96
  L 273.67 131.47
  A 1.95 1.95 0.0 0 1 271.31 133.38
  L 270.76 133.27
  A 3.13 3.13 0.0 0 1 268.29 130.21
  L 268.29 122.93
  A 0.82 0.79 65.3 0 1 268.47 122.42
  L 271.96 118.33
  Z"
/>
<path fill="#e1c892" d="
  M 282.77 128.79
  Q 282.49 128.31 281.85 128.30
  Q 282.76 125.24 284.43 124.99
  Q 287.60 124.51 290.48 125.49
  A 0.39 0.38 45.1 0 1 290.48 126.22
  L 282.77 128.79
  Z"
/>
<path fill="#b37e2e" d="
  M 264.48 150.25
  A 0.37 0.37 0.0 0 1 264.26 150.90
  C 258.36 151.16 249.92 143.49 257.54 138.67
  A 0.97 0.95 29.2 0 1 258.09 138.52
  L 262.63 138.71
  A 0.83 0.82 -63.7 0 1 263.12 140.17
  Q 262.66 140.54 261.22 141.54
  C 256.86 144.57 261.79 148.01 264.48 150.25
  Z"
/>
<path fill="#d4b067" d="
  M 273.32 149.09
  A 0.87 0.87 0.0 0 1 272.50 150.00
  L 271.76 150.04
  A 2.83 2.57 87.1 0 1 269.05 147.34
  L 268.82 142.83
  A 2.83 2.57 87.1 0 1 271.24 139.87
  L 271.98 139.83
  A 0.87 0.87 0.0 0 1 272.89 140.66
  L 273.32 149.09
  Z"
/>
<path fill="#b37e2e" d="
  M 271.48 154.30
  Q 270.52 153.88 269.79 153.02
  A 0.40 0.40 0.0 0 1 270.16 152.36
  C 280.12 153.94 286.19 160.22 275.73 168.24
  A 1.32 1.32 0.0 0 1 273.81 167.88
  L 273.78 167.82
  A 1.50 1.50 0.0 0 1 274.24 165.78
  Q 276.65 164.22 277.99 161.69
  A 2.61 2.59 -47.4 0 0 277.89 159.06
  Q 276.14 156.32 271.48 154.30
  Z"
/>
<path fill="#b37e2e" d="
  M 265.80 166.17
  A 0.41 0.41 0.0 0 1 265.18 166.70
  L 261.88 163.96
  A 1.49 1.38 -83.3 0 1 261.46 163.38
  Q 259.34 157.99 263.89 154.40
  A 2.38 2.36 -50.5 0 1 266.42 154.15
  L 267.29 154.59
  A 1.05 1.04 -48.3 0 1 267.39 156.39
  L 265.23 157.84
  A 1.43 1.35 -87.4 0 0 264.87 158.19
  Q 263.39 160.22 264.10 163.21
  A 2.06 1.87 25.6 0 0 264.34 163.80
  L 265.80 166.17
  Z"
/>
<path fill="#d4b067" d="
  M 272.92 165.78
  A 0.17 0.17 0.0 0 1 272.76 165.96
  L 272.70 165.96
  A 2.84 2.61 86.3 0 1 269.92 163.30
  L 269.65 159.17
  A 2.84 2.61 86.3 0 1 272.07 156.16
  L 272.13 156.16
  A 0.17 0.17 0.0 0 1 272.31 156.32
  L 272.92 165.78
  Z"
/>
<path fill="#b37e2e" d="
  M 272.01 169.41
  C 278.29 170.90 280.73 176.40 275.06 180.96
  A 0.94 0.94 0.0 0 1 273.63 180.66
  L 273.56 180.52
  A 1.49 1.48 -33.1 0 1 273.95 178.69
  Q 276.42 176.69 275.88 174.60
  A 1.16 1.14 15.2 0 0 275.56 174.05
  L 271.51 170.36
  A 0.56 0.55 72.8 0 1 272.01 169.41
  Z"
/>
<path fill="#b37e2e" d="
  M 266.74 179.36
  A 0.30 0.30 0.0 0 1 266.29 179.74
  C 262.29 176.31 263.04 172.31 267.49 169.86
  A 0.47 0.47 0.0 0 1 268.18 170.25
  C 268.38 174.11 263.53 174.21 266.74 179.36
  Z"
/>
<path fill="#b37e2e" d="
  M 271.59 182.27
  Q 276.86 184.43 275.22 190.18
  Q 274.63 192.25 273.16 193.32
  A 0.51 0.51 0.0 0 1 272.37 192.76
  Q 273.25 189.92 273.11 186.37
  A 2.54 2.44 33.2 0 0 272.91 185.50
  Q 272.32 184.06 271.18 182.86
  A 0.37 0.37 0.0 0 1 271.59 182.27
  Z"
/>
<path fill="#b37e2e" d="
  M 271.53 199.33
  L 271.25 197.46
  A 1.48 1.47 -68.5 0 0 270.97 196.81
  L 267.92 192.94
  A 2.20 1.72 -83.0 0 1 267.71 192.59
  Q 265.83 188.61 266.95 184.57
  A 1.55 1.52 -9.6 0 1 267.58 183.70
  L 268.12 183.34
  A 0.40 0.40 0.0 0 1 268.73 183.75
  C 268.22 186.36 267.60 188.18 268.32 191.03
  A 2.87 2.68 22.5 0 0 268.72 191.91
  C 270.40 194.33 272.75 197.17 271.96 199.37
  A 0.22 0.22 0.0 0 1 271.53 199.33
  Z"
/>
</svg>
