<svg version="1.0" xmlns="http://www.w3.org/2000/svg" width="538.000000pt" height="217.000000pt" viewBox="0 0 538.000000 217.000000" preserveAspectRatio="xMidYMid meet">
<g transform="translate(0.000000,217.000000) scale(0.100000,-0.100000)" fill="currentColor" stroke="none">
<path d="M1048 1963 c-56 -64 -83 -176 -82 -348 1 -249 63 -384 153 -334 29 16 65 96 82 181 6 29 11 107 10 173 0 198 -51 345 -120 345 -15 0 -35 -8 -43 -17z m71 -69 c37 -47 46 -100 46 -279 0 -141 -3 -178 -18 -218 -20 -50 -45 -71 -72 -61 -41 16 -68 132 -68 299 0 136 15 222 44 259 26 33 42 33 68 0z"/>
<path d="M4623 1958 c-57 -63 -83 -168 -83 -344 0 -189 32 -309 95 -350 21 -14 30 -14 55 -4 42 17 48 28 54 100 5 55 4 61 -5 35 -17 -45 -40 -66 -67 -63 -63 8 -96 132 -90 339 4 119 7 142 29 185 41 83 98 68 125 -33 l13 -48 0 82 c1 77 -1 83 -25 102 -35 27 -75 27 -101 -1z"/>
<path d="M495 1958 c-2 -7 -15 -98 -30 -203 -44 -323 -57 -399 -71 -434 -20 -48 -18 -51 26 -51 43 0 50 12 24 41 -14 15 -14 29 -5 105 6 48 12 88 13 89 14 10 69 12 82 2 21 -16 36 -190 17 -201 -6 -4 -11 -14 -11 -22 0 -10 12 -14 44 -14 50 0 65 13 43 38 -16 18 -34 134 -83 521 -8 69 -17 128 -20 133 -8 12 -24 10 -29 -4z m15 -145 c1 -5 7 -57 14 -118 8 -60 12 -113 10 -117 -7 -10 -61 -10 -68 0 -2 4 2 55 9 112 8 58 15 111 15 118 0 13 20 17 20 5z"/>
<path d="M1865 1948 c-2 -13 -16 -93 -30 -178 -14 -85 -33 -198 -41 -250 -9 -52 -22 -105 -30 -117 -21 -34 -17 -43 21 -43 38 0 59 25 35 40 -14 9 -15 94 -2 145 7 24 16 32 45 39 47 12 54 6 66 -69 7 -47 6 -66 -5 -89 -17 -36 -15 -39 28 -31 54 10 65 20 46 42 -20 23 -21 31 -57 268 -17 110 -33 215 -36 233 -7 37 -32 43 -40 10z m31 -200 c7 -51 10 -96 6 -100 -4 -4 -19 -10 -34 -13 -26 -7 -28 -5 -28 26 0 36 17 154 26 178 9 26 17 1 30 -91z"/>
<path d="M2033 1957 c-3 -5 2 -14 11 -19 14 -8 16 -36 16 -231 0 -179 -3 -228 -15 -251 -9 -16 -13 -31 -11 -33 8 -8 76 9 76 19 0 5 -7 16 -15 24 -12 13 -15 48 -15 186 0 109 4 168 10 166 8 -2 128 -281 147 -340 3 -10 12 -18 19 -18 12 0 14 41 14 228 0 185 3 232 15 248 21 28 19 33 -19 31 -43 -3 -51 -10 -31 -27 12 -10 15 -41 15 -166 0 -85 -4 -154 -9 -154 -7 0 -117 264 -135 326 -5 15 -15 21 -37 21 -16 0 -33 -5 -36 -10z"/>
<path d="M2540 1963 c0 -5 7 -17 15 -27 22 -29 22 -388 0 -410 -23 -23 -19 -26 37 -26 51 0 51 0 33 20 -14 16 -19 37 -19 93 l-1 71 37 7 c20 3 44 11 52 18 25 21 38 79 34 147 -6 92 -29 114 -120 114 -37 0 -68 -3 -68 -7z m134 -55 c22 -33 28 -98 13 -138 -14 -41 -62 -65 -77 -40 -11 17 -13 183 -3 193 14 15 53 6 67 -15z"/>
<path d="M2822 1878 c-11 -51 -32 -147 -46 -212 -14 -66 -33 -127 -41 -136 -23 -25 -19 -30 25 -30 39 0 52 12 29 26 -14 9 -5 109 12 130 15 18 63 18 82 0 23 -23 31 -115 12 -135 -8 -10 -12 -21 -8 -24 9 -10 96 -9 91 1 -2 4 -9 18 -16 32 -7 14 -29 117 -50 230 -29 160 -41 205 -53 208 -13 2 -21 -17 -37 -90z m47 -83 c7 -41 10 -79 6 -85 -8 -12 -52 -13 -59 -1 -10 16 17 161 29 161 7 0 17 -31 24 -75z"/>
<path d="M3010 1961 c0 -5 7 -14 15 -21 23 -19 22 -401 -1 -424 -22 -23 -9 -36 37 -36 39 0 47 7 30 26 -8 7 -16 118 -12 162 1 6 10 12 20 12 15 0 23 -13 36 -57 28 -102 50 -156 65 -163 20 -10 132 -31 138 -26 2 2 -3 15 -12 28 -13 20 -14 35 -6 83 12 73 18 80 67 68 31 -7 39 -14 44 -38 11 -49 10 -135 -1 -135 -17 0 -11 -28 8 -34 41 -11 82 -17 82 -11 0 3 -7 16 -15 29 -8 12 -30 122 -50 252 -19 126 -38 244 -41 262 -4 24 -10 32 -21 30 -13 -2 -23 -37 -44 -153 -47 -250 -62 -315 -75 -333 -23 -31 -47 -1 -85 109 l-36 104 23 44 c38 71 31 164 -16 211 -16 16 -33 20 -85 20 -36 0 -65 -4 -65 -9z m116 -39 c21 -14 34 -51 34 -101 0 -70 -16 -101 -52 -101 -15 0 -28 6 -29 13 -1 11 0 174 1 190 0 9 32 9 46 -1z m278 -158 c7 -49 11 -92 9 -96 -7 -13 -61 -9 -65 4 -5 14 18 164 27 179 11 17 15 5 29 -87z"/>
<path d="M3553 1957 c-3 -5 3 -17 12 -27 15 -17 16 -38 6 -250 -8 -186 -13 -237 -26 -257 -19 -29 -13 -38 33 -46 36 -7 40 2 16 38 -14 21 -15 48 -9 200 7 166 17 215 30 143 24 -142 55 -346 55 -365 0 -13 4 -23 9 -23 4 0 16 48 26 108 40 251 51 307 60 305 6 -2 11 -82 13 -194 2 -169 0 -194 -15 -211 -20 -23 -10 -34 39 -41 44 -7 57 7 33 33 -14 16 -17 55 -22 282 -5 237 -4 264 11 277 25 21 19 31 -19 31 -28 0 -36 -4 -39 -22 -5 -25 -31 -179 -50 -292 -6 -38 -16 -71 -22 -73 -8 -3 -21 57 -39 174 -14 98 -28 187 -31 199 -3 16 -11 21 -35 20 -17 -1 -33 -5 -36 -9z"/>
<path d="M3883 1953 c-3 -6 3 -23 12 -37 15 -22 16 -55 13 -278 -2 -201 -6 -258 -18 -275 -8 -12 -12 -25 -9 -28 9 -8 169 -26 179 -20 6 4 10 30 10 58 -1 44 -2 49 -12 32 -16 -28 -28 -35 -63 -35 -50 0 -55 13 -55 136 0 87 3 113 14 117 17 7 56 -2 74 -16 9 -7 12 1 12 36 l0 45 -30 -11 c-53 -20 -65 -4 -68 99 -4 121 0 134 42 134 32 0 57 -18 69 -50 3 -8 6 11 6 42 l1 57 -86 3 c-60 2 -88 -1 -91 -9z"/>
<path d="M4158 1963 c-52 -4 -55 -8 -33 -37 23 -31 22 -552 -1 -585 -22 -30 -11 -38 66 -45 58 -6 69 -5 92 14 49 38 71 118 76 278 5 155 -6 239 -40 310 -20 43 -62 74 -95 70 -10 -1 -39 -3 -65 -5z m107 -77 c35 -35 47 -87 52 -237 9 -234 -30 -328 -121 -293 -14 5 -16 39 -16 273 0 147 3 271 7 274 14 15 55 6 78 -17z"/>
<path d="M4896 1958 c-3 -7 -17 -98 -31 -203 -43 -308 -63 -423 -80 -448 -18 -29 -12 -37 31 -37 41 0 51 15 29 40 -16 18 -17 28 -6 107 6 47 16 90 23 95 14 9 68 2 81 -11 14 -14 21 -187 8 -195 -6 -4 -11 -14 -11 -22 0 -10 12 -14 45 -14 37 0 45 3 45 18 0 10 -4 22 -10 28 -10 10 -36 181 -65 434 -9 80 -19 160 -23 179 -8 36 -29 53 -36 29z m18 -180 c3 -24 10 -76 15 -117 5 -41 8 -78 5 -83 -7 -11 -61 -10 -68 1 -3 5 1 55 9 112 8 57 15 110 15 117 0 6 4 12 9 12 6 0 12 -19 15 -42z"/>
<path d="M180 1942 c0 -10 6 -24 13 -31 19 -19 12 -577 -9 -609 -8 -12 -13 -26 -10 -30 2 -4 44 -5 92 -2 l88 5 3 40 c2 22 5 58 7 80 3 34 3 36 -6 15 -27 -70 -32 -75 -73 -75 l-40 0 -3 274 c-2 228 0 278 13 304 22 44 20 47 -30 47 -37 0 -45 -3 -45 -18z"/>
<path d="M660 1952 c0 -5 7 -17 15 -28 22 -29 22 -580 -1 -612 -21 -30 -11 -40 36 -38 50 3 56 9 36 38 -13 18 -16 49 -16 149 0 123 1 127 23 133 29 8 71 8 91 0 23 -9 24 -240 1 -270 -25 -33 -18 -44 28 -44 54 0 60 6 39 38 -15 23 -17 60 -17 309 0 212 3 285 13 295 25 25 13 38 -33 38 -50 0 -52 -3 -30 -48 12 -23 15 -57 13 -139 l-3 -108 -62 -3 -63 -3 0 124 c0 99 3 127 15 137 30 25 17 40 -35 40 -27 0 -50 -4 -50 -8z"/>
<path d="M1250 1946 c0 -7 7 -20 16 -27 14 -12 16 -46 13 -291 -3 -204 -7 -280 -16 -290 -25 -24 -15 -38 27 -38 43 0 53 17 25 40 -12 10 -15 49 -15 232 0 120 4 217 8 214 4 -2 41 -111 82 -240 46 -148 79 -236 87 -236 10 0 13 61 13 298 0 247 3 302 15 318 22 29 18 34 -25 34 -43 0 -53 -17 -25 -40 12 -10 15 -47 15 -212 0 -123 -4 -197 -9 -193 -9 5 -91 251 -127 383 -17 60 -18 62 -51 62 -21 0 -33 -5 -33 -14z"/>
</g>
</svg>
