<?xml version="1.0" encoding="UTF-8" standalone="no"?>
<svg xmlns="http://www.w3.org/2000/svg" version="1.2" baseProfile="tiny" viewBox="0.00 0.00 182.00 207.00">
<path fill="#08090a" d="
  M 93.31 14.70
  Q 95.93 14.77 96.05 14.79
  A 0.76 0.74 -18.5 0 1 96.45 14.98
  Q 96.72 15.23 96.64 15.68
  A 0.69 0.69 0.0 0 1 95.94 16.24
  L 94.80 16.21
  A 0.64 0.64 0.0 0 0 94.15 16.84
  L 94.01 22.32
  A 0.31 0.29 -31.5 0 1 93.96 22.49
  Q 93.67 22.99 93.07 22.97
  Q 92.52 22.95 92.25 22.44
  A 0.31 0.29 34.5 0 1 92.21 22.27
  L 92.36 16.80
  A 0.64 0.64 0.0 0 0 91.74 16.13
  L 90.61 16.10
  A 0.69 0.69 0.0 0 1 89.94 15.50
  Q 89.88 15.05 90.16 14.82
  A 0.76 0.74 21.6 0 1 90.58 14.64
  Q 90.70 14.63 93.31 14.70
  Z"
/>
<path fill="#08090a" d="
  M 84.70 18.08
  A 0.59 0.58 -7.5 0 1 85.36 18.58
  L 85.40 18.87
  A 0.68 0.68 0.0 0 1 84.80 19.64
  L 82.57 19.93
  A 0.57 0.56 83.1 0 0 82.08 20.57
  L 82.37 22.77
  A 0.80 0.79 -7.2 0 1 81.68 23.65
  L 81.41 23.69
  A 0.73 0.72 82.6 0 1 80.60 23.07
  L 79.72 16.11
  A 0.72 0.71 82.9 0 1 80.34 15.31
  L 84.79 14.73
  A 0.72 0.71 32.7 0 1 85.09 16.12
  Q 84.34 16.35 82.38 16.58
  A 0.93 0.92 -6.8 0 0 81.57 17.60
  L 81.57 17.63
  A 0.89 0.88 82.1 0 0 82.57 18.39
  L 84.70 18.08
  Z"
/>
<path fill="#08090a" d="
  M 111.59 26.34
  Q 110.25 26.16 110.20 24.74
  A 1.10 1.07 -77.3 0 0 109.65 23.84
  Q 107.23 22.48 106.32 23.96
  A 0.90 0.90 0.0 0 1 105.41 24.39
  L 102.90 23.98
  A 1.09 1.07 -5.6 0 1 102.06 23.30
  Q 101.26 21.26 100.21 20.10
  A 0.58 0.57 -61.7 0 0 99.22 20.40
  L 98.85 22.69
  A 0.77 0.76 -81.0 0 1 97.98 23.33
  L 97.62 23.27
  A 0.56 0.55 9.4 0 1 97.16 22.64
  L 98.33 15.36
  A 0.51 0.51 0.0 0 1 98.91 14.94
  L 103.09 15.61
  A 0.94 0.90 68.0 0 1 103.49 15.79
  Q 106.39 18.02 102.86 20.15
  A 0.34 0.34 0.0 0 0 102.74 20.61
  L 104.37 23.43
  A 0.21 0.20 47.8 0 0 104.71 23.45
  L 109.11 17.68
  A 1.26 1.26 0.0 0 1 111.37 18.32
  L 112.12 25.82
  A 0.48 0.48 0.0 0 1 111.59 26.34
  Z
  M 99.5087 17.6752
  A 1.76 1.06 -174.3 0 0 101.1547 18.9048
  A 1.76 1.06 -174.3 0 0 103.0113 18.0248
  A 1.76 1.06 -174.3 0 0 101.3653 16.7952
  A 1.76 1.06 -174.3 0 0 99.5087 17.6752
  Z
  M 109.25 20.03
  L 108.42 21.11
  A 0.58 0.58 0.0 0 0 108.79 22.04
  L 109.50 22.15
  A 0.42 0.42 0.0 0 0 109.99 21.69
  L 109.84 20.20
  A 0.33 0.33 0.0 0 0 109.25 20.03
  Z"
/>
<path fill="#08090a" d="
  M 74.1473 16.2080
  A 4.41 4.05 -99.3 0 1 78.8568 19.9055
  A 4.41 4.05 -99.3 0 1 75.5727 24.9120
  A 4.41 4.05 -99.3 0 1 70.8632 21.2145
  A 4.41 4.05 -99.3 0 1 74.1473 16.2080
  Z
  M 74.2027 17.8582
  A 2.83 2.26 -102.6 0 0 72.6144 21.1130
  A 2.83 2.26 -102.6 0 0 75.4373 23.3818
  A 2.83 2.26 -102.6 0 0 77.0256 20.1270
  A 2.83 2.26 -102.6 0 0 74.2027 17.8582
  Z"
/>
<path fill="#08090a" d="
  M 62.47 20.43
  Q 64.88 19.36 65.00 19.32
  A 0.77 0.75 -43.9 0 1 65.46 19.33
  Q 65.81 19.44 65.92 19.89
  A 0.70 0.70 0.0 0 1 65.53 20.70
  L 64.48 21.16
  A 0.65 0.65 0.0 0 0 64.15 22.02
  L 66.39 27.08
  A 0.31 0.30 -56.8 0 1 66.43 27.25
  Q 66.37 27.84 65.82 28.08
  Q 65.31 28.31 64.84 27.95
  A 0.31 0.30 9.2 0 1 64.73 27.81
  L 62.51 22.75
  A 0.65 0.65 0.0 0 0 61.65 22.41
  L 60.60 22.87
  A 0.70 0.70 0.0 0 1 59.73 22.62
  Q 59.48 22.23 59.64 21.90
  A 0.77 0.75 -3.8 0 1 59.94 21.56
  Q 60.05 21.50 62.47 20.43
  Z"
/>
<path fill="#08090a" d="
  M 118.09 24.18
  Q 118.16 24.79 118.19 24.95
  A 0.32 0.32 0.0 0 0 118.80 25.03
  L 120.22 21.84
  A 0.66 0.66 0.0 0 1 121.08 21.51
  L 121.34 21.63
  A 0.69 0.69 0.0 0 1 121.69 22.53
  L 118.97 28.67
  A 0.96 0.96 0.0 0 1 117.16 28.53
  Q 116.88 27.53 116.45 24.41
  Q 116.37 23.81 116.34 23.64
  A 0.32 0.32 0.0 0 0 115.73 23.56
  L 114.31 26.76
  A 0.66 0.66 0.0 0 1 113.44 27.09
  L 113.18 26.97
  A 0.69 0.69 0.0 0 1 112.84 26.07
  L 115.56 19.93
  A 0.96 0.96 0.0 0 1 117.37 20.07
  Q 117.64 21.06 118.09 24.18
  Z"
/>
<path fill="#08090a" d="
  M 56.70 28.59
  Q 56.16 28.30 56.01 28.23
  A 0.32 0.32 0.0 0 0 55.59 28.67
  L 57.33 31.68
  A 0.66 0.65 -30.1 0 1 57.09 32.57
  L 56.84 32.71
  A 0.68 0.68 0.0 0 1 55.91 32.46
  L 52.57 26.68
  A 0.96 0.96 0.0 0 1 53.74 25.31
  Q 54.70 25.67 57.47 27.14
  Q 58.00 27.44 58.14 27.51
  A 0.32 0.32 0.0 0 0 58.57 27.07
  L 56.83 24.06
  A 0.66 0.65 -30.1 0 1 57.07 23.17
  L 57.32 23.03
  A 0.68 0.68 0.0 0 1 58.25 23.28
  L 61.59 29.06
  A 0.96 0.96 0.0 0 1 60.42 30.43
  Q 59.46 30.07 56.70 28.59
  Z"
/>
<path fill="#08090a" d="
  M 124.41 26.05
  Q 124.42 26.08 124.90 26.61
  Q 126.78 28.68 126.98 29.05
  A 1.28 1.25 -49.4 0 1 127.05 30.09
  C 125.55 34.10 120.56 31.52 120.69 28.25
  A 0.64 0.64 0.0 0 1 121.43 27.64
  L 121.75 27.70
  A 0.55 0.53 -88.8 0 1 122.20 28.19
  Q 122.39 30.37 124.20 30.61
  A 0.85 0.85 0.0 0 0 124.91 29.16
  C 123.76 28.02 122.08 26.45 122.75 24.96
  A 2.23 2.23 0.0 0 1 125.29 23.71
  Q 128.40 24.46 128.51 27.16
  A 0.69 0.69 0.0 0 1 127.23 27.53
  L 126.06 25.48
  A 0.89 0.89 0.0 0 0 124.41 26.05
  Z"
/>
<path fill="#08090a" d="
  M 45.65 30.83
  L 50.09 27.42
  A 0.32 0.32 0.0 0 1 50.54 27.47
  L 51.09 28.20
  A 0.32 0.32 0.0 0 1 51.04 28.65
  L 47.91 31.05
  A 0.32 0.32 0.0 0 0 47.85 31.49
  L 48.53 32.37
  A 0.32 0.32 0.0 0 0 48.97 32.43
  L 51.85 30.23
  A 0.32 0.32 0.0 0 1 52.30 30.28
  L 52.83 30.98
  A 0.32 0.32 0.0 0 1 52.77 31.42
  L 49.91 33.61
  A 0.32 0.32 0.0 0 0 49.86 34.06
  L 50.74 35.22
  A 0.32 0.32 0.0 0 0 51.19 35.27
  L 54.44 32.78
  A 0.32 0.32 0.0 0 1 54.89 32.83
  L 55.42 33.53
  A 0.32 0.32 0.0 0 1 55.36 33.97
  L 50.77 37.50
  A 0.32 0.32 0.0 0 1 50.33 37.44
  L 45.59 31.28
  A 0.32 0.32 0.0 0 1 45.65 30.83
  Z"
/>
<path fill="#08090a" d="
  M 128.98 32.99
  L 127.95 34.30
  A 0.96 0.96 0.0 0 1 126.76 34.56
  L 126.73 34.54
  A 0.81 0.80 -55.6 0 1 126.52 33.37
  L 130.76 27.82
  A 0.66 0.66 0.0 0 1 131.75 27.75
  C 133.03 29.03 137.72 31.30 133.84 34.00
  A 2.25 2.16 45.6 0 1 131.26 33.92
  Q 130.26 33.17 130.02 32.93
  A 0.70 0.70 0.0 0 0 128.98 32.99
  Z
  M 130.7410 30.3133
  A 1.52 1.19 -146.6 0 0 131.3549 32.1435
  A 1.52 1.19 -146.6 0 0 133.2790 31.9867
  A 1.52 1.19 -146.6 0 0 132.6651 30.1565
  A 1.52 1.19 -146.6 0 0 130.7410 30.3133
  Z"
/>
<path fill="#184278" d="
  M 59.14 38.03
  A 0.24 0.23 -68.4 0 1 58.96 37.60
  C 88.55 18.61 126.50 29.01 142.03 60.78
  Q 149.93 76.93 139.63 91.04
  Q 133.15 99.91 123.53 99.67
  C 112.79 99.41 103.57 91.41 101.91 80.67
  Q 101.68 79.21 102.22 72.33
  C 103.50 55.78 95.91 41.87 78.96 37.85
  Q 68.74 35.42 59.14 38.03
  Z"
/>
<path fill="#08090a" d="
  M 46.65 41.34
  Q 46.41 41.59 46.10 41.63
  C 45.55 41.72 43.69 40.43 41.47 39.12
  A 0.16 0.16 0.0 0 0 41.28 39.37
  L 44.50 42.55
  A 0.70 0.70 0.0 0 1 44.48 43.57
  L 44.43 43.62
  A 0.80 0.80 0.0 0 1 43.33 43.60
  L 38.82 39.16
  A 1.42 1.42 0.0 0 1 40.54 36.92
  Q 44.04 38.98 44.16 38.86
  Q 44.32 38.70 42.23 35.22
  A 1.42 1.42 0.0 0 1 44.45 33.48
  L 48.93 37.96
  A 0.80 0.80 0.0 0 1 48.95 39.06
  L 48.90 39.11
  A 0.70 0.70 0.0 0 1 47.89 39.14
  L 44.68 35.94
  A 0.16 0.16 0.0 0 0 44.43 36.14
  C 45.76 38.35 47.06 40.20 46.98 40.75
  Q 46.94 41.06 46.65 41.34
  Z"
/>
<path fill="#08090a" d="
  M 140.8160 35.4090
  A 3.58 3.58 0.0 0 1 140.7453 40.4714
  L 139.9423 41.2522
  A 3.58 3.58 0.0 0 1 134.8799 41.1815
  L 134.3640 40.6510
  A 3.58 3.58 0.0 0 1 134.4347 35.5886
  L 135.2377 34.8078
  A 3.58 3.58 0.0 0 1 140.3001 34.8785
  L 140.8160 35.4090
  Z
  M 139.4325 36.0753
  A 2.75 2.24 -46.8 0 0 135.9171 36.5466
  A 2.75 2.24 -46.8 0 0 135.6675 40.0847
  A 2.75 2.24 -46.8 0 0 139.1829 39.6134
  A 2.75 2.24 -46.8 0 0 139.4325 36.0753
  Z"
/>
<path fill="#184278" d="
  M 65.74 135.34
  A 0.24 0.23 -8.4 0 1 65.46 135.71
  C 34.29 119.57 24.39 81.56 44.14 52.30
  Q 54.18 37.43 71.51 39.31
  Q 82.41 40.50 87.00 48.94
  C 92.12 58.36 89.79 70.32 81.33 77.11
  Q 80.18 78.03 73.96 80.99
  C 59.01 88.13 50.75 101.62 55.71 118.29
  Q 58.70 128.34 65.74 135.34
  Z"
/>
<path fill="#08090a" d="
  M 41.29 47.15
  Q 40.95 47.60 40.36 47.51
  A 0.32 0.30 -19.8 0 1 40.20 47.44
  L 35.76 44.06
  A 0.66 0.66 0.0 0 0 34.84 44.18
  L 34.14 45.10
  A 0.70 0.70 0.0 0 1 33.25 45.30
  Q 32.84 45.08 32.81 44.71
  A 0.77 0.76 -32.8 0 1 32.91 44.26
  Q 32.98 44.16 34.59 42.03
  Q 36.20 39.91 36.28 39.82
  A 0.77 0.76 -72.9 0 1 36.69 39.60
  Q 37.05 39.53 37.38 39.86
  A 0.70 0.70 0.0 0 1 37.42 40.77
  L 36.73 41.70
  A 0.66 0.66 0.0 0 0 36.86 42.61
  L 41.31 45.98
  A 0.32 0.30 -85.8 0 1 41.42 46.12
  Q 41.66 46.66 41.29 47.15
  Z"
/>
<path fill="#08090a" d="
  M 143.29 49.74
  A 0.56 0.56 0.0 0 1 142.29 49.99
  L 141.94 49.53
  A 0.72 0.71 30.8 0 1 141.79 48.97
  L 142.43 45.00
  A 0.67 0.67 0.0 0 0 141.36 44.36
  L 139.71 45.62
  A 0.73 0.72 -37.5 0 1 138.69 45.49
  L 138.48 45.22
  A 0.68 0.67 -37.4 0 1 138.61 44.28
  L 144.19 39.99
  A 0.59 0.58 -39.7 0 1 144.98 40.06
  Q 146.65 41.98 147.72 43.76
  C 148.86 45.66 146.27 47.30 144.51 46.56
  A 0.57 0.56 15.8 0 0 143.73 46.99
  L 143.29 49.74
  Z
  M 144.8306 42.4996
  A 0.90 0.90 0.0 0 0 143.5665 42.3511
  L 143.4567 42.4379
  A 0.90 0.90 0.0 0 0 143.3082 43.7020
  L 144.3494 45.0204
  A 0.90 0.90 0.0 0 0 145.6135 45.1689
  L 145.7233 45.0821
  A 0.90 0.90 0.0 0 0 145.8718 43.8180
  L 144.8306 42.4996
  Z"
/>
<path fill="#08090a" d="
  M 151.22 49.33
  Q 152.55 51.60 152.60 51.71
  A 0.77 0.75 39.5 0 1 152.65 52.17
  Q 152.58 52.53 152.15 52.69
  A 0.69 0.69 0.0 0 1 151.30 52.40
  L 150.72 51.41
  A 0.65 0.65 0.0 0 0 149.83 51.19
  L 145.08 53.99
  A 0.31 0.29 26.5 0 1 144.91 54.05
  Q 144.33 54.06 144.05 53.58
  Q 143.74 53.06 144.04 52.56
  A 0.31 0.29 -87.5 0 1 144.16 52.43
  L 148.92 49.64
  A 0.65 0.65 0.0 0 0 149.16 48.75
  L 148.58 47.77
  A 0.69 0.69 0.0 0 1 148.73 46.88
  Q 149.08 46.59 149.43 46.70
  A 0.77 0.75 79.5 0 1 149.81 46.96
  Q 149.88 47.06 151.22 49.33
  Z"
/>
<path fill="#08090a" d="
  M 38.53 49.67
  A 0.56 0.56 0.0 0 1 39.12 50.52
  L 38.81 51.01
  A 0.73 0.71 -79.7 0 1 38.34 51.35
  L 34.38 52.14
  A 0.67 0.67 0.0 0 0 34.15 53.37
  L 35.91 54.48
  A 0.73 0.72 32.0 0 1 36.15 55.49
  L 35.97 55.78
  A 0.68 0.67 32.2 0 1 35.04 55.99
  L 29.05 52.25
  A 0.59 0.58 29.8 0 1 28.83 51.48
  Q 30.05 49.23 31.35 47.60
  C 32.74 45.86 35.19 47.72 35.11 49.64
  A 0.57 0.56 85.4 0 0 35.79 50.22
  L 38.53 49.67
  Z
  M 33.1235 48.8553
  A 1.75 1.02 -59.3 0 0 31.3530 49.8392
  A 1.75 1.02 -59.3 0 0 31.3365 51.8647
  A 1.75 1.02 -59.3 0 0 33.1070 50.8808
  A 1.75 1.02 -59.3 0 0 33.1235 48.8553
  Z"
/>
<path fill="#08090a" d="
  M 154.61 55.57
  Q 154.76 55.90 154.75 56.24
  Q 154.75 56.62 154.52 56.88
  Q 152.03 59.63 149.46 62.31
  A 0.75 0.75 0.0 0 1 148.19 61.61
  Q 148.35 60.91 148.83 60.46
  A 1.08 1.07 -31.6 0 0 149.11 59.30
  Q 148.93 58.83 148.72 58.38
  Q 148.50 57.91 148.25 57.49
  A 1.08 1.07 -19.3 0 0 147.16 56.97
  Q 146.51 57.05 145.87 56.74
  A 0.75 0.75 0.0 0 1 146.13 55.32
  Q 149.83 55.01 153.53 54.81
  Q 153.88 54.80 154.18 55.03
  Q 154.45 55.24 154.61 55.57
  Z
  M 149.97 57.80
  Q 150.11 58.09 150.16 58.16
  A 0.54 0.53 53.4 0 0 150.88 58.27
  Q 152.43 57.21 152.24 56.79
  Q 152.05 56.37 150.23 56.81
  A 0.54 0.53 78.7 0 0 149.83 57.42
  Q 149.84 57.50 149.97 57.80
  Z"
/>
<path fill="#08090a" d="
  M 31.84 59.74
  Q 31.64 60.20 31.49 60.67
  A 1.08 1.07 29.5 0 0 31.81 61.82
  Q 32.30 62.25 32.49 62.94
  A 0.75 0.75 0.0 0 1 31.25 63.68
  Q 28.59 61.11 26.01 58.46
  Q 25.77 58.21 25.75 57.83
  Q 25.73 57.49 25.87 57.16
  Q 26.01 56.83 26.28 56.60
  Q 26.57 56.36 26.91 56.36
  Q 30.61 56.42 34.31 56.60
  A 0.75 0.75 0.0 0 1 34.62 58.00
  Q 33.99 58.34 33.34 58.28
  A 1.08 1.07 17.2 0 0 32.28 58.83
  Q 32.05 59.27 31.84 59.74
  Z
  M 28.44 58.53
  Q 28.99 59.35 29.65 59.77
  A 0.44 0.42 -44.7 0 0 30.12 59.76
  Q 31.02 59.14 30.58 58.33
  A 0.26 0.25 79.8 0 0 30.40 58.20
  L 28.82 57.94
  A 0.38 0.38 0.0 0 0 28.44 58.53
  Z"
/>
<path fill="#08090a" d="
  M 157.43 62.73
  Q 158.25 65.22 158.28 65.34
  A 0.76 0.74 51.6 0 1 158.23 65.79
  Q 158.09 66.13 157.63 66.20
  A 0.69 0.69 0.0 0 1 156.87 65.73
  L 156.51 64.65
  A 0.65 0.65 0.0 0 0 155.69 64.24
  L 150.47 65.98
  A 0.31 0.29 38.7 0 1 150.30 65.99
  Q 149.73 65.89 149.55 65.36
  Q 149.36 64.79 149.76 64.36
  A 0.31 0.29 -75.3 0 1 149.91 64.27
  L 155.13 62.55
  A 0.65 0.65 0.0 0 0 155.54 61.73
  L 155.19 60.65
  A 0.69 0.69 0.0 0 1 155.52 59.82
  Q 155.93 59.61 156.25 59.79
  A 0.76 0.74 -88.3 0 1 156.55 60.13
  Q 156.60 60.24 157.43 62.73
  Z"
/>
<path fill="#08090a" d="
  M 28.07 66.39
  A 0.70 0.70 0.0 0 0 28.51 67.33
  L 30.11 67.81
  A 0.96 0.96 0.0 0 1 30.79 68.82
  L 30.78 68.86
  A 0.81 0.80 12.8 0 1 29.77 69.48
  L 23.05 67.58
  A 0.66 0.66 0.0 0 1 22.62 66.69
  C 23.34 65.02 23.72 59.83 27.66 62.44
  A 2.25 2.16 -66.0 0 1 28.54 64.87
  Q 28.21 66.08 28.07 66.39
  Z
  M 27.0121 64.7317
  A 0.87 0.87 0.0 0 0 26.3384 63.7022
  L 25.9469 63.6204
  A 0.87 0.87 0.0 0 0 24.9174 64.2941
  L 24.6679 65.4883
  A 0.87 0.87 0.0 0 0 25.3416 66.5178
  L 25.7331 66.5996
  A 0.87 0.87 0.0 0 0 26.7626 65.9259
  L 27.0121 64.7317
  Z"
/>
<rect fill="#08090a" x="-4.21" y="-0.88" transform="translate(154.93,68.93) rotate(-12.8)" width="8.42" height="1.76" rx="0.65"/>
<path fill="#08090a" d="
  M 20.99 74.45
  L 21.84 69.98
  A 0.71 0.71 0.0 0 1 22.71 69.43
  L 22.74 69.44
  A 0.76 0.75 -77.6 0 1 23.29 70.31
  L 22.68 73.39
  A 0.81 0.81 0.0 0 0 23.32 74.35
  L 23.78 74.45
  A 0.79 0.78 -79.0 0 0 24.72 73.81
  L 25.19 71.04
  A 0.65 0.65 0.0 0 1 25.84 70.50
  L 26.07 70.52
  A 0.68 0.67 8.6 0 1 26.67 71.32
  L 26.11 74.17
  A 0.66 0.65 -72.0 0 0 26.47 74.89
  L 26.74 74.99
  A 0.80 0.80 0.0 0 0 27.83 74.38
  L 28.41 71.18
  A 0.52 0.51 -84.9 0 1 28.92 70.75
  L 29.17 70.77
  A 0.74 0.74 0.0 0 1 29.86 71.64
  L 29.11 75.89
  A 1.12 1.11 10.0 0 1 27.82 76.79
  L 21.84 75.70
  A 1.07 1.06 -79.5 0 1 20.99 74.45
  Z"
/>
<path fill="#08090a" d="
  M 151.9701 74.9102
  A 4.27 4.05 -179.6 0 1 156.2683 70.8901
  A 4.27 4.05 -179.6 0 1 160.5099 74.9698
  A 4.27 4.05 -179.6 0 1 156.2117 78.9899
  A 4.27 4.05 -179.6 0 1 151.9701 74.9102
  Z
  M 158.6265 74.2952
  A 2.77 2.26 -14.1 0 0 155.3894 72.7781
  A 2.77 2.26 -14.1 0 0 153.2535 75.6448
  A 2.77 2.26 -14.1 0 0 156.4906 77.1619
  A 2.77 2.26 -14.1 0 0 158.6265 74.2952
  Z"
/>
<path fill="#08090a" d="
  M 21.00 84.61
  A 0.77 0.77 0.0 0 1 20.26 83.81
  L 20.38 81.20
  A 3.73 3.52 2.6 0 1 24.27 77.85
  L 25.25 77.90
  A 3.73 3.52 2.6 0 1 28.81 81.58
  L 28.69 84.19
  A 0.77 0.77 0.0 0 1 27.89 84.92
  L 21.00 84.61
  Z
  M 22.51 82.98
  L 26.48 83.16
  A 0.63 0.63 0.0 0 0 27.14 82.55
  L 27.18 81.66
  A 2.06 1.94 2.5 0 0 25.20 79.64
  L 24.09 79.59
  A 2.06 1.94 2.5 0 0 21.94 81.44
  L 21.90 82.32
  A 0.63 0.63 0.0 0 0 22.51 82.98
  Z"
/>
<path fill="#08090a" d="
  M 157.19 84.44
  Q 156.67 84.76 156.53 84.86
  A 0.32 0.32 0.0 0 0 156.72 85.45
  L 160.23 85.37
  A 0.66 0.66 0.0 0 1 160.90 86.01
  L 160.90 86.30
  A 0.69 0.69 0.0 0 1 160.23 87.00
  L 153.50 87.15
  A 0.97 0.96 -65.9 0 1 152.85 85.46
  Q 153.63 84.78 156.28 83.06
  Q 156.79 82.72 156.93 82.63
  A 0.32 0.32 0.0 0 0 156.74 82.04
  L 153.24 82.12
  A 0.66 0.66 0.0 0 1 152.56 81.47
  L 152.56 81.19
  A 0.69 0.69 0.0 0 1 153.23 80.48
  L 159.96 80.33
  A 0.97 0.96 -65.9 0 1 160.61 82.03
  Q 159.83 82.70 157.19 84.44
  Z"
/>
<path fill="#184278" d="
  M 146.83 81.01
  A 0.24 0.23 51.6 0 1 147.29 81.07
  C 148.94 116.16 120.98 143.79 85.73 141.35
  Q 67.82 140.11 60.76 124.15
  Q 56.33 114.12 61.34 105.91
  C 66.93 96.75 78.46 92.77 88.58 96.70
  Q 89.95 97.23 95.63 101.14
  C 109.31 110.51 125.14 110.90 137.09 98.25
  Q 144.30 90.62 146.83 81.01
  Z"
/>
<path fill="#08090a" d="
  M 24.38 104.26
  Q 24.63 105.05 25.35 105.35
  A 0.92 0.91 -42.0 0 0 25.98 105.38
  L 30.83 103.84
  A 0.68 0.68 0.0 0 1 31.68 104.25
  L 31.81 104.62
  A 0.65 0.65 0.0 0 1 31.42 105.46
  C 28.44 106.47 24.36 108.80 23.06 104.68
  C 21.76 100.55 26.44 100.12 29.46 99.25
  A 0.65 0.65 0.0 0 1 30.26 99.71
  L 30.37 100.09
  A 0.68 0.68 0.0 0 1 29.91 100.91
  L 25.05 102.43
  A 0.92 0.91 7.0 0 0 24.55 102.81
  Q 24.13 103.47 24.38 104.26
  Z"
/>
<path fill="#08090a" d="
  M 149.94 104.18
  Q 150.05 103.84 150.29 103.60
  Q 150.55 103.33 150.89 103.31
  Q 154.53 103.03 158.18 102.86
  A 0.74 0.74 0.0 0 1 158.62 104.22
  Q 158.02 104.61 157.38 104.61
  A 1.06 1.06 0.0 0 0 156.39 105.25
  Q 156.20 105.69 156.04 106.18
  Q 155.89 106.65 155.78 107.12
  A 1.06 1.06 0.0 0 0 156.20 108.23
  Q 156.72 108.61 156.97 109.27
  A 0.74 0.74 0.0 0 1 155.82 110.11
  Q 152.97 107.82 150.19 105.45
  Q 149.93 105.22 149.88 104.86
  Q 149.83 104.52 149.94 104.18
  Z
  M 152.59 105.48
  Q 153.00 106.31 153.92 106.41
  A 0.80 0.79 -31.7 0 0 154.29 104.87
  Q 154.12 104.81 152.94 104.88
  A 0.42 0.41 75.5 0 0 152.59 105.48
  Z"
/>
<path fill="#08090a" d="
  M 30.54 112.12
  Q 30.19 112.62 30.10 112.76
  A 0.32 0.32 0.0 0 0 30.50 113.22
  L 33.67 111.81
  A 0.66 0.65 65.9 0 1 34.53 112.14
  L 34.64 112.40
  A 0.68 0.68 0.0 0 1 34.30 113.30
  L 28.20 116.02
  A 0.96 0.96 0.0 0 1 26.96 114.71
  Q 27.42 113.80 29.18 111.21
  Q 29.52 110.70 29.61 110.56
  A 0.32 0.32 0.0 0 0 29.21 110.10
  L 26.04 111.51
  A 0.66 0.65 65.9 0 1 25.18 111.18
  L 25.06 110.92
  A 0.68 0.68 0.0 0 1 25.41 110.02
  L 31.51 107.30
  A 0.96 0.96 0.0 0 1 32.75 108.61
  Q 32.29 109.53 30.54 112.12
  Z"
/>
<path fill="#08090a" d="
  M 149.84 109.24
  A 0.59 0.58 -0.4 0 1 150.53 109.92
  Q 150.32 111.06 149.24 111.23
  A 1.12 1.10 -78.6 0 0 148.46 111.76
  C 147.11 113.95 150.00 115.67 151.76 115.67
  A 1.67 1.66 77.0 0 0 153.24 113.27
  Q 153.15 113.08 152.84 112.63
  A 0.91 0.86 84.2 0 1 153.88 111.27
  Q 154.53 111.59 154.82 112.84
  C 155.38 115.25 153.10 117.81 150.50 117.19
  C 145.87 116.08 144.53 110.31 149.84 109.24
  Z"
/>
<rect fill="#08090a" x="-4.22" y="-0.84" transform="translate(32.68,117.37) rotate(-30.1)" width="8.44" height="1.68" rx="0.78"/>
<rect fill="#08090a" x="-4.17" y="-0.88" transform="translate(147.61,119.07) rotate(31.0)" width="8.34" height="1.76" rx="0.61"/>
<path fill="#08090a" d="
  M 39.13 119.97
  Q 40.62 122.13 40.68 122.24
  A 0.76 0.75 35.3 0 1 40.76 122.69
  Q 40.72 123.05 40.30 123.25
  A 0.69 0.69 0.0 0 1 39.44 123.01
  L 38.79 122.08
  A 0.65 0.65 0.0 0 0 37.89 121.92
  L 33.37 125.05
  A 0.31 0.29 22.4 0 1 33.20 125.12
  Q 32.62 125.17 32.31 124.72
  Q 31.96 124.22 32.22 123.70
  A 0.31 0.29 88.3 0 1 32.34 123.57
  L 36.87 120.45
  A 0.65 0.65 0.0 0 0 37.04 119.55
  L 36.39 118.61
  A 0.69 0.69 0.0 0 1 36.48 117.72
  Q 36.81 117.40 37.17 117.48
  A 0.76 0.75 75.4 0 1 37.56 117.72
  Q 37.63 117.81 39.13 119.97
  Z"
/>
<path fill="#08090a" d="
  M 148.87 123.42
  A 0.56 0.56 0.0 0 1 149.36 124.32
  L 149.00 124.77
  A 0.72 0.70 -73.5 0 1 148.50 125.05
  L 144.54 125.40
  A 0.66 0.66 0.0 0 0 144.18 126.58
  L 145.79 127.86
  A 0.72 0.71 38.3 0 1 145.92 128.87
  L 145.71 129.14
  A 0.67 0.66 38.4 0 1 144.78 129.24
  L 139.30 124.93
  A 0.58 0.58 0.0 0 1 139.18 124.16
  Q 140.61 122.09 142.06 120.63
  C 143.60 119.07 145.81 121.16 145.52 123.03
  A 0.56 0.56 0.0 0 0 146.13 123.67
  L 148.87 123.42
  Z
  M 143.6348 121.8646
  A 1.73 1.12 -54.9 0 0 141.7237 122.6360
  A 1.73 1.12 -54.9 0 0 141.6452 124.6954
  A 1.73 1.12 -54.9 0 0 143.5563 123.9240
  A 1.73 1.12 -54.9 0 0 143.6348 121.8646
  Z"
/>
<path fill="#08090a" d="
  M 36.16 129.76
  A 1.07 1.06 48.3 0 1 36.24 128.24
  L 40.80 124.21
  A 1.12 1.11 -41.2 0 1 42.37 124.31
  L 45.22 127.56
  A 0.74 0.74 0.0 0 1 45.08 128.67
  L 44.88 128.81
  A 0.52 0.51 53.7 0 1 44.22 128.71
  L 42.06 126.26
  A 0.81 0.80 42.7 0 0 40.81 126.31
  L 40.63 126.54
  A 0.66 0.65 40.8 0 0 40.70 127.33
  L 42.65 129.49
  A 0.68 0.67 -39.8 0 1 42.56 130.48
  L 42.37 130.62
  A 0.65 0.65 0.0 0 1 41.53 130.50
  L 39.69 128.37
  A 0.79 0.78 47.8 0 0 38.55 128.31
  L 38.21 128.63
  A 0.81 0.81 0.0 0 0 38.16 129.79
  L 40.28 132.11
  A 0.76 0.75 46.4 0 1 40.26 133.14
  L 40.24 133.16
  A 0.71 0.71 0.0 0 1 39.21 133.15
  L 36.16 129.76
  Z"
/>
<path fill="#08090a" d="
  M 140.31 135.17
  A 1.08 1.08 0.0 0 1 138.78 135.20
  L 134.36 130.91
  A 1.13 1.13 0.0 0 1 134.34 129.31
  L 137.41 126.19
  A 0.75 0.75 0.0 0 1 138.54 126.24
  L 138.70 126.44
  A 0.53 0.52 -40.6 0 1 138.64 127.11
  L 136.34 129.48
  A 0.82 0.81 -51.6 0 0 136.48 130.73
  L 136.72 130.90
  A 0.67 0.66 -53.5 0 0 137.52 130.77
  L 139.55 128.63
  A 0.69 0.68 45.9 0 1 140.56 128.66
  L 140.72 128.83
  A 0.66 0.66 0.0 0 1 140.65 129.69
  L 138.65 131.71
  A 0.80 0.79 -46.5 0 0 138.67 132.86
  L 139.02 133.18
  A 0.82 0.82 0.0 0 0 140.19 133.15
  L 142.37 130.83
  A 0.77 0.76 -47.9 0 1 143.42 130.77
  L 143.45 130.79
  A 0.72 0.72 0.0 0 1 143.51 131.84
  L 140.31 135.17
  Z"
/>
<path fill="#08090a" d="
  M 46.37 129.54
  A 0.57 0.57 0.0 0 1 47.17 129.49
  L 49.27 131.38
  A 3.62 3.53 -48.1 0 1 49.48 136.43
  L 48.65 137.35
  A 3.62 3.53 -48.1 0 1 43.61 137.69
  L 41.51 135.81
  A 0.57 0.57 0.0 0 1 41.46 135.00
  L 46.37 129.54
  Z
  M 46.71 131.71
  L 43.76 135.11
  A 0.48 0.48 0.0 0 0 43.81 135.79
  L 44.41 136.31
  A 2.15 1.93 40.9 0 0 47.30 136.25
  L 48.35 135.04
  A 2.15 1.93 40.9 0 0 47.98 132.18
  L 47.39 131.66
  A 0.48 0.48 0.0 0 0 46.71 131.71
  Z"
/>
<path fill="#08090a" d="
  M 132.39 137.48
  Q 132.56 137.34 130.87 133.61
  A 1.44 1.44 0.0 0 1 133.30 132.12
  L 137.27 137.12
  A 0.81 0.81 0.0 0 1 137.18 138.23
  L 137.12 138.27
  A 0.71 0.71 0.0 0 1 136.09 138.19
  L 133.25 134.61
  A 0.16 0.16 0.0 0 0 132.98 134.78
  C 134.05 137.15 135.15 139.15 135.00 139.70
  Q 134.92 140.00 134.61 140.25
  Q 134.33 140.47 134.02 140.48
  C 133.46 140.51 131.74 139.00 129.66 137.43
  A 0.16 0.16 0.0 0 0 129.44 137.66
  L 132.31 141.22
  A 0.71 0.71 0.0 0 1 132.17 142.24
  L 132.11 142.28
  A 0.81 0.81 0.0 0 1 131.01 142.14
  L 127.00 137.17
  A 1.44 1.44 0.0 0 1 128.98 135.12
  Q 132.25 137.59 132.39 137.48
  Z"
/>
<path fill="#08090a" d="
  M 56.21 139.78
  Q 56.22 139.81 56.70 140.34
  Q 58.58 142.39 58.78 142.75
  A 1.27 1.25 -49.7 0 1 58.86 143.79
  C 57.39 147.79 52.41 145.25 52.52 141.99
  A 0.64 0.64 0.0 0 1 53.25 141.38
  L 53.57 141.44
  A 0.55 0.52 -89.1 0 1 54.02 141.92
  Q 54.23 144.09 56.03 144.32
  A 0.85 0.85 0.0 0 0 56.73 142.87
  C 55.57 141.75 53.89 140.19 54.55 138.71
  A 2.22 2.22 0.0 0 1 57.07 137.45
  Q 60.17 138.18 60.30 140.86
  A 0.68 0.68 0.0 0 1 59.02 141.24
  L 57.85 139.21
  A 0.88 0.88 0.0 0 0 56.21 139.78
  Z"
/>
<path fill="#08090a" d="
  M 122.26 138.58
  Q 122.57 138.41 122.91 138.39
  Q 123.28 138.36 123.56 138.57
  Q 126.45 140.81 129.28 143.13
  A 0.74 0.74 0.0 0 1 128.69 144.43
  Q 127.99 144.32 127.51 143.89
  A 1.06 1.06 0.0 0 0 126.34 143.70
  Q 125.90 143.91 125.46 144.16
  Q 125.03 144.41 124.63 144.69
  A 1.06 1.06 0.0 0 0 124.21 145.79
  Q 124.34 146.42 124.08 147.08
  A 0.74 0.74 0.0 0 1 122.66 146.93
  Q 122.08 143.32 121.60 139.70
  Q 121.56 139.36 121.76 139.05
  Q 121.95 138.76 122.26 138.58
  Z
  M 124.74 143.00
  Q 125.01 142.83 125.14 142.61
  A 0.52 0.52 0.0 0 0 125.07 142.00
  Q 123.78 140.61 123.44 140.82
  Q 123.09 141.02 123.71 142.82
  A 0.52 0.52 0.0 0 0 124.21 143.17
  Q 124.47 143.16 124.74 143.00
  Z"
/>
<path fill="#08090a" d="
  M 65.13 141.66
  Q 67.52 142.75 67.63 142.81
  A 0.76 0.74 4.4 0 1 67.93 143.15
  Q 68.08 143.49 67.82 143.87
  A 0.69 0.69 0.0 0 1 66.96 144.11
  L 65.92 143.64
  A 0.65 0.65 0.0 0 0 65.07 143.97
  L 62.80 148.98
  A 0.31 0.29 -8.6 0 1 62.69 149.12
  Q 62.23 149.46 61.68 149.22
  Q 61.17 148.99 61.13 148.41
  A 0.31 0.29 57.4 0 1 61.16 148.23
  L 63.44 143.23
  A 0.65 0.65 0.0 0 0 63.12 142.37
  L 62.09 141.90
  A 0.69 0.69 0.0 0 1 61.70 141.09
  Q 61.82 140.65 62.17 140.54
  A 0.76 0.74 44.5 0 1 62.63 140.54
  Q 62.74 140.58 65.13 141.66
  Z"
/>
<path fill="#08090a" d="
  M 115.36 145.73
  A 0.58 0.58 0.0 0 1 116.11 146.07
  L 116.21 146.34
  A 0.67 0.67 0.0 0 1 115.81 147.21
  L 113.73 147.98
  A 0.57 0.56 70.1 0 0 113.40 148.70
  L 114.16 150.75
  A 0.78 0.77 -20.2 0 1 113.69 151.75
  L 113.44 151.85
  A 0.72 0.71 69.6 0 1 112.53 151.43
  L 110.14 144.94
  A 0.71 0.70 69.9 0 1 110.56 144.03
  L 114.71 142.49
  A 0.71 0.70 19.7 0 1 115.31 143.76
  Q 114.64 144.15 112.80 144.80
  A 0.91 0.91 0.0 0 0 112.25 145.96
  L 112.26 145.99
  A 0.87 0.87 0.0 0 0 113.39 146.50
  L 115.36 145.73
  Z"
/>
<path fill="#08090a" d="
  M 71.45 143.94
  Q 71.79 144.05 72.04 144.30
  Q 72.31 144.56 72.34 144.91
  Q 72.64 148.60 72.82 152.31
  A 0.75 0.75 0.0 0 1 71.45 152.76
  Q 71.05 152.16 71.05 151.50
  A 1.08 1.07 -78.3 0 0 70.39 150.50
  Q 69.94 150.31 69.45 150.15
  Q 68.97 150.00 68.49 149.89
  A 1.08 1.07 -66.0 0 0 67.37 150.32
  Q 66.99 150.85 66.31 151.11
  A 0.75 0.75 0.0 0 1 65.46 149.94
  Q 67.77 147.04 70.16 144.20
  Q 70.39 143.94 70.76 143.89
  Q 71.11 143.83 71.45 143.94
  Z
  M 70.86 148.64
  Q 71.06 148.10 70.68 146.90
  A 0.35 0.35 0.0 0 0 70.08 146.78
  Q 69.20 147.81 69.29 148.29
  A 0.89 0.78 53.5 0 0 70.86 148.64
  Z"
/>
<path fill="#08090a" d="
  M 78.01 145.91
  Q 80.58 146.43 80.70 146.46
  A 0.76 0.74 -8.7 0 1 81.07 146.73
  Q 81.29 147.02 81.13 147.45
  A 0.69 0.69 0.0 0 1 80.34 147.88
  L 79.23 147.66
  A 0.65 0.65 0.0 0 0 78.47 148.17
  L 77.40 153.55
  A 0.31 0.29 -21.6 0 1 77.32 153.71
  Q 76.95 154.15 76.40 154.04
  Q 75.81 153.92 75.64 153.37
  A 0.31 0.29 44.4 0 1 75.63 153.20
  L 76.72 147.82
  A 0.65 0.65 0.0 0 0 76.22 147.05
  L 75.11 146.83
  A 0.69 0.69 0.0 0 1 74.55 146.13
  Q 74.57 145.67 74.88 145.48
  A 0.76 0.74 31.4 0 1 75.32 145.38
  Q 75.44 145.39 78.01 145.91
  Z"
/>
<path fill="#08090a" d="
  M 105.3603 145.1333
  A 4.33 4.09 -94.5 0 1 109.7774 149.1291
  A 4.33 4.09 -94.5 0 1 106.0397 153.7667
  A 4.33 4.09 -94.5 0 1 101.6226 149.7709
  A 4.33 4.09 -94.5 0 1 105.3603 145.1333
  Z
  M 105.1915 146.8987
  A 2.78 2.26 -101.8 0 0 103.5478 150.0822
  A 2.78 2.26 -101.8 0 0 106.3285 152.3413
  A 2.78 2.26 -101.8 0 0 107.9722 149.1578
  A 2.78 2.26 -101.8 0 0 105.1915 146.8987
  Z"
/>
<path fill="#08090a" d="
  M 82.73 154.98
  A 1.08 1.07 4.5 0 1 81.74 153.82
  L 82.23 147.70
  A 1.13 1.12 -85.0 0 1 83.45 146.67
  L 87.80 147.05
  A 0.75 0.74 8.6 0 1 88.47 147.95
  L 88.42 148.20
  A 0.52 0.52 0.0 0 1 87.88 148.58
  L 84.59 148.31
  A 0.81 0.81 0.0 0 0 83.71 149.22
  L 83.74 149.51
  A 0.67 0.66 -3.1 0 0 84.35 150.04
  L 87.28 150.25
  A 0.69 0.68 -83.6 0 1 87.90 151.04
  L 87.87 151.27
  A 0.66 0.66 0.0 0 1 87.16 151.77
  L 84.34 151.50
  A 0.80 0.79 4.0 0 0 83.47 152.26
  L 83.44 152.72
  A 0.82 0.82 0.0 0 0 84.21 153.61
  L 87.38 153.81
  A 0.76 0.75 2.5 0 1 88.09 154.58
  L 88.09 154.61
  A 0.72 0.72 0.0 0 1 87.32 155.32
  L 82.73 154.98
  Z"
/>
<path fill="#08090a" d="
  M 91.99 149.70
  Q 92.01 149.72 92.70 149.94
  Q 95.41 150.78 95.78 151.00
  A 1.29 1.27 -79.8 0 1 96.37 151.88
  C 97.13 156.16 91.43 156.47 89.86 153.54
  A 0.65 0.65 0.0 0 1 90.20 152.62
  L 90.51 152.51
  A 0.56 0.53 60.8 0 1 91.15 152.71
  Q 92.44 154.52 94.15 153.80
  A 0.86 0.86 0.0 0 0 94.02 152.16
  C 92.43 151.76 90.15 151.25 89.97 149.60
  A 2.27 2.26 78.4 0 1 91.55 147.20
  Q 94.66 146.25 96.14 148.56
  A 0.70 0.70 0.0 0 1 95.21 149.54
  L 93.14 148.35
  A 0.90 0.90 0.0 0 0 91.99 149.70
  Z"
/>
<path fill="#08090a" d="
  M 156.04 166.66
  Q 156.36 167.16 156.46 167.30
  A 0.32 0.32 0.0 0 0 157.03 167.10
  L 156.90 163.67
  A 0.65 0.65 0.0 0 1 157.53 163.00
  L 157.81 162.99
  A 0.67 0.67 0.0 0 1 158.51 163.64
  L 158.75 170.24
  A 0.95 0.95 0.0 0 1 157.10 170.90
  Q 156.42 170.14 154.70 167.57
  Q 154.36 167.07 154.26 166.94
  A 0.32 0.32 0.0 0 0 153.69 167.13
  L 153.82 170.57
  A 0.65 0.65 0.0 0 1 153.19 171.23
  L 152.91 171.24
  A 0.67 0.67 0.0 0 1 152.21 170.59
  L 151.97 163.99
  A 0.95 0.95 0.0 0 1 153.62 163.33
  Q 154.30 164.09 156.04 166.66
  Z"
/>
<path fill="#08090a" d="
  M 15.14 163.93
  A 0.73 0.73 0.0 0 1 15.86 163.20
  L 18.09 163.18
  A 3.81 3.70 89.6 0 1 21.82 166.97
  L 21.82 167.19
  A 3.81 3.70 89.6 0 1 18.15 171.02
  L 15.92 171.04
  A 0.73 0.73 0.0 0 1 15.18 170.31
  L 15.14 163.93
  Z
  M 16.87 165.40
  L 16.90 168.84
  A 0.58 0.58 0.0 0 0 17.48 169.42
  L 17.95 169.41
  A 2.11 2.05 -0.5 0 0 20.04 167.35
  L 20.04 166.85
  A 2.11 2.05 -0.5 0 0 17.91 164.81
  L 17.44 164.82
  A 0.58 0.58 0.0 0 0 16.87 165.40
  Z"
/>
<path fill="#08090a" d="
  M 22.84 170.40
  L 22.84 163.77
  A 0.57 0.57 0.0 0 1 23.40 163.20
  C 24.48 163.19 27.00 162.87 28.00 164.00
  Q 29.46 165.66 27.96 167.73
  A 0.95 0.95 0.0 0 0 27.90 168.77
  L 28.87 170.44
  A 0.44 0.44 0.0 0 1 28.50 171.10
  Q 26.90 171.14 26.00 168.96
  A 0.76 0.76 0.0 0 0 24.53 169.25
  L 24.53 170.41
  A 0.63 0.63 0.0 0 1 23.90 171.04
  L 23.48 171.04
  A 0.64 0.64 0.0 0 1 22.84 170.40
  Z
  M 27.0197 165.8098
  A 1.33 1.10 -1.3 0 0 25.6650 164.7403
  A 1.33 1.10 -1.3 0 0 24.3603 165.8702
  A 1.33 1.10 -1.3 0 0 25.7150 166.9397
  A 1.33 1.10 -1.3 0 0 27.0197 165.8098
  Z"
/>
<path fill="#08090a" d="
  M 33.16 169.46
  Q 34.69 169.48 34.74 167.83
  Q 34.82 164.83 34.91 163.85
  A 0.84 0.84 0.0 0 1 36.58 163.85
  Q 37.26 171.16 33.15 171.12
  Q 29.03 171.07 29.86 163.78
  A 0.84 0.84 0.0 0 1 31.54 163.81
  Q 31.61 164.80 31.63 167.80
  Q 31.63 169.45 33.16 169.46
  Z"
/>
<path fill="#08090a" d="
  M 44.56 170.52
  A 0.48 0.48 0.0 0 1 43.88 170.96
  C 42.23 170.24 40.62 171.95 38.80 170.26
  C 34.89 166.63 39.57 160.85 43.74 164.12
  A 0.79 0.79 0.0 0 1 43.13 165.52
  Q 42.76 165.47 41.88 165.02
  C 38.87 163.49 37.47 170.13 42.08 169.36
  A 0.66 0.54 -36.6 0 0 42.36 168.22
  Q 41.97 168.10 41.48 167.49
  A 0.38 0.38 0.0 0 1 41.78 166.87
  L 43.91 166.89
  A 0.68 0.68 0.0 0 1 44.58 167.57
  L 44.56 170.52
  Z"
/>
<path fill="#08090a" d="
  M 50.23 163.14
  Q 50.96 163.15 51.14 163.59
  Q 52.41 166.72 53.61 170.52
  A 0.43 0.42 -14.9 0 1 53.29 171.06
  Q 52.98 171.13 52.41 171.01
  Q 52.09 170.95 51.88 170.36
  Q 51.45 169.20 50.24 169.19
  Q 49.01 169.19 48.58 170.34
  Q 48.36 170.93 48.04 170.99
  Q 47.47 171.10 47.16 171.03
  A 0.43 0.42 15.5 0 1 46.84 170.49
  Q 48.08 166.70 49.38 163.58
  Q 49.56 163.14 50.23 163.14
  Z
  M 50.12 166.08
  Q 49.49 167.10 49.55 167.47
  A 0.70 0.70 0.0 0 0 50.90 167.59
  Q 51.07 167.14 50.67 166.13
  A 0.31 0.31 0.0 0 0 50.12 166.08
  Z"
/>
<path fill="#08090a" d="
  M 58.47 166.65
  Q 58.79 167.16 58.89 167.29
  A 0.32 0.31 25.9 0 0 59.46 167.09
  L 59.31 163.66
  A 0.65 0.65 0.0 0 1 59.92 162.99
  L 60.21 162.98
  A 0.67 0.67 0.0 0 1 60.91 163.62
  L 61.20 170.21
  A 0.95 0.94 22.8 0 1 59.56 170.88
  Q 58.88 170.13 57.13 167.57
  Q 56.79 167.08 56.70 166.95
  A 0.32 0.31 25.9 0 0 56.12 167.14
  L 56.28 170.57
  A 0.65 0.65 0.0 0 1 55.66 171.24
  L 55.38 171.25
  A 0.67 0.67 0.0 0 1 54.68 170.61
  L 54.38 164.02
  A 0.95 0.94 22.8 0 1 56.03 163.35
  Q 56.71 164.11 58.47 166.65
  Z"
/>
<path fill="#08090a" d="
  M 62.57 163.91
  A 0.73 0.73 0.0 0 1 63.30 163.18
  L 65.39 163.18
  A 3.78 3.73 -0.0 0 1 69.17 166.91
  L 69.17 167.29
  A 3.78 3.73 -0.0 0 1 65.39 171.02
  L 63.30 171.02
  A 0.73 0.73 0.0 0 1 62.57 170.29
  L 62.57 163.91
  Z
  M 64.14 165.47
  L 64.18 168.77
  A 0.69 0.69 0.0 0 0 64.87 169.45
  L 65.11 169.45
  A 2.31 2.24 -0.6 0 0 67.40 167.18
  L 67.40 166.98
  A 2.31 2.24 -0.6 0 0 65.07 164.77
  L 64.83 164.77
  A 0.69 0.69 0.0 0 0 64.14 165.47
  Z"
/>
<path fill="#08090a" d="
  M 74.80 169.20
  Q 73.58 169.20 73.15 170.36
  Q 72.93 170.95 72.61 171.01
  Q 72.04 171.12 71.73 171.05
  A 0.43 0.42 15.3 0 1 71.41 170.51
  Q 72.64 166.70 73.93 163.57
  Q 74.11 163.13 74.86 163.13
  Q 75.52 163.13 75.70 163.57
  Q 76.98 166.71 78.20 170.52
  A 0.43 0.42 -15.1 0 1 77.88 171.06
  Q 77.57 171.13 77.00 171.02
  Q 76.68 170.96 76.46 170.37
  Q 76.03 169.20 74.80 169.20
  Z
  M 75.09 166.09
  A 0.99 0.92 63.6 0 0 74.56 167.89
  Q 74.94 168.13 75.45 167.70
  A 0.41 0.39 -27.0 0 0 75.59 167.31
  Q 75.34 166.13 75.09 166.09
  Z"
/>
<path fill="#08090a" d="
  M 83.94 169.46
  A 0.80 0.80 0.0 0 1 83.65 171.00
  L 79.58 171.04
  A 0.70 0.69 -0.2 0 1 78.87 170.35
  L 78.89 163.92
  A 0.78 0.78 0.0 0 1 79.68 163.13
  L 80.02 163.13
  A 0.56 0.56 0.0 0 1 80.57 163.69
  L 80.56 168.78
  A 0.64 0.64 0.0 0 0 81.21 169.42
  Q 83.68 169.34 83.94 169.46
  Z"
/>
<path fill="#08090a" d="
  M 85.82 167.14
  C 85.84 169.17 87.71 170.02 89.20 168.90
  A 1.07 1.07 0.0 0 1 90.44 168.86
  L 90.57 168.94
  A 0.60 0.60 0.0 0 1 90.64 169.88
  C 87.92 172.36 83.99 170.41 83.95 167.16
  C 83.91 163.92 87.80 161.87 90.57 164.30
  A 0.60 0.60 0.0 0 1 90.53 165.24
  L 90.40 165.32
  A 1.07 1.07 0.0 0 1 89.16 165.31
  C 87.64 164.22 85.79 165.12 85.82 167.14
  Z"
/>
<path fill="#08090a" d="
  M 99.00 167.13
  A 3.86 3.86 0.0 0 1 95.14 170.99
  A 3.86 3.86 0.0 0 1 91.28 167.13
  A 3.86 3.86 0.0 0 1 95.14 163.27
  A 3.86 3.86 0.0 0 1 99.00 167.13
  Z
  M 95.3602 164.7704
  A 2.34 2.05 -84.6 0 0 93.0991 166.9071
  A 2.34 2.05 -84.6 0 0 94.9198 169.4296
  A 2.34 2.05 -84.6 0 0 97.1809 167.2929
  A 2.34 2.05 -84.6 0 0 95.3602 164.7704
  Z"
/>
<path fill="#08090a" d="
  M 103.10 166.24
  Q 103.60 166.24 104.07 166.18
  A 0.76 0.76 0.0 0 0 104.72 165.32
  Q 104.59 164.48 104.73 163.66
  A 0.83 0.82 49.6 0 1 106.37 163.79
  Q 106.39 165.24 106.39 167.06
  Q 106.39 168.89 106.37 170.34
  A 0.83 0.82 -49.6 0 1 104.73 170.47
  Q 104.59 169.65 104.72 168.81
  A 0.76 0.76 0.0 0 0 104.07 167.95
  Q 103.60 167.89 103.10 167.89
  Q 102.61 167.89 102.13 167.95
  A 0.76 0.76 0.0 0 0 101.48 168.81
  Q 101.61 169.65 101.47 170.47
  A 0.83 0.82 49.6 0 1 99.83 170.34
  Q 99.81 168.89 99.81 167.06
  Q 99.81 165.24 99.83 163.79
  A 0.83 0.82 -49.6 0 1 101.47 163.66
  Q 101.61 164.48 101.48 165.32
  A 0.76 0.76 0.0 0 0 102.13 166.18
  Q 102.61 166.24 103.10 166.24
  Z"
/>
<path fill="#08090a" d="
  M 114.83 167.13
  A 3.85 3.85 0.0 0 1 110.98 170.98
  A 3.85 3.85 0.0 0 1 107.13 167.13
  A 3.85 3.85 0.0 0 1 110.98 163.28
  A 3.85 3.85 0.0 0 1 114.83 167.13
  Z
  M 113.18 167.11
  A 2.20 2.20 0.0 0 0 110.98 164.91
  A 2.20 2.20 0.0 0 0 108.78 167.11
  A 2.20 2.20 0.0 0 0 110.98 169.31
  A 2.20 2.20 0.0 0 0 113.18 167.11
  Z"
/>
<path fill="#08090a" d="
  M 120.75 169.45
  A 0.81 0.80 55.7 0 1 120.46 171.00
  L 116.36 171.05
  A 0.70 0.69 -0.4 0 1 115.65 170.36
  L 115.65 163.88
  A 0.79 0.79 0.0 0 1 116.44 163.09
  L 116.78 163.09
  A 0.56 0.56 0.0 0 1 117.34 163.65
  L 117.34 168.77
  A 0.64 0.64 0.0 0 0 118.00 169.41
  Q 120.48 169.33 120.75 169.45
  Z"
/>
<path fill="#08090a" d="
  M 126.05 163.22
  Q 128.57 163.23 128.69 163.24
  A 0.73 0.72 -19.9 0 1 129.09 163.42
  Q 129.35 163.66 129.28 164.09
  A 0.66 0.66 0.0 0 1 128.62 164.65
  L 127.52 164.64
  A 0.62 0.62 0.0 0 0 126.90 165.27
  L 126.89 170.55
  A 0.30 0.28 -32.8 0 1 126.85 170.71
  Q 126.58 171.20 126.00 171.20
  Q 125.47 171.19 125.20 170.71
  A 0.30 0.28 33.2 0 1 125.16 170.54
  L 125.19 165.26
  A 0.62 0.62 0.0 0 0 124.57 164.64
  L 123.48 164.63
  A 0.66 0.66 0.0 0 1 122.82 164.07
  Q 122.75 163.64 123.01 163.40
  A 0.73 0.72 20.2 0 1 123.41 163.23
  Q 123.53 163.21 126.05 163.22
  Z"
/>
<path fill="#08090a" d="
  M 141.10 164.77
  Q 141.06 165.02 140.76 165.07
  C 139.71 165.26 138.92 164.67 137.95 164.91
  A 0.51 0.51 0.0 0 0 137.90 165.88
  L 140.61 166.89
  A 1.20 1.17 83.5 0 1 141.22 167.39
  Q 142.19 169.01 141.15 170.13
  Q 139.56 171.84 136.69 170.64
  A 1.37 1.34 47.5 0 0 135.80 170.59
  Q 133.25 171.38 130.52 170.95
  A 0.75 0.75 0.0 0 1 129.89 170.21
  L 129.89 163.85
  A 0.64 0.64 0.0 0 1 130.53 163.21
  L 134.62 163.21
  A 0.70 0.70 0.0 0 1 135.31 164.02
  L 135.26 164.32
  A 0.66 0.65 -85.3 0 1 134.62 164.87
  L 132.35 164.87
  A 0.68 0.68 0.0 0 0 131.67 165.55
  L 131.67 165.85
  A 0.51 0.51 0.0 0 0 132.24 166.36
  Q 133.60 166.20 134.39 166.38
  A 0.75 0.75 0.0 0 1 134.22 167.86
  L 132.27 167.86
  A 0.56 0.56 0.0 0 0 131.72 168.33
  L 131.67 168.62
  A 0.63 0.62 8.6 0 0 132.20 169.33
  Q 134.86 169.70 136.22 169.05
  A 1.03 1.02 -49.9 0 1 136.90 168.99
  L 138.88 169.52
  A 0.61 0.61 0.0 0 0 139.64 168.93
  L 139.64 168.61
  A 0.26 0.25 -80.3 0 0 139.48 168.37
  L 136.58 167.30
  A 1.10 1.09 -83.5 0 1 135.87 166.40
  C 135.54 163.75 138.09 162.34 140.34 163.67
  A 1.17 1.17 0.0 0 0 141.55 163.66
  Q 142.86 162.87 147.68 163.32
  A 0.73 0.73 0.0 0 1 148.10 164.59
  Q 147.90 164.76 146.43 164.88
  A 0.59 0.59 0.0 0 0 145.88 165.47
  L 145.88 170.32
  A 0.72 0.72 0.0 0 1 145.16 171.04
  L 144.73 171.04
  A 0.74 0.74 0.0 0 1 143.99 170.30
  L 143.99 165.28
  A 0.50 0.49 -5.0 0 0 143.41 164.80
  Q 142.29 165.00 141.78 164.53
  A 0.41 0.40 -64.1 0 0 141.10 164.77
  Z"
/>
<rect fill="#08090a" x="-0.92" y="-3.93" transform="translate(149.76,167.12) rotate(-0.2)" width="1.84" height="7.86" rx="0.63"/>
<path fill="#08090a" d="
  M 166.17 170.94
  C 164.52 170.23 162.92 171.95 161.09 170.28
  C 157.15 166.68 161.79 160.86 165.98 164.10
  A 0.79 0.79 0.0 0 1 165.38 165.51
  Q 165.01 165.46 164.13 165.02
  C 161.11 163.51 159.76 170.16 164.36 169.35
  A 0.66 0.54 -37.0 0 0 164.63 168.21
  Q 164.24 168.09 163.75 167.49
  A 0.38 0.38 0.0 0 1 164.04 166.87
  L 166.17 166.87
  A 0.68 0.68 0.0 0 1 166.85 167.55
  L 166.85 170.50
  A 0.48 0.48 0.0 0 1 166.17 170.94
  Z"
/>
<path fill="#08090a" d="
  M 67.00 184.34
  L 67.00 185.71
  A 0.57 0.57 0.0 0 1 66.43 186.28
  L 65.84 186.28
  A 0.69 0.69 0.0 0 1 65.15 185.59
  L 65.15 179.09
  A 0.55 0.55 0.0 0 1 65.67 178.54
  C 68.34 178.41 70.51 178.20 70.99 181.01
  A 1.49 1.45 -37.7 0 1 70.87 181.86
  Q 69.79 184.19 67.61 183.83
  A 0.52 0.52 0.0 0 0 67.00 184.34
  Z
  M 69.18 181.15
  A 1.14 1.14 0.0 0 0 68.04 180.01
  A 1.14 1.14 0.0 0 0 66.90 181.15
  A 1.14 1.14 0.0 0 0 68.04 182.29
  A 1.14 1.14 0.0 0 0 69.18 181.15
  Z"
/>
<path fill="#08090a" d="
  M 72.86 186.33
  L 72.44 186.33
  A 0.64 0.64 0.0 0 1 71.80 185.70
  L 71.74 179.04
  A 0.57 0.57 0.0 0 1 72.30 178.47
  C 73.38 178.45 75.91 178.11 76.92 179.23
  Q 78.40 180.89 76.91 182.98
  A 0.96 0.95 47.9 0 0 76.86 184.02
  L 77.85 185.69
  A 0.44 0.44 0.0 0 1 77.48 186.35
  Q 75.88 186.41 74.95 184.23
  A 0.77 0.77 0.0 0 0 73.48 184.53
  L 73.49 185.69
  A 0.63 0.63 0.0 0 1 72.86 186.33
  Z
  M 75.88 181.12
  A 1.21 1.21 0.0 0 0 74.67 179.91
  A 1.21 1.21 0.0 0 0 73.46 181.12
  A 1.21 1.21 0.0 0 0 74.67 182.33
  A 1.21 1.21 0.0 0 0 75.88 181.12
  Z"
/>
<path fill="#08090a" d="
  M 86.08 182.40
  A 3.86 3.86 0.0 0 1 82.22 186.26
  A 3.86 3.86 0.0 0 1 78.36 182.40
  A 3.86 3.86 0.0 0 1 82.22 178.54
  A 3.86 3.86 0.0 0 1 86.08 182.40
  Z
  M 82.1932 180.0603
  A 2.34 2.06 -90.9 0 0 80.1703 182.4324
  A 2.34 2.06 -90.9 0 0 82.2668 184.7397
  A 2.34 2.06 -90.9 0 0 84.2897 182.3676
  A 2.34 2.06 -90.9 0 0 82.1932 180.0603
  Z"
/>
<path fill="#08090a" d="
  M 93.59 185.74
  A 0.48 0.48 0.0 0 1 92.91 186.18
  C 91.27 185.47 89.67 187.18 87.85 185.51
  C 83.93 181.91 88.57 176.12 92.74 179.36
  A 0.79 0.79 0.0 0 1 92.14 180.76
  Q 91.77 180.71 90.89 180.27
  C 87.89 178.76 86.53 185.39 91.11 184.59
  A 0.65 0.54 -36.9 0 0 91.38 183.45
  Q 91.00 183.33 90.51 182.73
  A 0.38 0.38 0.0 0 1 90.80 182.12
  L 92.92 182.12
  A 0.68 0.68 0.0 0 1 93.60 182.80
  L 93.59 185.74
  Z"
/>
<path fill="#08090a" d="
  M 107.64 185.46
  A 0.71 0.71 0.0 0 1 106.47 186.20
  Q 105.99 185.71 105.72 185.15
  A 0.96 0.95 -6.2 0 0 105.05 184.62
  Q 103.22 184.21 102.81 185.42
  A 1.18 1.17 1.7 0 1 101.98 186.19
  Q 98.80 187.02 97.67 184.19
  A 0.77 0.77 0.0 0 0 96.18 184.47
  L 96.18 185.84
  A 0.50 0.50 0.0 0 1 95.51 186.31
  L 95.07 186.14
  A 0.74 0.74 0.0 0 1 94.59 185.45
  L 94.59 179.19
  A 0.70 0.69 -90.0 0 1 95.28 178.49
  L 98.19 178.49
  A 1.35 1.35 0.0 0 1 99.00 178.76
  Q 101.72 180.80 99.61 183.12
  A 0.74 0.73 51.3 0 0 99.52 183.97
  L 100.22 185.17
  A 0.48 0.48 0.0 0 0 101.08 185.10
  L 103.30 179.09
  A 1.06 1.06 0.0 0 1 105.29 179.09
  L 107.64 185.46
  Z
  M 98.64 181.10
  A 1.24 1.24 0.0 0 0 97.40 179.86
  A 1.24 1.24 0.0 0 0 96.16 181.10
  A 1.24 1.24 0.0 0 0 97.40 182.34
  A 1.24 1.24 0.0 0 0 98.64 181.10
  Z
  M 103.95 183.21
  Q 104.74 183.34 104.96 182.88
  A 0.98 0.75 88.4 0 0 103.88 181.56
  Q 103.66 181.76 103.60 182.77
  A 0.42 0.41 6.8 0 0 103.95 183.21
  Z"
/>
<path fill="#08090a" d="
  M 112.44 182.05
  Q 112.50 182.05 112.56 182.03
  A 0.48 0.23 -10.0 0 0 112.77 181.88
  L 114.14 179.19
  A 1.42 1.42 0.0 0 1 115.05 178.46
  Q 115.46 178.35 115.83 178.43
  A 0.72 0.71 -84.0 0 1 116.39 179.13
  L 116.39 185.57
  A 0.74 0.74 0.0 0 1 115.65 186.31
  L 115.22 186.31
  A 0.71 0.71 0.0 0 1 114.55 185.49
  Q 114.83 183.63 114.60 182.84
  A 0.37 0.36 -32.0 0 0 113.98 182.70
  Q 113.94 182.74 112.88 184.90
  Q 112.87 184.92 112.65 184.99
  Q 112.54 185.02 112.44 185.02
  Q 112.33 185.02 112.22 184.99
  Q 112.00 184.92 111.99 184.90
  Q 110.94 182.74 110.90 182.70
  A 0.37 0.36 32.1 0 0 110.28 182.83
  Q 110.05 183.62 110.32 185.48
  A 0.71 0.71 0.0 0 1 109.65 186.30
  L 109.22 186.30
  A 0.74 0.74 0.0 0 1 108.48 185.56
  L 108.50 179.12
  A 0.72 0.71 84.2 0 1 109.06 178.42
  Q 109.43 178.34 109.84 178.45
  A 1.42 1.42 0.0 0 1 110.75 179.19
  L 112.11 181.88
  A 0.48 0.23 10.1 0 0 112.32 182.03
  Q 112.38 182.05 112.44 182.05
  Z"
/>
</svg>
