<?xml version="1.0" encoding="UTF-8" standalone="no"?>
<svg xmlns="http://www.w3.org/2000/svg" version="1.2" baseProfile="tiny" viewBox="0.00 0.00 538.00 217.00">
<g stroke-width="2.00" fill="none" stroke-linecap="butt">
<path stroke="#ebdab6" vector-effect="non-scaling-stroke" d="
  M 267.43 81.67
  L 267.92 92.48"
/>
<path stroke="#d9bf97" vector-effect="non-scaling-stroke" d="
  M 267.92 92.48
  Q 264.24 90.17 260.75 90.11
  Q 246.93 89.88 232.87 89.86"
/>
<path stroke="#ebdab6" vector-effect="non-scaling-stroke" d="
  M 232.87 89.86
  L 170.93 89.69
  A 0.49 0.49 0.0 0 0 170.60 90.54
  C 171.80 91.65 177.60 93.56 184.18 96.26
  C 193.60 100.13 201.53 99.31 213.00 98.72
  Q 220.77 98.33 227.97 99.27
  Q 232.02 99.81 235.11 101.94
  A 0.80 0.79 -27.6 0 1 234.65 103.39
  L 219.11 103.39
  A 1.61 1.41 34.7 0 0 218.76 103.43
  Q 212.02 104.88 204.30 103.17
  A 0.91 0.90 0.2 0 0 203.22 104.24
  Q 203.22 104.25 203.31 104.49
  A 0.44 0.41 83.3 0 0 203.63 104.76
  Q 206.35 105.27 208.69 106.30
  A 2.93 2.68 57.9 0 0 209.45 106.51
  L 216.90 107.56
  A 7.82 7.56 -25.2 0 1 219.59 108.48
  L 221.70 109.68
  A 7.02 6.98 60.6 0 0 224.99 110.61
  L 241.26 111.07"
/>
<path stroke="#d9bf97" vector-effect="non-scaling-stroke" d="
  M 241.26 111.07
  C 244.68 110.90 253.96 111.00 255.76 114.41
  A 0.50 0.50 0.0 0 1 255.32 115.15
  L 229.05 115.15
  A 0.60 0.60 0.0 0 0 228.71 116.24
  L 242.84 126.23
  A 1.68 1.66 -82.5 0 1 243.47 127.06
  Q 244.22 129.19 244.32 129.44
  C 245.86 133.13 251.04 135.58 254.70 136.10
  Q 256.53 136.37 258.94 134.62
  A 1.14 1.13 76.6 0 0 259.40 133.86
  L 259.99 129.70
  A 1.87 1.86 3.9 0 1 261.84 128.09
  L 263.83 128.09
  A 1.04 1.04 0.0 0 0 264.43 126.20
  L 262.58 124.90
  A 1.20 1.19 -56.9 0 1 262.25 123.30
  Q 265.38 118.26 270.50 113.33
  C 275.81 108.20 273.20 102.99 272.53 97.47
  A 1.87 1.85 54.1 0 1 272.69 96.44
  L 273.54 94.54
  A 2.11 2.02 58.5 0 0 273.73 93.67
  L 273.73 82.90
  A 0.75 0.70 -29.7 0 1 273.86 82.49
  C 274.46 81.61 275.78 80.75 276.31 79.86
  Q 279.52 74.51 274.31 70.08
  A 1.69 1.65 -20.9 0 0 273.43 69.70
  C 268.00 69.12 263.40 72.13 264.91 78.08
  Q 265.48 80.32 267.43 81.67"
/>
<path stroke="#c5994d" vector-effect="non-scaling-stroke" d="
  M 241.26 111.07
  Q 239.65 105.69 238.35 100.47
  Q 237.64 97.62 232.87 89.86"
/>
<path stroke="#c5994d" vector-effect="non-scaling-stroke" d="
  M 267.92 92.48
  L 270.87 95.04
  A 0.89 0.89 0.0 0 0 272.33 94.52
  Q 273.23 89.01 272.66 83.57
  A 0.95 0.94 85.6 0 0 271.67 82.72
  Q 269.22 82.87 267.43 81.67"
/>
<path stroke="#f0e4c9" vector-effect="non-scaling-stroke" d="
  M 302.85 101.07
  Q 309.57 103.69 307.58 106.57"
/>
<path stroke="#d9bf97" vector-effect="non-scaling-stroke" d="
  M 307.58 106.57
  Q 294.82 105.91 283.27 111.10
  A 0.62 0.61 78.2 0 0 282.91 111.66
  L 282.91 122.24
  A 1.35 1.34 81.1 0 1 281.98 123.52
  C 279.57 124.31 277.37 124.74 276.82 126.85
  Q 276.46 128.19 278.30 128.62
  Q 280.10 129.03 281.79 128.29"
/>
<path stroke="#f0e4c9" vector-effect="non-scaling-stroke" d="
  M 281.79 128.29
  Q 282.49 128.30 282.79 128.84"
/>
<path stroke="#d9bf97" vector-effect="non-scaling-stroke" d="
  M 282.79 128.84
  L 283.08 132.51
  A 1.11 1.10 -9.8 0 1 282.26 133.66
  L 275.90 135.38
  A 0.65 0.34 -35.5 0 1 275.75 135.40
  L 267.57 135.67
  A 0.64 0.64 0.0 0 0 266.96 136.41
  L 266.97 136.45
  A 1.45 1.44 84.9 0 0 268.21 137.49
  Q 277.98 138.56 281.33 142.67
  C 284.30 146.31 278.52 148.64 274.95 150.07
  A 0.88 0.88 0.0 0 0 274.80 151.62
  L 275.00 151.75
  A 3.46 3.45 53.7 0 0 277.79 152.18
  C 283.55 150.56 292.48 144.38 283.93 138.64
  A 0.76 0.75 -32.7 0 1 284.23 137.27
  Q 291.41 136.06 297.20 130.65
  A 1.80 1.78 -14.5 0 0 297.70 129.81
  L 298.36 127.34
  A 2.00 1.97 80.6 0 1 299.18 126.18
  L 314.50 115.95
  A 0.39 0.39 0.0 0 0 314.28 115.23
  L 297.92 115.23
  A 0.68 0.67 -62.3 0 1 297.54 114.00
  Q 301.49 111.24 306.52 110.99"
/>
<path stroke="#f0e4c9" vector-effect="non-scaling-stroke" d="
  M 306.52 110.99
  Q 316.25 111.29 319.55 110.71
  Q 331.27 108.66 341.86 104.47
  A 0.70 0.69 -46.9 0 0 341.82 103.16
  L 341.38 103.02
  A 0.35 0.31 48.6 0 0 341.30 103.01
  L 328.50 104.88
  A 1.13 1.12 -79.8 0 0 327.67 105.46
  Q 326.56 107.46 324.99 106.73
  A 1.34 1.04 70.8 0 1 324.76 106.58
  L 322.12 104.53
  A 1.33 1.31 67.8 0 0 321.49 104.26
  L 317.90 103.76
  A 1.23 1.23 0.0 0 1 317.12 101.76
  Q 318.59 99.97 321.09 99.06
  Q 322.80 98.43 327.49 98.62
  Q 335.99 98.96 344.56 99.36"
/>
<path stroke="#d9bf97" vector-effect="non-scaling-stroke" d="
  M 344.56 99.36
  C 350.97 99.39 356.17 97.94 361.97 95.21
  C 365.71 93.44 370.06 92.31 373.16 90.71
  A 0.44 0.44 0.0 0 0 372.95 89.88
  L 336.54 90.11"
/>
<path stroke="#f0e4c9" vector-effect="non-scaling-stroke" d="
  M 336.54 90.11
  L 307.25 89.86"
/>
<path stroke="#d9bf97" vector-effect="non-scaling-stroke" d="
  M 307.25 89.86
  C 299.33 89.26 285.58 88.90 279.17 94.66
  A 0.68 0.68 0.0 0 0 279.73 95.84
  C 284.49 95.16 296.85 93.87 298.96 98.98
  A 0.48 0.48 0.0 0 1 298.52 99.64
  L 294.66 99.64
  A 0.44 0.44 0.0 0 0 294.22 100.02
  L 294.16 100.41
  A 0.25 0.25 0.0 0 0 294.44 100.69
  Q 298.90 100.11 302.85 101.07"
/>
<path stroke="#caa360" vector-effect="non-scaling-stroke" d="
  M 307.25 89.86
  L 302.85 101.07"
/>
<path stroke="#caa360" vector-effect="non-scaling-stroke" d="
  M 336.54 90.11
  Q 339.91 95.34 344.56 99.36"
/>
<path stroke="#caa360" vector-effect="non-scaling-stroke" d="
  M 306.52 110.99
  L 307.58 106.57"
/>
<path stroke="#caa360" vector-effect="non-scaling-stroke" d="
  M 282.79 128.84
  L 290.35 126.36
  A 0.46 0.46 0.0 0 0 290.37 125.49
  Q 287.51 124.39 284.42 125.16
  A 1.88 1.80 -74.4 0 0 283.51 125.70
  Q 282.44 126.84 281.79 128.29"
/>
<path stroke="#f0e4c9" vector-effect="non-scaling-stroke" d="
  M 272.02 118.29
  L 268.52 122.35
  A 0.97 0.95 -25.2 0 0 268.29 122.97
  L 268.29 130.26
  A 3.06 3.06 0.0 0 0 270.71 133.25
  L 271.31 133.38
  A 1.95 1.95 0.0 0 0 273.67 131.47
  L 273.67 118.91
  A 0.94 0.94 0.0 0 0 272.02 118.29"
/>
<path stroke="#d9bf97" vector-effect="non-scaling-stroke" d="
  M 264.47 150.24
  Q 264.45 150.22 260.80 147.08
  Q 259.14 145.65 259.71 143.62
  C 260.18 141.95 261.55 141.33 263.20 140.10
  A 0.82 0.81 26.6 0 0 262.71 138.63
  L 257.70 138.63
  A 0.57 0.53 25.4 0 0 257.38 138.73
  C 254.11 141.11 253.63 144.52 256.41 147.44
  Q 259.63 150.85 264.19 150.96
  A 0.41 0.41 0.0 0 0 264.47 150.24"
/>
<path stroke="#ebdab6" vector-effect="non-scaling-stroke" d="
  M 273.35 149.09
  L 272.84 140.55
  A 0.84 0.84 0.0 0 0 271.95 139.76
  L 271.48 139.79
  A 2.86 2.66 86.6 0 0 268.99 142.80
  L 269.26 147.31
  A 2.86 2.66 86.6 0 0 272.08 150.01
  L 272.56 149.98
  A 0.84 0.84 0.0 0 0 273.35 149.09"
/>
<path stroke="#d9bf97" vector-effect="non-scaling-stroke" d="
  M 271.48 154.30
  Q 276.14 156.32 277.89 159.06
  A 2.61 2.59 -47.4 0 1 277.99 161.69
  Q 276.65 164.22 274.24 165.78
  A 1.50 1.50 0.0 0 0 273.78 167.82
  L 273.81 167.88
  A 1.32 1.32 0.0 0 0 275.73 168.24
  C 286.19 160.22 280.12 153.94 270.16 152.36
  A 0.40 0.40 0.0 0 0 269.79 153.02
  Q 270.52 153.88 271.48 154.30"
/>
<path stroke="#d9bf97" vector-effect="non-scaling-stroke" d="
  M 265.83 166.24
  L 264.35 163.82
  A 2.37 2.29 -67.1 0 1 264.05 163.04
  Q 263.46 160.16 264.81 158.30
  A 2.67 2.46 -86.7 0 1 265.42 157.71
  L 267.32 156.44
  A 1.14 1.14 0.0 0 0 267.22 154.48
  C 265.35 153.48 263.71 154.01 262.52 155.65
  Q 257.79 162.25 265.39 166.69
  A 0.32 0.32 0.0 0 0 265.83 166.24"
/>
<path stroke="#ebdab6" vector-effect="non-scaling-stroke" d="
  M 272.5014 157.7276
  A 1.33 1.33 0.0 0 0 271.0992 156.4739
  L 270.9794 156.4806
  A 1.33 1.33 0.0 0 0 269.7257 157.8828
  L 270.0986 164.5524
  A 1.33 1.33 0.0 0 0 271.5008 165.8061
  L 271.6206 165.7994
  A 1.33 1.33 0.0 0 0 272.8743 164.3972
  L 272.5014 157.7276"
/>
<path stroke="#d9bf97" vector-effect="non-scaling-stroke" d="
  M 269.17 169.01
  L 275.27 173.31
  A 1.57 1.57 0.0 0 1 275.89 174.25
  Q 276.46 176.82 274.04 178.49
  A 1.51 1.51 0.0 0 0 273.39 179.73
  L 273.39 180.32
  A 0.88 0.88 0.0 0 0 274.71 181.09
  C 278.94 178.67 279.83 173.13 274.89 170.60
  C 272.76 169.50 271.62 168.37 269.40 168.32
  A 0.38 0.38 0.0 0 0 269.17 169.01"
/>
<path stroke="#d9bf97" vector-effect="non-scaling-stroke" d="
  M 266.72 179.32
  C 263.46 174.09 268.65 174.00 268.13 170.07
  A 0.34 0.34 0.0 0 0 267.63 169.81
  Q 263.50 171.93 263.59 175.66
  A 2.34 2.32 -63.2 0 0 263.99 176.90
  Q 265.23 178.72 266.19 179.73
  A 0.34 0.34 0.0 0 0 266.72 179.32"
/>
<path stroke="#d9bf97" vector-effect="non-scaling-stroke" d="
  M 271.59 182.27
  A 0.37 0.37 0.0 0 0 271.18 182.86
  Q 272.32 184.06 272.91 185.50
  A 2.54 2.44 33.2 0 1 273.11 186.37
  Q 273.25 189.92 272.37 192.76
  A 0.51 0.51 0.0 0 0 273.16 193.32
  Q 274.63 192.25 275.22 190.18
  Q 276.86 184.43 271.59 182.27"
/>
<path stroke="#d9bf97" vector-effect="non-scaling-stroke" d="
  M 271.96 199.37
  C 272.75 197.17 270.40 194.33 268.72 191.91
  A 2.87 2.68 22.5 0 1 268.32 191.03
  C 267.60 188.18 268.22 186.36 268.73 183.75
  A 0.40 0.40 0.0 0 0 268.12 183.34
  L 267.58 183.70
  A 1.55 1.52 -9.6 0 0 266.95 184.57
  Q 265.83 188.61 267.71 192.59
  A 2.20 1.72 -83.0 0 0 267.92 192.94
  L 270.96 196.80
  A 1.45 1.45 0.0 0 1 271.26 197.48
  L 271.53 199.33
  A 0.22 0.22 0.0 0 0 271.96 199.37"
/>
<path stroke="#caa360" vector-effect="non-scaling-stroke" d="
  M 271.3788 73.0529
  A 2.76 2.24 -48.5 0 0 267.8723 73.6357
  A 2.76 2.24 -48.5 0 0 267.7212 77.1871
  A 2.76 2.24 -48.5 0 0 271.2277 76.6043
  A 2.76 2.24 -48.5 0 0 271.3788 73.0529"
/>
</g>
<path fill="#ffffff" d="
 
  M 267.43 81.67
  L 267.92 92.48
  Q 264.24 90.17 260.75 90.11
  Q 246.93 89.88 232.87 89.86
  L 170.93 89.69
  A 0.49 0.49 0.0 0 0 170.60 90.54
  C 171.80 91.65 177.60 93.56 184.18 96.26
  C 193.60 100.13 201.53 99.31 213.00 98.72
  Q 220.77 98.33 227.97 99.27
  Q 232.02 99.81 235.11 101.94
  A 0.80 0.79 -27.6 0 1 234.65 103.39
  L 219.11 103.39
  A 1.61 1.41 34.7 0 0 218.76 103.43
  Q 212.02 104.88 204.30 103.17
  A 0.91 0.90 0.2 0 0 203.22 104.24
  Q 203.22 104.25 203.31 104.49
  A 0.44 0.41 83.3 0 0 203.63 104.76
  Q 206.35 105.27 208.69 106.30
  A 2.93 2.68 57.9 0 0 209.45 106.51
  L 216.90 107.56
  A 7.82 7.56 -25.2 0 1 219.59 108.48
  L 221.70 109.68
  A 7.02 6.98 60.6 0 0 224.99 110.61
  L 241.26 111.07
  C 244.68 110.90 253.96 111.00 255.76 114.41
  A 0.50 0.50 0.0 0 1 255.32 115.15
  L 229.05 115.15
  A 0.60 0.60 0.0 0 0 228.71 116.24
  L 242.84 126.23
  A 1.68 1.66 -82.5 0 1 243.47 127.06
  Q 244.22 129.19 244.32 129.44
  C 245.86 133.13 251.04 135.58 254.70 136.10
  Q 256.53 136.37 258.94 134.62
  A 1.14 1.13 76.6 0 0 259.40 133.86
  L 259.99 129.70
  A 1.87 1.86 3.9 0 1 261.84 128.09
  L 263.83 128.09
  A 1.04 1.04 0.0 0 0 264.43 126.20
  L 262.58 124.90
  A 1.20 1.19 -56.9 0 1 262.25 123.30
  Q 265.38 118.26 270.50 113.33
  C 275.81 108.20 273.20 102.99 272.53 97.47
  A 1.87 1.85 54.1 0 1 272.69 96.44
  L 273.54 94.54
  A 2.11 2.02 58.5 0 0 273.73 93.67
  L 273.73 82.90
  A 0.75 0.70 -29.7 0 1 273.86 82.49
  C 274.46 81.61 275.78 80.75 276.31 79.86
  Q 279.52 74.51 274.31 70.08
  A 1.69 1.65 -20.9 0 0 273.43 69.70
  C 268.00 69.12 263.40 72.13 264.91 78.08
  Q 265.48 80.32 267.43 81.67
  Z
  M 302.85 101.07
  Q 309.57 103.69 307.58 106.57
  Q 294.82 105.91 283.27 111.10
  A 0.62 0.61 78.2 0 0 282.91 111.66
  L 282.91 122.24
  A 1.35 1.34 81.1 0 1 281.98 123.52
  C 279.57 124.31 277.37 124.74 276.82 126.85
  Q 276.46 128.19 278.30 128.62
  Q 280.10 129.03 281.79 128.29
  Q 282.49 128.30 282.79 128.84
  L 283.08 132.51
  A 1.11 1.10 -9.8 0 1 282.26 133.66
  L 275.90 135.38
  A 0.65 0.34 -35.5 0 1 275.75 135.40
  L 267.57 135.67
  A 0.64 0.64 0.0 0 0 266.96 136.41
  L 266.97 136.45
  A 1.45 1.44 84.9 0 0 268.21 137.49
  Q 277.98 138.56 281.33 142.67
  C 284.30 146.31 278.52 148.64 274.95 150.07
  A 0.88 0.88 0.0 0 0 274.80 151.62
  L 275.00 151.75
  A 3.46 3.45 53.7 0 0 277.79 152.18
  C 283.55 150.56 292.48 144.38 283.93 138.64
  A 0.76 0.75 -32.7 0 1 284.23 137.27
  Q 291.41 136.06 297.20 130.65
  A 1.80 1.78 -14.5 0 0 297.70 129.81
  L 298.36 127.34
  A 2.00 1.97 80.6 0 1 299.18 126.18
  L 314.50 115.95
  A 0.39 0.39 0.0 0 0 314.28 115.23
  L 297.92 115.23
  A 0.68 0.67 -62.3 0 1 297.54 114.00
  Q 301.49 111.24 306.52 110.99
  Q 316.25 111.29 319.55 110.71
  Q 331.27 108.66 341.86 104.47
  A 0.70 0.69 -46.9 0 0 341.82 103.16
  L 341.38 103.02
  A 0.35 0.31 48.6 0 0 341.30 103.01
  L 328.50 104.88
  A 1.13 1.12 -79.8 0 0 327.67 105.46
  Q 326.56 107.46 324.99 106.73
  A 1.34 1.04 70.8 0 1 324.76 106.58
  L 322.12 104.53
  A 1.33 1.31 67.8 0 0 321.49 104.26
  L 317.90 103.76
  A 1.23 1.23 0.0 0 1 317.12 101.76
  Q 318.59 99.97 321.09 99.06
  Q 322.80 98.43 327.49 98.62
  Q 335.99 98.96 344.56 99.36
  C 350.97 99.39 356.17 97.94 361.97 95.21
  C 365.71 93.44 370.06 92.31 373.16 90.71
  A 0.44 0.44 0.0 0 0 372.95 89.88
  L 336.54 90.11
  L 307.25 89.86
  C 299.33 89.26 285.58 88.90 279.17 94.66
  A 0.68 0.68 0.0 0 0 279.73 95.84
  C 284.49 95.16 296.85 93.87 298.96 98.98
  A 0.48 0.48 0.0 0 1 298.52 99.64
  L 294.66 99.64
  A 0.44 0.44 0.0 0 0 294.22 100.02
  L 294.16 100.41
  A 0.25 0.25 0.0 0 0 294.44 100.69
  Q 298.90 100.11 302.85 101.07
  Z
  M 272.02 118.29
  L 268.52 122.35
  A 0.97 0.95 -25.2 0 0 268.29 122.97
  L 268.29 130.26
  A 3.06 3.06 0.0 0 0 270.71 133.25
  L 271.31 133.38
  A 1.95 1.95 0.0 0 0 273.67 131.47
  L 273.67 118.91
  A 0.94 0.94 0.0 0 0 272.02 118.29
  Z
  M 264.47 150.24
  Q 264.45 150.22 260.80 147.08
  Q 259.14 145.65 259.71 143.62
  C 260.18 141.95 261.55 141.33 263.20 140.10
  A 0.82 0.81 26.6 0 0 262.71 138.63
  L 257.70 138.63
  A 0.57 0.53 25.4 0 0 257.38 138.73
  C 254.11 141.11 253.63 144.52 256.41 147.44
  Q 259.63 150.85 264.19 150.96
  A 0.41 0.41 0.0 0 0 264.47 150.24
  Z
  M 273.35 149.09
  L 272.84 140.55
  A 0.84 0.84 0.0 0 0 271.95 139.76
  L 271.48 139.79
  A 2.86 2.66 86.6 0 0 268.99 142.80
  L 269.26 147.31
  A 2.86 2.66 86.6 0 0 272.08 150.01
  L 272.56 149.98
  A 0.84 0.84 0.0 0 0 273.35 149.09
  Z
  M 271.48 154.30
  Q 276.14 156.32 277.89 159.06
  A 2.61 2.59 -47.4 0 1 277.99 161.69
  Q 276.65 164.22 274.24 165.78
  A 1.50 1.50 0.0 0 0 273.78 167.82
  L 273.81 167.88
  A 1.32 1.32 0.0 0 0 275.73 168.24
  C 286.19 160.22 280.12 153.94 270.16 152.36
  A 0.40 0.40 0.0 0 0 269.79 153.02
  Q 270.52 153.88 271.48 154.30
  Z
  M 265.83 166.24
  L 264.35 163.82
  A 2.37 2.29 -67.1 0 1 264.05 163.04
  Q 263.46 160.16 264.81 158.30
  A 2.67 2.46 -86.7 0 1 265.42 157.71
  L 267.32 156.44
  A 1.14 1.14 0.0 0 0 267.22 154.48
  C 265.35 153.48 263.71 154.01 262.52 155.65
  Q 257.79 162.25 265.39 166.69
  A 0.32 0.32 0.0 0 0 265.83 166.24
  Z
  M 272.5014 157.7276
  A 1.33 1.33 0.0 0 0 271.0992 156.4739
  L 270.9794 156.4806
  A 1.33 1.33 0.0 0 0 269.7257 157.8828
  L 270.0986 164.5524
  A 1.33 1.33 0.0 0 0 271.5008 165.8061
  L 271.6206 165.7994
  A 1.33 1.33 0.0 0 0 272.8743 164.3972
  L 272.5014 157.7276
  Z
  M 269.17 169.01
  L 275.27 173.31
  A 1.57 1.57 0.0 0 1 275.89 174.25
  Q 276.46 176.82 274.04 178.49
  A 1.51 1.51 0.0 0 0 273.39 179.73
  L 273.39 180.32
  A 0.88 0.88 0.0 0 0 274.71 181.09
  C 278.94 178.67 279.83 173.13 274.89 170.60
  C 272.76 169.50 271.62 168.37 269.40 168.32
  A 0.38 0.38 0.0 0 0 269.17 169.01
  Z
  M 266.72 179.32
  C 263.46 174.09 268.65 174.00 268.13 170.07
  A 0.34 0.34 0.0 0 0 267.63 169.81
  Q 263.50 171.93 263.59 175.66
  A 2.34 2.32 -63.2 0 0 263.99 176.90
  Q 265.23 178.72 266.19 179.73
  A 0.34 0.34 0.0 0 0 266.72 179.32
  Z
  M 271.59 182.27
  A 0.37 0.37 0.0 0 0 271.18 182.86
  Q 272.32 184.06 272.91 185.50
  A 2.54 2.44 33.2 0 1 273.11 186.37
  Q 273.25 189.92 272.37 192.76
  A 0.51 0.51 0.0 0 0 273.16 193.32
  Q 274.63 192.25 275.22 190.18
  Q 276.86 184.43 271.59 182.27
  Z
  M 271.96 199.37
  C 272.75 197.17 270.40 194.33 268.72 191.91
  A 2.87 2.68 22.5 0 1 268.32 191.03
  C 267.60 188.18 268.22 186.36 268.73 183.75
  A 0.40 0.40 0.0 0 0 268.12 183.34
  L 267.58 183.70
  A 1.55 1.52 -9.6 0 0 266.95 184.57
  Q 265.83 188.61 267.71 192.59
  A 2.20 1.72 -83.0 0 0 267.92 192.94
  L 270.96 196.80
  A 1.45 1.45 0.0 0 1 271.26 197.48
  L 271.53 199.33
  A 0.22 0.22 0.0 0 0 271.96 199.37
  Z"
/>
<path fill="#b37e2e" d="
  M 241.26 111.07
  Q 239.65 105.69 238.35 100.47
  Q 237.64 97.62 232.87 89.86
  Q 246.93 89.88 260.75 90.11
  Q 264.24 90.17 267.92 92.48
  L 270.87 95.04
  A 0.89 0.89 0.0 0 0 272.33 94.52
  Q 273.23 89.01 272.66 83.57
  A 0.95 0.94 85.6 0 0 271.67 82.72
  Q 269.22 82.87 267.43 81.67
  Q 265.48 80.32 264.91 78.08
  C 263.40 72.13 268.00 69.12 273.43 69.70
  A 1.69 1.65 -20.9 0 1 274.31 70.08
  Q 279.52 74.51 276.31 79.86
  C 275.78 80.75 274.46 81.61 273.86 82.49
  A 0.75 0.70 -29.7 0 0 273.73 82.90
  L 273.73 93.67
  A 2.11 2.02 58.5 0 1 273.54 94.54
  L 272.69 96.44
  A 1.87 1.85 54.1 0 0 272.53 97.47
  C 273.20 102.99 275.81 108.20 270.50 113.33
  Q 265.38 118.26 262.25 123.30
  A 1.20 1.19 -56.9 0 0 262.58 124.90
  L 264.43 126.20
  A 1.04 1.04 0.0 0 1 263.83 128.09
  L 261.84 128.09
  A 1.87 1.86 3.9 0 0 259.99 129.70
  L 259.40 133.86
  A 1.14 1.13 76.6 0 1 258.94 134.62
  Q 256.53 136.37 254.70 136.10
  C 251.04 135.58 245.86 133.13 244.32 129.44
  Q 244.22 129.19 243.47 127.06
  A 1.68 1.66 -82.5 0 0 242.84 126.23
  L 228.71 116.24
  A 0.60 0.60 0.0 0 1 229.05 115.15
  L 255.32 115.15
  A 0.50 0.50 0.0 0 0 255.76 114.41
  C 253.96 111.00 244.68 110.90 241.26 111.07
  Z
  M 271.3788 73.0529
  A 2.76 2.24 -48.5 0 0 267.8723 73.6357
  A 2.76 2.24 -48.5 0 0 267.7212 77.1871
  A 2.76 2.24 -48.5 0 0 271.2277 76.6043
  A 2.76 2.24 -48.5 0 0 271.3788 73.0529
  Z"
/>
<ellipse fill="#e1c892" cx="0.00" cy="0.00" transform="translate(269.55,75.12) rotate(-48.5)" rx="2.76" ry="2.24"/>
<path fill="#d7b46c" d="
  M 267.92 92.48
  L 267.43 81.67
  Q 269.22 82.87 271.67 82.72
  A 0.95 0.94 85.6 0 1 272.66 83.57
  Q 273.23 89.01 272.33 94.52
  A 0.89 0.89 0.0 0 1 270.87 95.04
  L 267.92 92.48
  Z"
/>
<path fill="#b37e2e" d="
  M 307.25 89.86
  L 302.85 101.07
  Q 298.90 100.11 294.44 100.69
  A 0.25 0.25 0.0 0 1 294.16 100.41
  L 294.22 100.02
  A 0.44 0.44 0.0 0 1 294.66 99.64
  L 298.52 99.64
  A 0.48 0.48 0.0 0 0 298.96 98.98
  C 296.85 93.87 284.49 95.16 279.73 95.84
  A 0.68 0.68 0.0 0 1 279.17 94.66
  C 285.58 88.90 299.33 89.26 307.25 89.86
  Z"
/>
<path fill="#d7b46c" d="
  M 232.87 89.86
  Q 237.64 97.62 238.35 100.47
  Q 239.65 105.69 241.26 111.07
  L 224.99 110.61
  A 7.02 6.98 60.6 0 1 221.70 109.68
  L 219.59 108.48
  A 7.82 7.56 -25.2 0 0 216.90 107.56
  L 209.45 106.51
  A 2.93 2.68 57.9 0 1 208.69 106.30
  Q 206.35 105.27 203.63 104.76
  A 0.44 0.41 83.3 0 1 203.31 104.49
  Q 203.22 104.25 203.22 104.24
  A 0.91 0.90 0.2 0 1 204.30 103.17
  Q 212.02 104.88 218.76 103.43
  A 1.61 1.41 34.7 0 1 219.11 103.39
  L 234.65 103.39
  A 0.80 0.79 -27.6 0 0 235.11 101.94
  Q 232.02 99.81 227.97 99.27
  Q 220.77 98.33 213.00 98.72
  C 201.53 99.31 193.60 100.13 184.18 96.26
  C 177.60 93.56 171.80 91.65 170.60 90.54
  A 0.49 0.49 0.0 0 1 170.93 89.69
  L 232.87 89.86
  Z"
/>
<path fill="#e1c892" d="
  M 336.54 90.11
  Q 339.91 95.34 344.56 99.36
  Q 335.99 98.96 327.49 98.62
  Q 322.80 98.43 321.09 99.06
  Q 318.59 99.97 317.12 101.76
  A 1.23 1.23 0.0 0 0 317.90 103.76
  L 321.49 104.26
  A 1.33 1.31 67.8 0 1 322.12 104.53
  L 324.76 106.58
  A 1.34 1.04 70.8 0 0 324.99 106.73
  Q 326.56 107.46 327.67 105.46
  A 1.13 1.12 -79.8 0 1 328.50 104.88
  L 341.30 103.01
  A 0.35 0.31 48.6 0 1 341.38 103.02
  L 341.82 103.16
  A 0.70 0.69 -46.9 0 1 341.86 104.47
  Q 331.27 108.66 319.55 110.71
  Q 316.25 111.29 306.52 110.99
  L 307.58 106.57
  Q 309.57 103.69 302.85 101.07
  L 307.25 89.86
  L 336.54 90.11
  Z"
/>
<path fill="#b37e2e" d="
  M 344.56 99.36
  Q 339.91 95.34 336.54 90.11
  L 372.95 89.88
  A 0.44 0.44 0.0 0 1 373.16 90.71
  C 370.06 92.31 365.71 93.44 361.97 95.21
  C 356.17 97.94 350.97 99.39 344.56 99.36
  Z"
/>
<path fill="#b37e2e" d="
  M 307.58 106.57
  L 306.52 110.99
  Q 301.49 111.24 297.54 114.00
  A 0.68 0.67 -62.3 0 0 297.92 115.23
  L 314.28 115.23
  A 0.39 0.39 0.0 0 1 314.50 115.95
  L 299.18 126.18
  A 2.00 1.97 80.6 0 0 298.36 127.34
  L 297.70 129.81
  A 1.80 1.78 -14.5 0 1 297.20 130.65
  Q 291.41 136.06 284.23 137.27
  A 0.76 0.75 -32.7 0 0 283.93 138.64
  C 292.48 144.38 283.55 150.56 277.79 152.18
  A 3.46 3.45 53.7 0 1 275.00 151.75
  L 274.80 151.62
  A 0.88 0.88 0.0 0 1 274.95 150.07
  C 278.52 148.64 284.30 146.31 281.33 142.67
  Q 277.98 138.56 268.21 137.49
  A 1.45 1.44 84.9 0 1 266.97 136.45
  L 266.96 136.41
  A 0.64 0.64 0.0 0 1 267.57 135.67
  L 275.75 135.40
  A 0.65 0.34 -35.5 0 0 275.90 135.38
  L 282.26 133.66
  A 1.11 1.10 -9.8 0 0 283.08 132.51
  L 282.79 128.84
  L 290.35 126.36
  A 0.46 0.46 0.0 0 0 290.37 125.49
  Q 287.51 124.39 284.42 125.16
  A 1.88 1.80 -74.4 0 0 283.51 125.70
  Q 282.44 126.84 281.79 128.29
  Q 280.10 129.03 278.30 128.62
  Q 276.46 128.19 276.82 126.85
  C 277.37 124.74 279.57 124.31 281.98 123.52
  A 1.35 1.34 81.1 0 0 282.91 122.24
  L 282.91 111.66
  A 0.62 0.61 78.2 0 1 283.27 111.10
  Q 294.82 105.91 307.58 106.57
  Z"
/>
<path fill="#e1c892" d="
  M 272.02 118.29
  A 0.94 0.94 0.0 0 1 273.67 118.91
  L 273.67 131.47
  A 1.95 1.95 0.0 0 1 271.31 133.38
  L 270.71 133.25
  A 3.06 3.06 0.0 0 1 268.29 130.26
  L 268.29 122.97
  A 0.97 0.95 -25.2 0 1 268.52 122.35
  L 272.02 118.29
  Z"
/>
<path fill="#e1c892" d="
  M 282.79 128.84
  Q 282.49 128.30 281.79 128.29
  Q 282.44 126.84 283.51 125.70
  A 1.88 1.80 -74.4 0 1 284.42 125.16
  Q 287.51 124.39 290.37 125.49
  A 0.46 0.46 0.0 0 1 290.35 126.36
  L 282.79 128.84
  Z"
/>
<path fill="#b37e2e" d="
  M 264.47 150.24
  A 0.41 0.41 0.0 0 1 264.19 150.96
  Q 259.63 150.85 256.41 147.44
  C 253.63 144.52 254.11 141.11 257.38 138.73
  A 0.57 0.53 25.4 0 1 257.70 138.63
  L 262.71 138.63
  A 0.82 0.81 26.6 0 1 263.20 140.10
  C 261.55 141.33 260.18 141.95 259.71 143.62
  Q 259.14 145.65 260.80 147.08
  Q 264.45 150.22 264.47 150.24
  Z"
/>
<path fill="#d7b46c" d="
  M 273.35 149.09
  A 0.84 0.84 0.0 0 1 272.56 149.98
  L 272.08 150.01
  A 2.86 2.66 86.6 0 1 269.26 147.31
  L 268.99 142.80
  A 2.86 2.66 86.6 0 1 271.48 139.79
  L 271.95 139.76
  A 0.84 0.84 0.0 0 1 272.84 140.55
  L 273.35 149.09
  Z"
/>
<path fill="#b37e2e" d="
  M 271.48 154.30
  Q 270.52 153.88 269.79 153.02
  A 0.40 0.40 0.0 0 1 270.16 152.36
  C 280.12 153.94 286.19 160.22 275.73 168.24
  A 1.32 1.32 0.0 0 1 273.81 167.88
  L 273.78 167.82
  A 1.50 1.50 0.0 0 1 274.24 165.78
  Q 276.65 164.22 277.99 161.69
  A 2.61 2.59 -47.4 0 0 277.89 159.06
  Q 276.14 156.32 271.48 154.30
  Z"
/>
<path fill="#b37e2e" d="
  M 265.83 166.24
  A 0.32 0.32 0.0 0 1 265.39 166.69
  Q 257.79 162.25 262.52 155.65
  C 263.71 154.01 265.35 153.48 267.22 154.48
  A 1.14 1.14 0.0 0 1 267.32 156.44
  L 265.42 157.71
  A 2.67 2.46 -86.7 0 0 264.81 158.30
  Q 263.46 160.16 264.05 163.04
  A 2.37 2.29 -67.1 0 0 264.35 163.82
  L 265.83 166.24
  Z"
/>
<rect fill="#d7b46c" x="-1.39" y="-4.67" transform="translate(271.30,161.14) rotate(-3.2)" width="2.78" height="9.34" rx="1.33"/>
<path fill="#b37e2e" d="
  M 269.17 169.01
  A 0.38 0.38 0.0 0 1 269.40 168.32
  C 271.62 168.37 272.76 169.50 274.89 170.60
  C 279.83 173.13 278.94 178.67 274.71 181.09
  A 0.88 0.88 0.0 0 1 273.39 180.32
  L 273.39 179.73
  A 1.51 1.51 0.0 0 1 274.04 178.49
  Q 276.46 176.82 275.89 174.25
  A 1.57 1.57 0.0 0 0 275.27 173.31
  L 269.17 169.01
  Z"
/>
<path fill="#b37e2e" d="
  M 266.72 179.32
  A 0.34 0.34 0.0 0 1 266.19 179.73
  Q 265.23 178.72 263.99 176.90
  A 2.34 2.32 -63.2 0 1 263.59 175.66
  Q 263.50 171.93 267.63 169.81
  A 0.34 0.34 0.0 0 1 268.13 170.07
  C 268.65 174.00 263.46 174.09 266.72 179.32
  Z"
/>
<path fill="#b37e2e" d="
  M 271.59 182.27
  Q 276.86 184.43 275.22 190.18
  Q 274.63 192.25 273.16 193.32
  A 0.51 0.51 0.0 0 1 272.37 192.76
  Q 273.25 189.92 273.11 186.37
  A 2.54 2.44 33.2 0 0 272.91 185.50
  Q 272.32 184.06 271.18 182.86
  A 0.37 0.37 0.0 0 1 271.59 182.27
  Z"
/>
<path fill="#b37e2e" d="
  M 271.53 199.33
  L 271.26 197.48
  A 1.45 1.45 0.0 0 0 270.96 196.80
  L 267.92 192.94
  A 2.20 1.72 -83.0 0 1 267.71 192.59
  Q 265.83 188.61 266.95 184.57
  A 1.55 1.52 -9.6 0 1 267.58 183.70
  L 268.12 183.34
  A 0.40 0.40 0.0 0 1 268.73 183.75
  C 268.22 186.36 267.60 188.18 268.32 191.03
  A 2.87 2.68 22.5 0 0 268.72 191.91
  C 270.40 194.33 272.75 197.17 271.96 199.37
  A 0.22 0.22 0.0 0 1 271.53 199.33
  Z"
/>
</svg>
